<svg width="28" height="28" viewBox="0 0 28 28" fill="none" xmlns="http://www.w3.org/2000/svg">
<path d="M17.0655 24.3687C22.9372 22.7954 26.4217 16.76 24.8484 10.8883C23.2751 5.01657 17.2397 1.53204 11.368 3.10535C5.49629 4.67867 2.01175 10.7141 3.58507 16.5858C5.15839 22.4575 11.1938 25.942 17.0655 24.3687Z" fill="#F5B300"/>
<path d="M9.88362 9.0821C10.2795 9.08386 10.6664 9.05209 11.0623 9.05385C11.4582 9.05561 11.8451 9.02384 12.2409 9.0256C12.3505 9.03218 12.3751 8.98965 12.3817 8.88005C12.363 8.27395 12.3534 7.70139 12.3348 7.09529C12.3414 6.98569 12.3659 6.94317 12.4755 6.94975C12.8379 6.9605 13.1577 6.94669 13.511 6.9239C13.6206 6.93048 13.6296 6.96402 13.6141 7.04008C13.6237 7.61264 13.6423 8.21874 13.652 8.7913C13.6609 8.82484 13.6699 8.85838 13.6544 8.93444C13.9406 8.92963 14.2605 8.91583 14.5467 8.91101C14.5803 8.90202 14.5958 8.82596 14.6204 8.78343C14.6042 8.32048 14.597 7.89106 14.6143 7.41911L14.6071 6.98969C14.5891 6.92261 14.6136 6.88009 14.6897 6.89565C15.052 6.9064 15.4054 6.88361 15.8013 6.88538C15.8348 6.87639 15.8438 6.90993 15.8773 6.90094C15.8936 7.3639 15.9008 7.79332 15.908 8.22274C15.9194 8.39942 15.9308 8.5761 15.9087 8.76176C15.9021 8.87137 15.9446 8.89592 16.0542 8.9025L17.2958 9.10901C17.6851 9.22038 18.0588 9.40781 18.3834 9.68028C18.8201 10.1025 18.9974 10.6301 19.007 11.2027C19.0053 11.5985 18.961 11.9699 18.7646 12.3101C18.6173 12.5652 18.3849 12.7713 18.1436 12.9438C18.11 12.9528 18.0855 12.9953 18.0184 13.0133C18.1795 13.0779 18.3316 13.1091 18.4927 13.1737C18.9761 13.3677 19.3432 13.6648 19.6032 14.0984C19.7691 14.4493 19.8434 14.8608 19.8417 15.2566C19.8333 15.7621 19.7735 16.2095 19.5705 16.6593C19.3184 17.1942 18.9118 17.5547 18.3931 17.7656C17.7158 18.0549 17.027 18.1676 16.3293 18.2467C16.2197 18.2401 16.1616 18.2916 16.155 18.4013C16.1647 18.9738 16.1833 19.5799 16.1929 20.1525C16.1953 20.2956 16.2043 20.3291 16.0186 20.307C15.6988 20.3208 15.3365 20.3101 15.0167 20.3239C14.9071 20.3173 14.8981 20.2837 14.9136 20.2077C14.895 19.6016 14.8764 18.9955 14.9003 18.4139C14.8823 18.3469 14.9069 18.3043 14.8308 18.2888C14.5445 18.2936 14.2583 18.2984 13.9385 18.3122C13.9523 18.632 13.9325 18.9608 13.9463 19.2806C13.9601 19.6005 13.9404 19.9293 13.9542 20.2491C13.9386 20.3251 13.9476 20.3587 13.838 20.3521C13.4757 20.3414 13.1223 20.3641 12.769 20.3869C12.6594 20.3804 12.6504 20.3468 12.6659 20.2708C12.6473 19.6647 12.6287 19.0586 12.6526 18.477C12.6436 18.4435 12.6682 18.4009 12.6502 18.3339C11.8249 18.3393 10.9996 18.3448 10.1407 18.3592C10.1719 18.2071 10.1785 18.0975 10.2096 17.9454C10.2629 17.6076 10.3161 17.2698 10.3449 16.9745C10.3514 16.8649 10.385 16.8559 10.4856 16.829C10.7383 16.8332 11.0246 16.8283 11.2684 16.799C11.5546 16.7942 11.7199 16.6061 11.6906 16.3623C11.6682 14.5351 11.6459 12.7078 11.5811 10.8559C11.5763 10.5697 11.3277 10.3127 10.9989 10.293C10.6701 10.2733 10.3503 10.2871 10.064 10.2919C9.99692 10.3099 9.95439 10.2853 9.96996 10.2092C9.97172 9.81337 9.9645 9.38395 9.96626 8.98806C9.85907 9.12463 9.85907 9.12462 9.88362 9.0821ZM13.8138 16.9078C13.8473 16.8988 13.8898 16.9233 13.8898 16.9233C14.4624 16.9137 15.0775 16.9286 15.6566 16.8094C16.0681 16.7351 16.437 16.6362 16.7699 16.4032C17.3533 16.0312 17.3969 15.1209 16.8842 14.6831C16.6446 14.4598 16.3314 14.364 16.0181 14.2682C15.3246 14.0945 14.5843 14.1491 13.8776 14.1947C13.768 14.1881 13.777 14.2216 13.7704 14.3312C13.7932 14.6846 13.7735 15.0134 13.7963 15.3668C13.7879 15.8722 13.8131 16.3687 13.8138 16.9078ZM15.7143 12.732C15.7814 12.714 15.9401 12.6355 16.0653 12.566C16.6666 12.2611 16.8043 11.4334 16.3161 10.9532C16.0675 10.6962 15.7118 10.5759 15.374 10.5226C14.8505 10.4472 14.354 10.4724 13.815 10.473C13.7054 10.4665 13.6808 10.509 13.6743 10.6186C13.6953 11.3678 13.7073 12.0835 13.6948 12.8417C13.6793 12.9178 13.7218 12.9424 13.7978 12.9579C13.941 12.9555 14.0506 12.9621 14.1937 12.9597C14.7148 12.892 15.1777 12.8758 15.7143 12.732Z" fill="white"/>
</svg>
