<svg width="136" height="136" viewBox="0 0 136 136" fill="none" xmlns="http://www.w3.org/2000/svg">
<path d="M122.208 30.5257C121.3 30.5431 120.395 30.6426 119.505 30.823V19.7161C119.505 18.9994 119.221 18.312 118.714 17.8052C118.207 17.2984 117.52 17.0137 116.803 17.0137H99.5345C99.3373 16.9856 99.1372 16.9856 98.94 17.0137H98.5076L98.1293 17.284C97.9564 17.3855 97.7936 17.5031 97.6428 17.6353C97.5699 17.7373 97.5065 17.8458 97.4537 17.9596C97.3388 18.1211 97.2393 18.293 97.1564 18.473C97.1308 18.6613 97.1308 18.8522 97.1564 19.0405C97.1438 19.1663 97.1438 19.2931 97.1564 19.4188C97.1308 19.6072 97.1308 19.798 97.1564 19.9864C97.141 20.1391 97.141 20.293 97.1564 20.4458L97.4266 20.8241L97.7779 21.3105C99.0018 22.4051 99.8644 23.8455 100.252 25.4411C100.639 27.0367 100.533 28.7123 99.9467 30.2461C99.3608 31.7799 98.323 33.0997 96.9706 34.0308C95.6183 34.9619 94.0151 35.4605 92.3731 35.4605C90.7312 35.4605 89.128 34.9619 87.7757 34.0308C86.4233 33.0997 85.3855 31.7799 84.7996 30.2461C84.2137 28.7123 84.1074 27.0367 84.4947 25.4411C84.8819 23.8455 85.7445 22.4051 86.9683 21.3105L87.3197 20.8241L87.5899 20.4458C87.6052 20.293 87.6052 20.1391 87.5899 19.9864C87.6155 19.798 87.6155 19.6072 87.5899 19.4188C87.6025 19.2931 87.6025 19.1663 87.5899 19.0405C87.6155 18.8522 87.6155 18.6613 87.5899 18.473C87.507 18.293 87.4075 18.1211 87.2926 17.9596C87.2397 17.8458 87.1764 17.7373 87.1035 17.6353C86.9527 17.5031 86.7899 17.3855 86.617 17.284L86.2387 17.0137H85.8063C85.6091 16.9856 85.409 16.9856 85.2118 17.0137H57.0528C57.2332 16.1237 57.3327 15.2192 57.35 14.3113C57.35 10.7277 55.9264 7.29088 53.3925 4.75689C50.8585 2.2229 47.4216 0.799316 43.838 0.799316C40.2544 0.799316 36.8176 2.2229 34.2836 4.75689C31.7496 7.29088 30.326 10.7277 30.326 14.3113C30.3434 15.2192 30.4429 16.1237 30.6233 17.0137H19.5164C18.7997 17.0137 18.1123 17.2984 17.6055 17.8052C17.0987 18.312 16.814 18.9994 16.814 19.7161V34.8495C16.8014 35.0205 16.8014 35.1921 16.814 35.363C16.8485 35.5434 16.9124 35.7168 17.0032 35.8765C16.9905 35.9298 16.9905 35.9853 17.0032 36.0386C17.0032 36.0386 17.1653 36.2007 17.2194 36.2818L17.5977 36.7142L18.0301 36.9844L18.4895 37.2006C18.6613 37.2741 18.8438 37.3198 19.03 37.3358H20.0299C20.2057 37.298 20.3776 37.2437 20.5433 37.1736H20.7055C21.9694 36.379 23.4283 35.9488 24.9212 35.9305C27.0714 35.9305 29.1335 36.7847 30.6539 38.305C32.1743 39.8254 33.0284 41.8875 33.0284 44.0377C33.0284 46.1879 32.1743 48.25 30.6539 49.7704C29.1335 51.2908 27.0714 52.1449 24.9212 52.1449C23.4961 52.1383 22.0979 51.7561 20.8676 51.0369H20.7055C20.5398 50.9669 20.3679 50.9126 20.192 50.8748H19.1921C19.0059 50.8908 18.8235 50.9364 18.6516 51.0099L18.1922 51.2261L17.7599 51.4963L17.3815 51.9287C17.3815 51.9287 17.2194 52.0638 17.1653 52.1719C17.1527 52.2252 17.1527 52.2808 17.1653 52.3341C17.0746 52.4937 17.0107 52.6672 16.9762 52.8475C16.9635 53.0184 16.9635 53.1901 16.9762 53.361V79.6013C16.0374 79.3654 15.0781 79.2206 14.1116 79.1689C10.528 79.1689 7.09118 80.5925 4.55718 83.1265C2.02319 85.6605 0.599609 89.0973 0.599609 92.6809C0.599609 96.2645 2.02319 99.7013 4.55718 102.235C7.09118 104.769 10.528 106.193 14.1116 106.193C15.0195 106.176 15.924 106.076 16.814 105.896V117.002C16.814 117.719 17.0987 118.407 17.6055 118.913C18.1123 119.42 18.7997 119.705 19.5164 119.705H35.1633C35.3392 119.667 35.5111 119.613 35.6768 119.543H35.8389L36.0821 119.3L36.5145 118.948C36.6202 118.814 36.7108 118.669 36.7848 118.516C36.8728 118.371 36.9453 118.217 37.0009 118.056C37.0745 117.885 37.1201 117.702 37.1361 117.516C37.1361 117.516 37.1361 117.3 37.1361 117.192V117.03C37.1487 116.859 37.1487 116.687 37.1361 116.516C37.1016 116.336 37.0377 116.162 36.9469 116.003C36.9595 115.949 36.9595 115.894 36.9469 115.84C36.157 114.566 35.736 113.097 35.7308 111.598C35.7308 109.448 36.585 107.385 38.1054 105.865C39.6258 104.345 41.6879 103.49 43.838 103.49C45.9882 103.49 48.0503 104.345 49.5707 105.865C51.0911 107.385 51.9452 109.448 51.9452 111.598C51.9386 113.023 51.5564 114.421 50.8372 115.651C50.8246 115.705 50.8246 115.76 50.8372 115.813C50.7465 115.973 50.6826 116.147 50.6481 116.327C50.6355 116.498 50.6355 116.669 50.6481 116.84V117.327C50.6641 117.513 50.7097 117.695 50.7832 117.867C50.8388 118.028 50.9113 118.182 50.9994 118.327C51.0733 118.48 51.164 118.625 51.2696 118.759L51.702 119.11C51.702 119.11 51.8371 119.3 51.9452 119.354H52.3776C52.6705 119.47 52.9815 119.534 53.2964 119.543H79.3746C79.1478 120.482 79.0121 121.442 78.9692 122.407C78.9692 125.991 80.3928 129.428 82.9268 131.962C85.4608 134.496 88.8976 135.919 92.4812 135.919C96.0648 135.919 99.5017 134.496 102.036 131.962C104.57 129.428 105.993 125.991 105.993 122.407C105.976 121.499 105.876 120.595 105.696 119.705H116.803C117.52 119.705 118.207 119.42 118.714 118.913C119.221 118.407 119.505 117.719 119.505 117.002V101.869C119.518 101.698 119.518 101.527 119.505 101.356C119.471 101.175 119.407 101.002 119.316 100.842C119.329 100.789 119.329 100.733 119.316 100.68C119.316 100.68 119.154 100.518 119.1 100.437L118.722 100.004L118.289 99.7342L117.83 99.4909C117.651 99.4626 117.468 99.4626 117.289 99.4909H116.289C116.114 99.5287 115.942 99.583 115.776 99.6531H115.614C114.339 100.41 112.881 100.802 111.398 100.788C109.248 100.788 107.186 99.9339 105.665 98.4135C104.145 96.8932 103.291 94.8311 103.291 92.6809C103.291 90.5307 104.145 88.4686 105.665 86.9482C107.186 85.4278 109.248 84.5737 111.398 84.5737C112.823 84.5803 114.221 84.9625 115.452 85.6817H115.614C115.779 85.7517 115.951 85.806 116.127 85.8438H117.127C117.313 85.8278 117.496 85.7822 117.668 85.7087L118.127 85.4925L118.559 85.2223L118.938 84.7899C118.938 84.7899 119.1 84.6548 119.154 84.5467C119.167 84.4934 119.167 84.4378 119.154 84.3845C119.245 84.2249 119.309 84.0514 119.343 83.8711C119.356 83.7002 119.356 83.5285 119.343 83.3576V57.2524C120.286 57.4428 121.245 57.5424 122.208 57.5497C125.791 57.5497 129.228 56.1261 131.762 53.5921C134.296 51.0581 135.72 47.6213 135.72 44.0377C135.72 40.4541 134.296 37.0173 131.762 34.4833C129.228 31.9493 125.791 30.5257 122.208 30.5257ZM38.4332 44.0377C38.4332 40.4541 37.0096 37.0173 34.4756 34.4833C31.9417 31.9493 28.5048 30.5257 24.9212 30.5257C24.0133 30.5431 23.1088 30.6426 22.2188 30.823V22.4185H35.1633C35.3392 22.3807 35.5111 22.3264 35.6768 22.2564H35.8389L36.0821 22.0132L36.5145 21.6618C36.6202 21.5281 36.7108 21.3831 36.7848 21.2295C36.8728 21.0844 36.9453 20.9304 37.0009 20.77C37.0745 20.5982 37.1201 20.4158 37.1361 20.2296C37.1361 20.2296 37.1361 20.0134 37.1361 19.9053V19.7431C37.1487 19.5722 37.1487 19.4006 37.1361 19.2297C37.1016 19.0493 37.0377 18.8759 36.9469 18.7162C36.9595 18.6629 36.9595 18.6074 36.9469 18.5541C36.157 17.2795 35.736 15.8108 35.7308 14.3113C35.7308 12.1611 36.585 10.0991 38.1054 8.57866C39.6258 7.05826 41.6879 6.20411 43.838 6.20411C45.9882 6.20411 48.0503 7.05826 49.5707 8.57866C51.0911 10.0991 51.9452 12.1611 51.9452 14.3113C51.9386 15.7364 51.5564 17.1346 50.8372 18.3649C50.8246 18.4182 50.8246 18.4737 50.8372 18.5271C50.7465 18.6867 50.6826 18.8601 50.6481 19.0405C50.6355 19.2114 50.6355 19.383 50.6481 19.554V20.0404C50.6641 20.2266 50.7097 20.4091 50.7832 20.5809C50.8388 20.7412 50.9113 20.8952 50.9994 21.0403C51.0733 21.1939 51.164 21.3389 51.2696 21.4727L51.702 21.824C51.702 21.824 51.8371 22.0132 51.9452 22.0672H52.3776C52.6705 22.1833 52.9815 22.2474 53.2964 22.2564H65.4572V30.6608C64.5623 30.5347 63.6579 30.4895 62.7548 30.5257C59.1712 30.5257 55.7344 31.9493 53.2004 34.4833C50.6664 37.0173 49.2428 40.4541 49.2428 44.0377C49.2428 47.6213 50.6664 51.0581 53.2004 53.5921C55.7344 56.1261 59.1712 57.5497 62.7548 57.5497C63.6628 57.5323 64.5672 57.4328 65.4572 57.2524V65.6569H52.5127C52.3369 65.6947 52.165 65.749 51.9993 65.819H51.8371L51.5939 66.0623L51.1615 66.4136C51.0559 66.5474 50.9652 66.6924 50.8913 66.846C50.8032 66.991 50.7308 67.145 50.6751 67.3054C50.6016 67.4772 50.556 67.6596 50.54 67.8458C50.54 67.8458 50.54 68.062 50.54 68.1701V68.3323C50.5274 68.5032 50.5274 68.6748 50.54 68.8457C50.5745 69.0261 50.6384 69.1996 50.7291 69.3592C50.7165 69.4125 50.7165 69.468 50.7291 69.5213C51.5191 70.7959 51.94 72.2646 51.9452 73.7641C51.9452 75.9143 51.0911 77.9763 49.5707 79.4967C48.0503 81.0171 45.9882 81.8713 43.838 81.8713C41.6879 81.8713 39.6258 81.0171 38.1054 79.4967C36.585 77.9763 35.7308 75.9143 35.7308 73.7641C35.7375 72.339 36.1196 70.9408 36.8388 69.7105C36.8514 69.6572 36.8514 69.6017 36.8388 69.5483C36.9296 69.3887 36.9935 69.2153 37.028 69.0349C37.0406 68.864 37.0406 68.6924 37.028 68.5214V68.035C37.012 67.8488 36.9664 67.6664 36.8929 67.4945C36.8372 67.3342 36.7647 67.1802 36.6767 67.0351C36.6027 66.8815 36.5121 66.7365 36.4064 66.6027L35.974 66.2514C35.974 66.2514 35.8389 66.0623 35.7308 66.0082H35.5687C35.403 65.9382 35.2311 65.8839 35.0552 65.8461H22.2188V57.2524C23.1088 57.4328 24.0133 57.5323 24.9212 57.5497C26.6956 57.5497 28.4527 57.2002 30.092 56.5212C31.7314 55.8421 33.2209 54.8468 34.4756 53.5921C35.7304 52.3374 36.7256 50.8479 37.4047 49.2085C38.0837 47.5692 38.4332 45.8121 38.4332 44.0377ZM43.838 98.0857C40.2544 98.0857 36.8176 99.5093 34.2836 102.043C31.7496 104.577 30.326 108.014 30.326 111.598C30.3434 112.506 30.4429 113.41 30.6233 114.3H22.2188V101.869C22.2314 101.698 22.2314 101.527 22.2188 101.356C22.1843 101.175 22.1204 101.002 22.0296 100.842C22.0423 100.789 22.0423 100.733 22.0296 100.68C22.0296 100.68 21.8675 100.518 21.8135 100.437L21.4351 100.004L21.0027 99.7342L20.5433 99.518C20.3654 99.4774 20.1807 99.4774 20.0028 99.518H19.003C18.8271 99.5558 18.6552 99.6101 18.4895 99.6801H18.3274C17.0496 100.427 15.5917 100.811 14.1116 100.788C11.9615 100.788 9.89935 99.9339 8.37895 98.4135C6.85856 96.8932 6.00441 94.8311 6.00441 92.6809C6.00441 90.5307 6.85856 88.4686 8.37895 86.9482C9.89935 85.4278 11.9615 84.5737 14.1116 84.5737C15.5367 84.5803 16.9349 84.9625 18.1652 85.6817H18.3274C18.493 85.7517 18.665 85.806 18.8408 85.8438H19.8407C20.0269 85.8278 20.2094 85.7822 20.3812 85.7087L20.8406 85.4925L21.273 85.2223L21.6513 84.7899C21.6513 84.7899 21.8135 84.6548 21.8675 84.5467C21.8801 84.4934 21.8801 84.4378 21.8675 84.3845C21.9583 84.2249 22.0222 84.0514 22.0567 83.8711C22.0693 83.7002 22.0693 83.5285 22.0567 83.3576V71.0617H30.4611C30.3351 71.9566 30.2898 72.8611 30.326 73.7641C30.326 77.3477 31.7496 80.7845 34.2836 83.3185C36.8176 85.8525 40.2544 87.2761 43.838 87.2761C47.4216 87.2761 50.8585 85.8525 53.3925 83.3185C55.9264 80.7845 57.35 77.3477 57.35 73.7641C57.3327 72.8562 57.2332 71.9517 57.0528 71.0617H65.4572V83.4927C65.4446 83.6637 65.4446 83.8353 65.4572 84.0062C65.4917 84.1866 65.5556 84.36 65.6464 84.5196C65.6338 84.573 65.6338 84.6285 65.6464 84.6818C65.6464 84.6818 65.8085 84.8439 65.8626 84.925L66.2409 85.3574L66.6733 85.6276L67.1327 85.8438C67.3046 85.9173 67.487 85.9629 67.6732 85.9789H68.6731C68.8489 85.9411 69.0209 85.8868 69.1865 85.8168H69.3487C70.6127 85.0221 72.0715 84.592 73.5644 84.5737C75.7146 84.5737 77.7767 85.4278 79.2971 86.9482C80.8175 88.4686 81.6716 90.5307 81.6716 92.6809C81.6716 94.8311 80.8175 96.8932 79.2971 98.4135C77.7767 99.9339 75.7146 100.788 73.5644 100.788C72.1393 100.781 70.7412 100.399 69.5108 99.6801H69.3487C69.183 99.6101 69.0111 99.5558 68.8352 99.518H67.8353C67.6575 99.4774 67.4727 99.4774 67.2949 99.518L66.8355 99.7342L66.4031 100.004L66.0247 100.437C66.0247 100.437 65.8626 100.572 65.8085 100.68C65.7959 100.733 65.7959 100.789 65.8085 100.842C65.7178 101.002 65.6539 101.175 65.6194 101.356C65.6068 101.527 65.6068 101.698 65.6194 101.869V114.3H57.0528C57.2332 113.41 57.3327 112.506 57.35 111.598C57.35 108.014 55.9264 104.577 53.3925 102.043C50.8585 99.5093 47.4216 98.0857 43.838 98.0857ZM97.886 92.6809C97.886 96.2645 99.3096 99.7013 101.844 102.235C104.378 104.769 107.814 106.193 111.398 106.193C112.306 106.176 113.21 106.076 114.1 105.896V114.3H101.156C100.98 114.338 100.808 114.392 100.642 114.462H100.48L100.237 114.705L99.8047 115.057C99.6991 115.191 99.6085 115.336 99.5345 115.489C99.4464 115.634 99.374 115.788 99.3183 115.949C99.2448 116.12 99.1992 116.303 99.1832 116.489C99.1832 116.489 99.1832 116.705 99.1832 116.813V116.975C99.1706 117.146 99.1706 117.318 99.1832 117.489C99.2177 117.669 99.2816 117.843 99.3724 118.002C99.3597 118.056 99.3597 118.111 99.3724 118.165C100.162 119.439 100.583 120.908 100.588 122.407C100.588 124.557 99.7343 126.62 98.2139 128.14C96.6935 129.66 94.6314 130.514 92.4812 130.514C90.3311 130.514 88.269 129.66 86.7486 128.14C85.2282 126.62 84.374 124.557 84.374 122.407C84.3807 120.982 84.7628 119.584 85.482 118.354C85.4947 118.3 85.4947 118.245 85.482 118.192C85.5728 118.032 85.6367 117.858 85.6712 117.678C85.6838 117.507 85.6838 117.336 85.6712 117.165V116.678C85.6552 116.492 85.6096 116.31 85.5361 116.138C85.4804 115.977 85.4079 115.823 85.3199 115.678C85.2459 115.525 85.1553 115.38 85.0496 115.246L84.6173 114.895C84.6173 114.895 84.4821 114.705 84.374 114.651H84.2119C84.0462 114.581 83.8743 114.527 83.6984 114.489H70.862V105.896C71.752 106.076 72.6565 106.176 73.5644 106.193C77.148 106.193 80.5849 104.769 83.1189 102.235C85.6529 99.7013 87.0764 96.2645 87.0764 92.6809C87.0764 89.0973 85.6529 85.6605 83.1189 83.1265C80.5849 80.5925 77.148 79.1689 73.5644 79.1689C72.6565 79.1863 71.752 79.2858 70.862 79.4662V71.0617H85.428C85.6252 71.0898 85.8253 71.0898 86.0225 71.0617H86.4549L86.8332 70.7915C87.0061 70.6899 87.1689 70.5723 87.3197 70.4401C87.3926 70.3381 87.4559 70.2296 87.5088 70.1159C87.6236 69.9543 87.7232 69.7824 87.8061 69.6024C87.8317 69.4141 87.8317 69.2232 87.8061 69.0349C87.8187 68.9091 87.8187 68.7824 87.8061 68.6566C87.8317 68.4683 87.8317 68.2774 87.8061 68.0891C87.8214 67.9363 87.8214 67.7824 87.8061 67.6296L87.5358 67.2513C87.4343 67.0785 87.3167 66.9156 87.1845 66.7649C85.9607 65.6703 85.0981 64.2299 84.7109 62.6343C84.3236 61.0387 84.4299 59.3631 85.0158 57.8293C85.6017 56.2955 86.6395 54.9757 87.9918 54.0446C89.3442 53.1135 90.9474 52.6149 92.5893 52.6149C94.2313 52.6149 95.8345 53.1135 97.1868 54.0446C98.5392 54.9757 99.577 56.2955 100.163 57.8293C100.749 59.3631 100.855 61.0387 100.468 62.6343C100.081 64.2299 99.2179 65.6703 97.9941 66.7649C97.862 66.9156 97.7444 67.0785 97.6428 67.2513L97.3726 67.6296C97.3572 67.7824 97.3572 67.9363 97.3726 68.0891C97.347 68.2774 97.347 68.4683 97.3726 68.6566C97.3599 68.7824 97.3599 68.9091 97.3726 69.0349C97.347 69.2232 97.347 69.4141 97.3726 69.6024C97.4555 69.7824 97.555 69.9543 97.6698 70.1159C97.7227 70.2296 97.7861 70.3381 97.859 70.4401C98.068 70.6434 98.3045 70.8162 98.5616 70.9536C98.6347 70.9827 98.6996 71.0291 98.7508 71.0887C99.0937 71.2301 99.4609 71.3035 99.8318 71.3049H114.1V79.7094C113.218 79.447 112.313 79.266 111.398 79.1689C107.814 79.1689 104.378 80.5925 101.844 83.1265C99.3096 85.6605 97.886 89.0973 97.886 92.6809ZM122.208 52.1449C120.783 52.1383 119.384 51.7561 118.154 51.0369H117.992C117.826 50.9669 117.654 50.9126 117.478 50.8748H116.479C116.292 50.8908 116.11 50.9364 115.938 51.0099L115.479 51.2261L115.046 51.4963L114.668 51.9287C114.668 51.9287 114.506 52.0638 114.452 52.1719C114.439 52.2252 114.439 52.2808 114.452 52.3341C114.361 52.4937 114.297 52.6672 114.263 52.8475C114.25 53.0184 114.25 53.1901 114.263 53.361V65.6569H104.858C105.759 63.6004 106.133 61.352 105.947 59.1147C105.76 56.8774 105.019 54.7218 103.791 52.8426C102.562 50.9635 100.885 49.4201 98.9106 48.3518C96.936 47.2836 94.7263 46.7242 92.4812 46.7242C90.2362 46.7242 88.0265 47.2836 86.0519 48.3518C84.0773 49.4201 82.4 50.9635 81.1715 52.8426C79.9431 54.7218 79.2022 56.8774 79.0159 59.1147C78.8295 61.352 79.2036 63.6004 80.1042 65.6569H70.862V53.2259C70.8747 53.0549 70.8747 52.8833 70.862 52.7124C70.8275 52.532 70.7636 52.3586 70.6729 52.199C70.6855 52.1456 70.6855 52.0901 70.6729 52.0368C70.6729 52.0368 70.5107 51.8747 70.4567 51.7936L70.0783 51.3612L69.646 51.091L69.1865 50.8748C69.0147 50.8013 68.8323 50.7557 68.6461 50.7397H67.6462C67.4703 50.7775 67.2984 50.8318 67.1327 50.9018H66.9706C65.7066 51.6964 64.2477 52.1266 62.7548 52.1449C60.6047 52.1449 58.5426 51.2908 57.0222 49.7704C55.5018 48.25 54.6476 46.1879 54.6476 44.0377C54.6476 41.8875 55.5018 39.8254 57.0222 38.305C58.5426 36.7847 60.6047 35.9305 62.7548 35.9305C64.1799 35.9371 65.5781 36.3193 66.8084 37.0385H66.9706C67.1363 37.1085 67.3082 37.1628 67.484 37.2006H68.4839C68.6701 37.1846 68.8526 37.139 69.0244 37.0655L69.4838 36.8493L69.9162 36.5791L70.2945 36.1467C70.2945 36.1467 70.4567 36.0116 70.5107 35.9035C70.5234 35.8502 70.5234 35.7946 70.5107 35.7413C70.6015 35.5817 70.6654 35.4082 70.6999 35.2279C70.7125 35.057 70.7125 34.8853 70.6999 34.7144V22.4185H79.9421C79.0414 24.475 78.6674 26.7234 78.8537 28.9607C79.0401 31.198 79.7809 33.3537 81.0094 35.2328C82.2378 37.1119 83.9152 38.6553 85.8898 39.7236C87.8644 40.7918 90.074 41.3512 92.3191 41.3512C94.5641 41.3512 96.7738 40.7918 98.7484 39.7236C100.723 38.6553 102.4 37.1119 103.629 35.2328C104.857 33.3537 105.598 31.198 105.784 28.9607C105.971 26.7234 105.597 24.475 104.696 22.4185H114.1V34.8495C114.088 35.0205 114.088 35.1921 114.1 35.363C114.135 35.5434 114.199 35.7168 114.29 35.8765C114.277 35.9298 114.277 35.9853 114.29 36.0386C114.29 36.0386 114.452 36.2007 114.506 36.2818L114.884 36.7142L115.317 36.9844L115.776 37.2006C115.948 37.2741 116.13 37.3198 116.316 37.3358H117.316C117.492 37.298 117.664 37.2437 117.83 37.1736H117.992C119.256 36.379 120.715 35.9488 122.208 35.9305C124.358 35.9305 126.42 36.7847 127.94 38.305C129.461 39.8254 130.315 41.8875 130.315 44.0377C130.315 46.1879 129.461 48.25 127.94 49.7704C126.42 51.2908 124.358 52.1449 122.208 52.1449Z" fill="white"/>
</svg>
