<svg width="95" height="149" viewBox="0 0 95 149" fill="none" xmlns="http://www.w3.org/2000/svg">
<path d="M93.7533 54.2451C93.5285 53.7818 93.1778 53.3912 92.7414 53.1179C92.3049 52.8446 91.8003 52.6998 91.2854 52.6999H62.7125L85.5374 4.51454C85.7356 4.09666 85.8248 3.6354 85.7967 3.17375C85.7687 2.71209 85.6242 2.26505 85.3768 1.87426C85.1294 1.48348 84.7872 1.16166 84.3819 0.938782C83.9766 0.715908 83.5215 0.599227 83.059 0.59961H39.1851C38.6561 0.599528 38.1385 0.752424 37.6945 1.03987C37.2504 1.32731 36.899 1.73703 36.6826 2.21966L1.03501 81.7412C0.847729 82.1588 0.76795 82.6167 0.802954 83.073C0.837957 83.5293 0.986629 83.9697 1.23541 84.3538C1.48419 84.738 1.82518 85.0538 2.22727 85.2724C2.62937 85.491 3.07979 85.6055 3.53747 85.6054H30.2984L17.3109 145.348C17.1784 145.955 17.2555 146.588 17.5295 147.144C17.8035 147.701 18.2582 148.149 18.8193 148.413C19.3805 148.678 20.0149 148.745 20.6188 148.603C21.2228 148.46 21.7606 148.117 22.1444 147.63L93.4396 57.1397C93.758 56.7352 93.9563 56.2492 94.0117 55.7374C94.0672 55.2256 93.9777 54.7085 93.7533 54.2451Z" fill="white"/>
</svg>
