<svg width="118" height="110" viewBox="0 0 118 110" fill="none" xmlns="http://www.w3.org/2000/svg">
<path d="M3.07227 107.506H115.444M4.23313 69.1976C4.23313 69.1976 74.1172 56.8925 107.086 7.43961M101.978 3.02832H111.729V11.3866M106.621 55.0351V107.506H91.9945V40.176C91.9945 37.1578 94.5484 34.6039 97.5667 34.6039H101.049C104.068 34.6039 106.621 37.1578 106.621 40.176V50.1594M65.2946 67.1081V56.4281C65.2946 53.4099 67.8485 50.856 70.8668 50.856H74.3494C77.3676 50.856 79.9215 53.4099 79.9215 56.4281V107.506H65.2946V71.5194M53.4538 83.5924V107.738H38.5947V72.9124C38.5947 69.8942 41.1486 67.3402 44.1669 67.3402H47.6495C50.6677 67.3402 53.2216 69.8942 53.2216 72.9124V79.1811M11.8948 93.3436V88.7002C11.8948 85.6819 14.4487 83.128 17.467 83.128H20.9496C23.9678 83.128 26.5217 85.6819 26.5217 88.7002V107.506H11.8948V98.6836" stroke="white" stroke-width="4.42126" stroke-miterlimit="10" stroke-linecap="round" stroke-linejoin="round"/>
</svg>
