<svg width="133" height="136" viewBox="0 0 133 136" fill="none" xmlns="http://www.w3.org/2000/svg">
<path d="M68.6359 135.956C66.5684 135.955 64.5172 135.591 62.576 134.879L29.5743 122.76C28.1551 122.233 26.654 121.962 25.1403 121.957H20.4952C20.2152 121.957 19.9466 121.846 19.7487 121.648C19.5507 121.45 19.4395 121.181 19.4395 120.901C19.4395 120.621 19.5507 120.353 19.7487 120.155C19.9466 119.957 20.2152 119.846 20.4952 119.846H25.1403C26.8968 119.852 28.6393 120.159 30.2922 120.754L63.2939 132.894C65.6241 133.739 68.1214 134.018 70.5807 133.71C73.0399 133.402 75.3909 132.514 77.4405 131.121L127.587 96.8945C131.071 94.403 131.81 91.8904 129.699 88.4487C127.123 84.9649 122.625 86.4429 121.253 86.9707L88.0611 103.334C87.9377 103.394 87.8037 103.429 87.6669 103.437C87.5301 103.444 87.3931 103.425 87.2637 103.38C87.1343 103.335 87.015 103.265 86.9128 103.174C86.8104 103.083 86.7271 102.972 86.6675 102.849C86.6079 102.725 86.5732 102.591 86.5653 102.455C86.5574 102.318 86.5766 102.181 86.6217 102.051C86.6668 101.922 86.7369 101.803 86.8281 101.7C86.9193 101.598 87.0297 101.515 87.1531 101.455L120.45 85.1549C124.906 83.3391 129.086 84.2048 131.43 87.393C135.23 93.9174 130.311 97.4435 128.706 98.6047L78.6018 132.894C75.665 134.897 72.1907 135.965 68.6359 135.956Z" fill="white"/>
<path d="M80.0798 111.189H61.5837C61.3037 111.189 61.0352 111.078 60.8372 110.88C60.6392 110.682 60.528 110.413 60.528 110.133C60.528 109.853 60.6392 109.585 60.8372 109.387C61.0352 109.189 61.3037 109.077 61.5837 109.077H79.8053C80.6672 109.162 81.5372 109.068 82.3615 108.803C83.1859 108.538 83.9472 108.107 84.5983 107.536C85.2478 106.942 85.7698 106.222 86.1327 105.419C86.4957 104.617 86.692 103.75 86.7097 102.87C86.7268 102.317 86.6772 101.764 86.5619 101.223C86.2279 99.7772 85.4259 98.4824 84.2805 97.5393C83.1352 96.5963 81.7104 96.0578 80.2276 96.0076L57.5719 95.4797C55.3376 95.4306 53.1405 94.8975 51.1321 93.9172L31.7069 84.5636C29.8409 83.6467 27.7895 83.17 25.7104 83.17H20.4952C20.2152 83.17 19.9466 83.0588 19.7487 82.8608C19.5507 82.6628 19.4395 82.3943 19.4395 82.1143C19.4395 81.8343 19.5507 81.5658 19.7487 81.3678C19.9466 81.1698 20.2152 81.0586 20.4952 81.0586H25.7104C28.063 81.061 30.3856 81.5875 32.5092 82.5999L51.9344 91.9747C53.6751 92.814 55.5765 93.2678 57.5086 93.3049L80.1643 93.8539C82.1395 93.8783 84.0484 94.5694 85.5815 95.815C87.1146 97.0606 88.1818 98.7877 88.61 100.716C88.7643 101.409 88.8351 102.118 88.8212 102.827C88.7925 104.01 88.523 105.174 88.0293 106.248C87.5356 107.323 86.8279 108.285 85.9496 109.077C84.3468 110.526 82.238 111.284 80.0798 111.189Z" fill="white"/>
<path d="M17.5588 125.589H4.89016C3.84644 125.573 2.85076 125.148 2.11661 124.406C1.38246 123.664 0.968282 122.663 0.962891 121.62V81.5024C0.968471 80.4477 1.39137 79.4381 2.13915 78.6943C2.88693 77.9504 3.89877 77.5329 4.9535 77.5329H17.6221C18.6749 77.5329 19.6845 77.9511 20.429 78.6955C21.1734 79.44 21.5916 80.4496 21.5916 81.5024V121.62C21.5917 122.146 21.4869 122.668 21.2835 123.153C21.0801 123.639 20.782 124.08 20.4067 124.449C20.0313 124.819 19.5862 125.11 19.0973 125.305C18.6083 125.501 18.0853 125.598 17.5588 125.589ZM4.89016 79.7077C4.38617 79.7077 3.90282 79.9079 3.54645 80.2643C3.19008 80.6206 2.98987 81.104 2.98987 81.608V121.725C2.98987 122.229 3.19008 122.713 3.54645 123.069C3.90282 123.425 4.38617 123.626 4.89016 123.626H17.5588C18.0627 123.626 18.5461 123.425 18.9025 123.069C19.2588 122.713 19.4591 122.229 19.4591 121.725V81.608C19.4591 81.104 19.2588 80.6206 18.9025 80.2643C18.5461 79.9079 18.0627 79.7077 17.5588 79.7077H4.89016ZM103.008 95.9446C102.813 95.9461 102.622 95.8911 102.457 95.7862C102.292 95.6813 102.161 95.531 102.079 95.3534C100.665 92.5241 97.6243 90.3071 92.7892 88.5757C90.0399 87.5844 87.4231 86.2583 84.998 84.6273C83.5833 83.7616 81.9997 82.7481 79.8672 81.6502C77.6639 80.427 75.1965 79.7571 72.6772 79.6983C70.1578 79.6395 67.6618 80.1934 65.4039 81.3124C62.2815 82.7163 58.9981 83.7304 55.6279 84.3317C53.6854 84.7329 51.2784 85.2608 48.1534 86.0631C46.0863 86.644 44.1937 87.7244 42.6426 89.2091C42.5454 89.314 42.4276 89.3977 42.2965 89.4547C42.1654 89.5118 42.0239 89.5411 41.8809 89.5407C41.7379 89.5403 41.5965 89.5103 41.4657 89.4526C41.3349 89.3948 41.2175 89.3106 41.1209 89.2052C41.0243 89.0998 40.9506 88.9755 40.9044 88.8402C40.8582 88.7049 40.8406 88.5614 40.8526 88.419C40.8647 88.2765 40.9061 88.1381 40.9744 88.0124C41.0426 87.8867 41.1361 87.7766 41.2491 87.6889C43.03 85.9762 45.2056 84.7289 47.5834 84.0572C50.7716 83.2338 53.1787 82.7059 55.1423 82.2836C58.3668 81.7271 61.5091 80.7695 64.4959 79.4332C67.0455 78.1918 69.8545 77.5768 72.6895 77.6392C75.5246 77.7016 78.3038 78.4397 80.7962 79.7921C82.9076 80.9534 84.6179 81.9036 86.0537 82.8748C88.3552 84.4176 90.837 85.6727 93.4437 86.6121C98.8067 88.5335 102.227 91.0883 104.001 94.4455C104.12 94.6926 104.137 94.9762 104.051 95.2363C103.964 95.4964 103.78 95.7125 103.536 95.839C103.37 95.9123 103.19 95.9483 103.008 95.9446ZM75.0531 67.018C74.773 67.0018 74.5098 66.879 74.3174 66.6748C74.125 66.4706 74.018 66.2006 74.0185 65.92C75.359 53.6751 80.8417 42.2552 89.5587 33.5517C89.655 33.4534 89.77 33.3753 89.8969 33.322C90.0238 33.2687 90.16 33.2412 90.2977 33.2412C90.4353 33.2412 90.5716 33.2687 90.6985 33.322C90.8253 33.3753 90.9403 33.4534 91.0367 33.5517C91.1344 33.6462 91.2121 33.7594 91.2651 33.8846C91.3182 34.0097 91.3455 34.1443 91.3455 34.2802C91.3455 34.4161 91.3182 34.5507 91.2651 34.6758C91.2121 34.8009 91.1344 34.9141 91.0367 35.0086C82.691 43.3582 77.4277 54.2942 76.1088 66.0256C76.1091 66.1614 76.0815 66.2959 76.0277 66.4206C75.9739 66.5453 75.8951 66.6577 75.7961 66.7507C75.6972 66.8437 75.5802 66.9154 75.4524 66.9614C75.3245 67.0074 75.1887 67.0266 75.0531 67.018Z" fill="white"/>
<path d="M74.5881 79.8553C74.3243 79.8558 74.0703 79.7556 73.878 79.575C73.6857 79.3945 73.5696 79.1474 73.5535 78.8841C73.3313 75.7349 73.3313 72.574 73.5535 69.4249C73.555 69.2746 73.5886 69.1265 73.6519 68.9903C73.7153 68.854 73.807 68.7329 73.9209 68.635C74.0348 68.5371 74.1683 68.4646 74.3125 68.4224C74.4567 68.3802 74.6082 68.3692 74.757 68.3903C74.893 68.4009 75.0256 68.4384 75.1471 68.5004C75.2686 68.5625 75.3766 68.6481 75.4649 68.7521C75.5532 68.8561 75.6201 68.9765 75.6617 69.1065C75.7032 69.2365 75.7187 69.3734 75.7071 69.5093C75.5061 72.5605 75.5061 75.6217 75.7071 78.6729C75.7157 78.8089 75.6974 78.9451 75.6531 79.074C75.6089 79.2028 75.5397 79.3216 75.4495 79.4236C75.3593 79.5256 75.2498 79.6088 75.1273 79.6684C75.0048 79.728 74.8718 79.7628 74.7359 79.7709L74.5881 79.8553ZM69.0561 80.0454C68.9202 80.0426 68.7862 80.0131 68.6618 79.9586C68.5373 79.904 68.4248 79.8255 68.3307 79.7275C68.2365 79.6294 68.1627 79.5138 68.1132 79.3872C68.0638 79.2606 68.0398 79.1255 68.0426 78.9897C68.1981 73.6273 68.8055 68.2875 69.8585 63.0272C69.9117 62.7472 70.0739 62.4998 70.3095 62.3395C70.5451 62.1791 70.8348 62.1189 71.1148 62.1721C71.3947 62.2253 71.6421 62.3875 71.8025 62.6231C71.9629 62.8587 72.0231 63.1484 71.9699 63.4284C70.9251 68.5755 70.3246 73.803 70.1752 79.053C70.173 79.1937 70.1416 79.3324 70.0829 79.4602C70.0242 79.5881 69.9395 79.7023 69.8342 79.7957C69.729 79.889 69.6054 79.9594 69.4715 80.0024C69.3375 80.0454 69.196 80.06 69.0561 80.0454ZM71.801 60.3246H71.5476C71.4146 60.295 71.289 60.2388 71.1782 60.1596C71.0674 60.0803 70.9738 59.9795 70.9028 59.8632C70.8319 59.7469 70.7851 59.6175 70.7653 59.4828C70.7455 59.348 70.753 59.2106 70.7875 59.0788C71.4721 56.4512 72.3039 53.8641 73.279 51.3299C71.5476 44.2566 65.2978 41.575 61.6872 40.6038C61.4212 40.531 61.195 40.3555 61.0584 40.1159C60.9218 39.8764 60.886 39.5924 60.9588 39.3264C61.0316 39.0604 61.207 38.8342 61.4466 38.6976C61.6862 38.561 61.9702 38.5251 62.2362 38.5979C65.5511 39.4847 73.4479 42.483 75.3693 51.161C75.4425 51.3512 75.4425 51.5619 75.3693 51.7522C74.4215 54.302 73.6179 56.9032 72.9623 59.5433C72.8975 59.7929 72.7436 60.0101 72.5297 60.1541C72.3158 60.298 72.0565 60.3586 71.801 60.3246Z" fill="white"/>
<path d="M76.6795 46.9378C76.49 46.9361 76.3044 46.8845 76.1412 46.7881C75.9781 46.6917 75.8433 46.554 75.7504 46.3888C73.3091 42.0685 69.3751 38.7876 64.6865 37.1619C64.5589 37.1148 64.4418 37.0431 64.342 36.9507C64.2421 36.8584 64.1614 36.7473 64.1046 36.6237C64.0477 36.5002 64.0157 36.3666 64.0105 36.2307C64.0053 36.0948 64.027 35.9592 64.0742 35.8316C64.1737 35.5774 64.3679 35.3715 64.6159 35.2574C64.8639 35.1432 65.1466 35.1296 65.4044 35.2193C69.9534 36.8201 73.8833 39.8118 76.6372 43.7706C79.1305 39.1632 82.2657 34.9333 85.9487 31.2076C86.0416 31.1072 86.1543 31.0271 86.2796 30.9723C86.405 30.9174 86.5403 30.8892 86.6771 30.8892C86.8139 30.8892 86.9493 30.9174 87.0746 30.9723C87.2 31.0271 87.3126 31.1072 87.4056 31.2076C87.5033 31.3021 87.5809 31.4153 87.634 31.5404C87.6871 31.6656 87.7144 31.8001 87.7144 31.9361C87.7144 32.072 87.6871 32.2065 87.634 32.3317C87.5809 32.4568 87.5033 32.57 87.4056 32.6645C83.405 36.6834 80.0631 41.3079 77.5029 46.3677C77.4324 46.53 77.3179 46.6693 77.1724 46.7701C77.0269 46.8708 76.8562 46.9289 76.6795 46.9378Z" fill="white"/>
<path d="M97.8986 37.1199C94.3072 37.1199 90.7965 36.0549 87.8103 34.0597C84.8242 32.0644 82.4968 29.2285 81.1225 25.9105C79.7481 22.5925 79.3885 18.9414 80.0891 15.419C80.7898 11.8967 82.5192 8.66117 85.0587 6.12168C87.5982 3.58219 90.8337 1.85278 94.3561 1.15214C97.8784 0.451495 101.529 0.81109 104.847 2.18545C108.165 3.55981 111.001 5.88721 112.997 8.87333C114.992 11.8595 116.057 15.3702 116.057 18.9616C116.057 23.7775 114.144 28.3961 110.738 31.8014C107.333 35.2068 102.714 37.1199 97.8986 37.1199ZM97.8986 2.93578C94.7206 2.93578 91.614 3.87815 88.9717 5.64373C86.3293 7.4093 84.2698 9.91878 83.0537 12.8548C81.8375 15.7909 81.5193 19.0216 82.1393 22.1385C82.7593 25.2554 84.2896 28.1184 86.5368 30.3656C88.7839 32.6127 91.647 34.1431 94.7639 34.7631C97.8807 35.383 101.111 35.0648 104.048 33.8487C106.984 32.6325 109.493 30.5731 111.259 27.9307C113.024 25.2883 113.967 22.1817 113.967 19.0038C113.955 14.7457 112.259 10.6652 109.248 7.6543C106.237 4.64338 102.157 2.94693 97.8986 2.93578Z" fill="white"/>
<path d="M97.8996 32.9393C95.135 32.9393 92.4326 32.1195 90.134 30.5836C87.8354 29.0477 86.0438 26.8647 84.9859 24.3106C83.9279 21.7565 83.6511 18.9461 84.1905 16.2347C84.7298 13.5233 86.061 11.0327 88.0159 9.07786C89.9707 7.12305 92.4613 5.7918 95.1727 5.25247C97.8841 4.71314 100.695 4.98994 103.249 6.04788C105.803 7.10582 107.986 8.89738 109.522 11.196C111.057 13.4946 111.877 16.1971 111.877 18.9616C111.872 22.667 110.397 26.219 107.777 28.8391C105.157 31.4593 101.605 32.9337 97.8996 32.9393ZM97.8996 7.15867C95.5425 7.15449 93.2372 7.8499 91.2756 9.15681C89.3141 10.4637 87.7845 12.3234 86.8805 14.5002C85.9766 16.6771 85.739 19.0732 86.1978 21.3852C86.6566 23.6972 87.7912 25.821 89.4579 27.4877C91.1246 29.1544 93.2484 30.289 95.5604 30.7478C97.8724 31.2066 100.269 30.969 102.445 30.0651C104.622 29.1612 106.482 27.6315 107.789 25.67C109.096 23.7084 109.791 21.4031 109.787 19.046C109.781 15.895 108.527 12.8747 106.299 10.6466C104.071 8.41846 101.051 7.16425 97.8996 7.15867Z" fill="white"/>
<path d="M102.058 21.6854C102.06 22.1861 101.959 22.6819 101.762 23.1423C101.555 23.5719 101.26 23.9532 100.896 24.2614C100.483 24.5822 100.019 24.832 99.524 25.0004C98.9463 25.2001 98.3405 25.307 97.7293 25.3171L97.5182 27.4285H97.307H96.5047H96.2935C96.2823 27.3942 96.2823 27.3572 96.2935 27.3229C96.2823 27.2999 96.2765 27.2746 96.2765 27.249C96.2765 27.2234 96.2823 27.1982 96.2935 27.1751L96.5047 25.0637L95.639 24.8948L94.9 24.7048L94.351 24.4725C94.236 24.4089 94.1295 24.3309 94.0343 24.2402C93.9562 24.1675 93.9043 24.071 93.8865 23.9658C93.872 23.8113 93.872 23.6557 93.8865 23.5012C93.8461 23.3062 93.8461 23.105 93.8865 22.91C93.9092 22.853 93.9455 22.8023 93.9921 22.7622H94.1399C94.2772 22.778 94.4081 22.8289 94.5199 22.91L95.1534 23.2268L96.1035 23.5435C96.5523 23.6541 97.0139 23.7038 97.4759 23.6913C98.2198 23.7332 98.9581 23.5412 99.5874 23.1423C99.8233 22.9666 100.014 22.7368 100.142 22.4722C100.271 22.2077 100.334 21.9161 100.326 21.6221C100.332 21.2784 100.237 20.9406 100.052 20.6508C99.8693 20.3721 99.6233 20.1406 99.334 19.9752C99.0229 19.7757 98.6899 19.6128 98.3416 19.4895L97.2015 19.0672C96.8056 18.9272 96.4179 18.7651 96.0402 18.5816C95.6819 18.4083 95.3482 18.1882 95.0478 17.9271C94.7876 17.7131 94.5662 17.456 94.3932 17.1669C94.1928 16.7232 94.0988 16.2388 94.1188 15.7523C94.1097 15.3255 94.1887 14.9014 94.351 14.5065C94.4708 14.1292 94.6727 13.7831 94.9422 13.4931C95.2819 13.1845 95.6756 12.9411 96.1035 12.7752C96.6236 12.5754 97.1727 12.4613 97.7293 12.4373L97.9193 10.3259H98.1094H98.8061C98.8757 10.3111 98.9477 10.3111 99.0173 10.3259C99.0173 10.3259 99.0173 10.3259 99.0173 10.4526L98.785 12.564C98.9957 12.5438 99.2078 12.5438 99.4185 12.564L100.01 12.7329C100.192 12.7868 100.368 12.8575 100.538 12.9441C100.654 12.9879 100.761 13.0523 100.854 13.1341V13.2819V13.4297C100.854 13.4297 100.854 13.5564 100.854 13.6409C100.865 13.732 100.865 13.8242 100.854 13.9153C100.865 14.0277 100.865 14.1408 100.854 14.2532C100.866 14.3231 100.866 14.3944 100.854 14.4643V14.591H100.728C100.727 14.5699 100.727 14.5488 100.728 14.5277L100.136 14.2532C99.8613 14.1429 99.5791 14.0512 99.2918 13.9787C98.9466 13.8921 98.5919 13.8496 98.2361 13.852C97.8521 13.8451 97.4689 13.8877 97.0959 13.9787C96.821 14.0462 96.5625 14.1682 96.3358 14.3376C96.1374 14.4823 95.9838 14.6799 95.8924 14.9077C95.8042 15.1366 95.7612 15.3804 95.7657 15.6256C95.7531 15.9767 95.8489 16.3232 96.0402 16.618C96.2312 16.8895 96.4754 17.1194 96.758 17.2936C97.0752 17.4901 97.4157 17.6461 97.7715 17.7581L98.9117 18.1804L100.073 18.6449C100.44 18.8135 100.782 19.0339 101.086 19.2995C101.383 19.5766 101.627 19.9058 101.804 20.2708C101.995 20.7169 102.082 21.2007 102.058 21.6854ZM51.1722 44.3833C47.5886 44.3833 44.0853 43.3217 41.1045 41.3324C38.1237 39.3432 35.799 36.5155 34.4238 33.2063C33.0486 29.8971 32.6845 26.2546 33.3775 22.7387C34.0705 19.2227 35.7896 15.9909 38.3177 13.451C40.8458 10.9111 44.0696 9.17709 47.5823 8.46775C51.095 7.75842 54.7391 8.10557 58.0547 9.46539C61.3703 10.8252 64.2087 13.1368 66.2118 16.1083C68.2148 19.0798 69.2927 22.5781 69.3094 26.1617C69.3177 28.5498 68.8549 30.9161 67.9474 33.1251C67.0399 35.3341 65.7056 37.3424 64.0209 39.035C62.3361 40.7276 60.334 42.0713 58.1292 42.989C55.9245 43.9067 53.5603 44.3806 51.1722 44.3833ZM51.1722 10.1781C47.9906 10.1781 44.8807 11.1227 42.2366 12.892C39.5924 14.6614 37.533 17.1758 36.3194 20.1168C35.1057 23.0578 34.7925 26.2928 35.4194 29.412C36.0462 32.5312 37.585 35.3941 39.8406 37.6378C42.0962 39.8816 44.9671 41.4052 48.0896 42.0156C51.212 42.626 54.4454 42.2957 57.3799 41.0666C60.3144 39.8375 62.818 37.7649 64.5734 35.1115C66.3288 32.458 67.2569 29.3431 67.2402 26.1617C67.2179 21.9148 65.5152 17.8495 62.5042 14.8544C59.4933 11.8593 55.4191 10.178 51.1722 10.1781Z" fill="white"/>
<path d="M51.1743 40.2239C48.4125 40.228 45.7114 39.4139 43.4119 37.8843C41.1123 36.3546 39.3175 34.178 38.2539 31.6292C37.1903 29.0804 36.9056 26.2737 37.4357 23.5632C37.9658 20.8527 39.2871 18.3601 41.2326 16.3998C43.1781 14.4396 45.6608 13.0996 48.3671 12.5491C51.0735 11.9985 53.8824 12.2621 56.4391 13.3065C58.9958 14.3508 61.1859 16.1292 62.7328 18.4172C64.2797 20.7051 65.1142 23.4 65.1309 26.1618C65.1392 28.0019 64.7847 29.8256 64.0876 31.5286C63.3904 33.2316 62.3644 34.7804 61.0681 36.0865C59.7719 37.3925 58.2308 38.4302 56.5331 39.1402C54.8355 39.8501 53.0145 40.2184 51.1743 40.2239ZM51.1743 14.3589C48.8197 14.3589 46.518 15.0583 44.5614 16.3683C42.6047 17.6782 41.0812 19.5398 40.184 21.7169C39.2868 23.8939 39.0564 26.2884 39.5219 28.5966C39.9875 30.9048 41.1281 33.0227 42.799 34.6818C44.47 36.3409 46.596 37.4663 48.9074 37.9154C51.2189 38.3645 53.6117 38.117 55.7823 37.2043C57.9529 36.2916 59.8035 34.7548 61.0995 32.7889C62.3955 30.823 63.0784 28.5164 63.0617 26.1618C63.0339 23.0254 61.7699 20.0267 59.5442 17.8168C57.3185 15.6069 54.3108 14.3643 51.1743 14.3589Z" fill="white"/>
<path d="M55.3318 28.9702C55.3395 29.4669 55.2311 29.9586 55.0151 30.406C54.8206 30.8431 54.5237 31.227 54.1494 31.525C53.7544 31.8615 53.2944 32.1131 52.7981 32.264C52.2178 32.4571 51.6141 32.5707 51.0033 32.6019L50.7711 34.7133C50.7711 34.7133 50.7711 34.7133 50.7711 34.84H50.5811H49.8843C49.8144 34.8522 49.743 34.8522 49.6731 34.84C49.6385 34.8489 49.6022 34.8489 49.5676 34.84C49.5676 34.84 49.5676 34.7344 49.5676 34.6922L49.7998 32.5808L48.7863 32.4963C48.542 32.4444 48.302 32.3738 48.0684 32.2852C47.8774 32.2284 47.6933 32.1505 47.5195 32.0529C47.3983 31.9972 47.2848 31.9263 47.1816 31.8418C47.1186 31.7614 47.0752 31.6674 47.055 31.5673C47.0312 31.4133 47.0312 31.2567 47.055 31.1028C47.0435 30.9763 47.0435 30.8491 47.055 30.7227C47.0431 30.6457 47.0431 30.5674 47.055 30.4904C47.055 30.4904 47.055 30.4904 47.1605 30.3637H47.3294C47.4583 30.3866 47.5808 30.437 47.6884 30.5116C47.8907 30.6339 48.1025 30.7398 48.3218 30.8283C48.6287 30.9668 48.9465 31.0798 49.272 31.1661C49.7227 31.2652 50.1829 31.3148 50.6444 31.3139C51.3912 31.3554 52.1315 31.1556 52.7558 30.7438C52.9902 30.5729 53.1785 30.3464 53.3038 30.0848C53.4291 29.8231 53.4875 29.5345 53.4737 29.2447C53.4892 28.8932 53.3931 28.5459 53.1992 28.2523C53.0162 27.9813 52.7789 27.7513 52.5025 27.5767C52.1816 27.3816 51.8421 27.2189 51.489 27.091L50.3488 26.6899L49.272 26.162C48.9033 25.9869 48.5619 25.7594 48.2585 25.4863C47.9655 25.2108 47.7288 24.8809 47.5617 24.5151C47.2244 23.6676 47.2244 22.7232 47.5617 21.8758C47.7136 21.4893 47.952 21.1426 48.2585 20.8623C48.5826 20.5489 48.9719 20.311 49.3986 20.1655C49.906 19.9721 50.4401 19.8582 50.9822 19.8277L51.1934 17.7163C51.1835 17.6746 51.1835 17.6312 51.1934 17.5896C51.2281 17.5815 51.2642 17.5815 51.2989 17.5896H51.489H52.1646H52.3969C52.4071 17.6383 52.4071 17.6886 52.3969 17.7374L52.1857 19.7221H52.7981L53.4104 19.891C53.5858 19.9447 53.7555 20.0154 53.9171 20.1022L54.2338 20.2922L54.3605 20.44C54.37 20.4959 54.37 20.553 54.3605 20.6089C54.3605 20.6089 54.3605 20.7356 54.3605 20.8201C54.3605 20.9045 54.3605 20.989 54.3605 21.0946C54.3605 21.2001 54.3605 21.3268 54.3605 21.4113C54.3646 21.4816 54.3646 21.5521 54.3605 21.6224C54.375 21.6634 54.375 21.7081 54.3605 21.7491L54.2761 21.9391C54.1556 21.9217 54.0404 21.8785 53.9382 21.8124C53.7417 21.7048 53.537 21.6131 53.3259 21.538C53.0937 21.4324 52.8192 21.3479 52.5025 21.2424C52.1504 21.154 51.7885 21.1114 51.4256 21.1157C51.0417 21.1088 50.6585 21.1514 50.2855 21.2424C50.0089 21.3162 49.7503 21.4455 49.5253 21.6224C49.3386 21.7649 49.1929 21.9543 49.103 22.1714C49.0018 22.397 48.9514 22.642 48.9552 22.8893C48.9466 23.2399 49.0421 23.5853 49.2297 23.8816C49.4124 24.1604 49.6584 24.3919 49.9476 24.5573C50.2639 24.7607 50.6044 24.9239 50.9611 25.0429L52.1224 25.4652C52.5179 25.5981 52.9056 25.7532 53.2837 25.9297C53.6556 26.0899 53.9982 26.3111 54.2972 26.5843C54.5939 26.8613 54.8373 27.1906 55.0151 27.5555C55.2199 27.9993 55.3278 28.4815 55.3318 28.9702ZM80.0778 71.4945C77.7921 71.4533 75.5323 71.0028 73.4057 70.1643C73.1816 70.0636 72.9988 69.8893 72.8874 69.6704C72.776 69.4515 72.7428 69.2011 72.7933 68.9608C72.7933 68.6863 74.5036 61.9508 79.5922 59.3749C84.6807 56.7989 91.0784 59.4804 91.3528 59.6071C91.5778 59.7006 91.7625 59.8704 91.8745 60.0867C91.9865 60.303 92.0186 60.5519 91.9651 60.7895C91.9651 61.0851 90.2549 67.7995 85.1663 70.3754C83.5834 71.1482 81.8389 71.5319 80.0778 71.4945ZM75.0948 68.5596C78.0317 69.6821 81.2793 69.6821 84.2162 68.5596C86.8795 66.8793 88.8216 64.2673 89.6637 61.2329C86.7268 60.1104 83.4792 60.1104 80.5423 61.2329C77.879 62.9132 75.9369 65.5252 75.0948 68.5596ZM69.1828 64.3578C65.9702 64.4865 62.8082 63.5268 60.2092 61.6341C55.4796 57.7913 55.3107 50.4013 55.3107 50.0845C55.3021 49.839 55.3831 49.5988 55.5384 49.4084C55.6938 49.2181 55.913 49.0907 56.1552 49.0499C56.4508 49.0499 63.7353 47.6353 68.4649 51.4781C73.1945 55.3209 73.279 62.732 73.279 63.0487C73.2875 63.2943 73.2066 63.5345 73.0512 63.7248C72.8958 63.9151 72.6766 64.0425 72.4344 64.0833C71.3601 64.2654 70.2724 64.3572 69.1828 64.3578ZM57.4432 50.9502C57.6658 54.3435 59.114 57.5401 61.5183 59.9449C64.3854 61.8205 67.8438 62.5723 71.2309 62.0564C71.0331 58.6385 69.5823 55.4135 67.1558 52.9983C64.2833 51.1373 60.8226 50.4075 57.4432 50.9502Z" fill="white"/>
</svg>
