<svg width="136" height="136" viewBox="0 0 136 136" fill="none" xmlns="http://www.w3.org/2000/svg">
<path d="M13.1493 27.6003L11.7332 35.7152C11.565 36.6774 11.829 37.6579 12.4576 38.4058C13.0862 39.1535 14.0068 39.5825 14.9836 39.5825H34.4926C35.4694 39.5825 36.3903 39.1535 37.0186 38.4058C37.6472 37.6579 37.9112 36.6772 37.743 35.7152L36.3269 27.6001C35.9327 25.3429 34.1333 23.6493 31.9197 23.3409C32.7943 21.9982 33.3049 20.3976 33.3049 18.6792V16.0646C33.3049 11.3408 29.4618 7.49805 24.7384 7.49805C20.0143 7.49805 16.1716 11.3411 16.1716 16.0646V18.6792C16.1716 20.3976 16.6821 21.9982 17.5568 23.3409C15.3429 23.6496 13.5434 25.3431 13.1493 27.6003ZM20.1313 16.0646C20.1313 13.5246 22.1979 11.458 24.7381 11.458C27.278 11.458 29.3446 13.5246 29.3446 16.0646V18.6792C29.3446 21.2192 27.278 23.2858 24.7381 23.2858C22.1979 23.2858 20.1313 21.2192 20.1313 18.6792V16.0646ZM17.0504 28.2812C17.155 27.6814 17.6729 27.2458 18.2817 27.2458H31.1942C31.803 27.2458 32.321 27.6811 32.4255 28.2809L33.707 35.6225H15.7689L17.0504 28.2812ZM109.025 119.436C109.531 119.436 110.038 119.243 110.425 118.857L122.061 107.221C122.834 106.447 122.834 105.194 122.061 104.421C121.288 103.648 120.034 103.647 119.261 104.421L109.025 114.657L103.245 108.876C102.471 108.103 101.218 108.103 100.445 108.876C99.6713 109.65 99.6713 110.903 100.445 111.677L107.625 118.857C108.011 119.243 108.518 119.436 109.025 119.436ZM62.3594 82.6644H73.6309C76.8475 82.6644 79.634 80.4835 80.4075 77.3609L83.0623 66.638C83.3081 65.6462 83.0879 64.6158 82.458 63.8108C81.8281 63.0059 80.8808 62.5444 79.8589 62.5444H76.3778V62.2031C76.3778 57.5807 72.6174 53.8203 67.995 53.8203C63.3726 53.8203 59.6122 57.5807 59.6122 62.2031V62.5444H56.1311C55.1092 62.5444 54.1619 63.0059 53.532 63.8108C52.9021 64.6158 52.682 65.6461 52.9277 66.6377L55.5828 77.3606C56.356 80.4837 59.1428 82.6644 62.3594 82.6644ZM63.5725 62.2033C63.5725 59.7648 65.5567 57.7805 67.9953 57.7805C70.4338 57.7805 72.4181 59.7648 72.4181 62.2033V62.5447H63.5725V62.2033ZM79.0157 66.5047L76.5637 76.4094C76.2289 77.7608 75.023 78.7047 73.6311 78.7047H62.3597C60.9679 78.7047 59.7619 77.7608 59.4274 76.4094L56.9751 66.5047H79.0157Z" fill="white"/>
<path d="M111.257 87.3137C106.383 87.3137 101.679 88.7506 97.6546 91.4696C96.7483 92.0818 96.5102 93.3126 97.1221 94.2186C97.7341 95.1249 98.9654 95.363 99.8711 94.7511C103.238 92.4762 107.176 91.2737 111.257 91.2737C122.487 91.2737 131.624 100.41 131.624 111.64C131.624 122.871 122.488 132.007 111.257 132.007C100.027 132.007 90.8907 122.871 90.8907 111.64C90.8907 107.671 92.0325 103.825 94.1928 100.518C94.7907 99.6021 94.5333 98.3753 93.6178 97.7771C92.7025 97.1796 91.4752 97.4362 90.8772 98.3521C88.6564 101.752 87.3393 105.627 87.0133 109.66H41.0913C33.7117 109.66 27.0853 105.604 23.7074 99.1776C27.1275 97.5751 29.5033 94.1011 29.5033 90.0812C29.5033 86.0383 27.0998 82.5482 23.648 80.9582C27.0108 74.4743 33.698 70.3633 41.0913 70.3633H43.7542C44.7654 82.8545 55.2528 92.7101 68 92.7101C80.7472 92.7101 91.2346 82.8545 92.2458 70.3633H94.9087C104.162 70.3633 112.444 65.0437 116.314 56.7203C116.389 56.7219 116.462 56.7259 116.537 56.7259C122.074 56.7259 126.578 52.2215 126.578 46.6852C126.578 41.1488 122.073 36.6447 116.537 36.6447C116.483 36.6447 116.43 36.6479 116.376 36.6487C114.619 32.8093 111.878 29.522 108.381 27.0876C104.416 24.3273 99.7566 22.8684 94.9085 22.8684H48.9619C48.5878 18.8068 47.21 14.9225 44.9137 11.5233C44.3018 10.6169 43.0705 10.3788 42.1647 10.9908C41.2584 11.603 41.0203 12.8338 41.6322 13.7398C43.9071 17.1071 45.1096 21.0444 45.1096 25.1256C45.1096 36.3559 35.9731 45.4924 24.7428 45.4924C13.5123 45.4929 4.37602 36.3564 4.37602 25.1259C4.37602 13.8956 13.5123 4.75932 24.7426 4.75932C28.688 4.75932 32.5147 5.88844 35.8089 8.025C36.7263 8.62005 37.9529 8.35896 38.5474 7.44103C39.1424 6.52336 38.8813 5.29735 37.9637 4.70229C34.0264 2.14888 29.4547 0.799316 24.7426 0.799316C11.329 0.799316 0.416016 11.7123 0.416016 25.1259C0.416016 38.54 11.329 49.4527 24.7426 49.4527C37.584 49.4527 48.1319 39.4508 49.0089 26.8284H94.9085C102.403 26.8284 109.074 30.9724 112.41 37.5357C108.927 39.1131 106.496 42.6196 106.496 46.6852C106.496 50.7278 108.899 54.2176 112.35 55.8079C108.99 62.2976 102.324 66.403 94.9082 66.403H92.2458C91.2346 53.9119 80.7472 44.0565 68 44.0565C55.2528 44.0565 44.7654 53.9121 43.7542 66.403H41.0913C31.8658 66.403 23.5548 71.7303 19.6841 80.046C19.6101 80.0444 19.537 80.0405 19.4628 80.0405C13.9265 80.0405 9.42237 84.5449 9.42237 90.0809C9.42237 95.6175 13.9267 100.122 19.4628 100.122C19.5597 100.122 19.6555 100.117 19.7516 100.114C23.6477 108.361 31.8811 113.62 41.0915 113.62H87.012C88.0231 126.111 98.5105 135.967 111.258 135.967C124.672 135.967 135.585 125.054 135.585 111.64C135.584 98.2267 124.671 87.3137 111.257 87.3137ZM110.456 46.6854C110.456 43.3326 113.184 40.605 116.537 40.605C119.89 40.605 122.618 43.3326 122.618 46.6854C122.618 50.0382 119.89 52.7661 116.537 52.7661C113.184 52.7661 110.456 50.0382 110.456 46.6854ZM68 48.0168C79.2303 48.0168 88.3668 57.153 88.3668 68.3833C88.3668 79.6136 79.2303 88.7501 68 88.7501C56.7697 88.7501 47.6335 79.6136 47.6335 68.3833C47.6335 57.153 56.7697 48.0168 68 48.0168ZM13.3821 90.0815C13.3821 86.7287 16.1098 84.001 19.4626 84.001C22.8154 84.001 25.5435 86.7284 25.5435 90.0815C25.5435 93.4343 22.8156 96.1622 19.4628 96.1622C16.11 96.1622 13.3821 93.4343 13.3821 90.0815Z" fill="white"/>
</svg>
