<svg width="133" height="123" viewBox="0 0 133 123" fill="none" xmlns="http://www.w3.org/2000/svg">
<path d="M73.8765 68.4565C69.1289 68.4545 64.4644 69.7014 60.3511 72.0721C60.1166 72.2076 59.9111 72.3879 59.7463 72.6028C59.5815 72.8177 59.4606 73.063 59.3906 73.3246C59.3205 73.5862 59.3027 73.8591 59.3381 74.1276C59.3736 74.3961 59.4615 74.655 59.597 74.8895C59.7325 75.124 59.9128 75.3296 60.1277 75.4944C60.3426 75.6592 60.5879 75.7801 60.8495 75.8501C61.1111 75.9201 61.384 75.9379 61.6525 75.9025C61.921 75.8671 62.1799 75.7792 62.4144 75.6437C67.4656 72.7232 73.4388 71.8344 79.1214 73.1576C84.804 74.4808 89.7702 77.9168 93.0117 82.7682C96.2532 87.6196 97.5271 93.5226 96.5748 99.279C95.6225 105.035 92.5154 110.214 87.8842 113.763C83.253 117.312 77.4448 118.965 71.6388 118.388C65.8328 117.81 60.4641 115.045 56.6226 110.654C52.7811 106.262 50.7547 100.573 50.9548 94.7422C51.1549 88.911 53.5664 83.3744 57.6999 79.2565C57.8971 79.0668 58.0546 78.8398 58.1631 78.5887C58.2717 78.3376 58.3291 78.0674 58.3321 77.7938C58.3351 77.5202 58.2836 77.2488 58.1806 76.9954C58.0776 76.7419 57.9252 76.5115 57.7322 76.3176C57.5392 76.1237 57.3095 75.9702 57.0565 75.866C56.8036 75.7618 56.5324 75.709 56.2588 75.7107C55.9853 75.7124 55.7148 75.7686 55.4631 75.876C55.2115 75.9833 54.9838 76.1397 54.7932 76.336C50.3546 80.7528 47.5856 86.5726 46.9584 92.8029C46.3312 99.0332 47.8846 105.288 51.3538 110.501C54.823 115.714 59.9931 119.562 65.9824 121.389C71.9717 123.216 78.4093 122.909 84.1974 120.52C89.9855 118.131 94.7657 113.808 97.7226 108.288C100.68 102.768 101.63 96.3939 100.413 90.2517C99.1949 84.1095 95.8842 78.5799 91.0451 74.6058C86.206 70.6318 80.1382 68.4595 73.8765 68.4593V68.4565Z" fill="white"/>
<path d="M76.1142 103.656H70.9409C70.541 103.657 70.1447 103.579 69.775 103.426C69.4052 103.274 69.0691 103.05 68.7859 102.767C68.5026 102.485 68.2779 102.149 68.1244 101.78C67.9709 101.411 67.8917 101.015 67.8914 100.615C67.8914 100.068 67.6743 99.544 67.2878 99.1576C66.9014 98.7711 66.3773 98.5541 65.8308 98.5541C65.2843 98.5541 64.7602 98.7711 64.3738 99.1576C63.9874 99.544 63.7703 100.068 63.7703 100.615C63.7725 102.514 64.5278 104.334 65.8705 105.677C67.2133 107.02 69.0338 107.775 70.9327 107.777H71.4629V111.728C71.4629 112.274 71.68 112.798 72.0665 113.185C72.4529 113.571 72.977 113.788 73.5235 113.788C74.07 113.788 74.5941 113.571 74.9805 113.185C75.3669 112.798 75.584 112.274 75.584 111.728V107.777H76.1087C78.0083 107.777 79.8301 107.022 81.1733 105.679C82.5165 104.336 83.2711 102.514 83.2711 100.615C83.2711 98.715 82.5165 96.8932 81.1733 95.55C79.8301 94.2068 78.0083 93.4522 76.1087 93.4522H70.9409C70.1498 93.4284 69.399 93.0974 68.8478 92.5294C68.2966 91.9614 67.9883 91.201 67.9883 90.4095C67.9883 89.618 68.2966 88.8576 68.8478 88.2896C69.399 87.7215 70.1498 87.3905 70.9409 87.3668H76.1142C76.9206 87.3675 77.6938 87.6881 78.264 88.2583C78.8342 88.8286 79.1549 89.6017 79.1556 90.4081C79.1556 90.9546 79.3727 91.4787 79.7591 91.8651C80.1455 92.2515 80.6696 92.4686 81.2161 92.4686C81.7626 92.4686 82.2867 92.2515 82.6731 91.8651C83.0595 91.4787 83.2766 90.9546 83.2766 90.4081C83.2745 88.5092 82.5191 86.6887 81.1764 85.3459C79.8337 84.0032 78.0132 83.2479 76.1142 83.2457H75.584V79.2922C75.584 78.7457 75.3669 78.2216 74.9805 77.8352C74.5941 77.4488 74.07 77.2317 73.5235 77.2317C72.977 77.2317 72.4529 77.4488 72.0665 77.8352C71.68 78.2216 71.4629 78.7457 71.4629 79.2922V83.2457H70.9409C69.0653 83.2824 67.2788 84.0533 65.9653 85.3928C64.6519 86.7323 63.9161 88.5335 63.9161 90.4095C63.9161 92.2855 64.6519 94.0867 65.9653 95.4262C67.2788 96.7656 69.0653 97.5365 70.9409 97.5732H76.1142C76.9209 97.5732 77.6944 97.8937 78.2648 98.464C78.8352 99.0344 79.1556 99.808 79.1556 100.615C79.1556 101.421 78.8352 102.195 78.2648 102.765C77.6944 103.336 76.9209 103.656 76.1142 103.656ZM122.886 38.7328C122.365 38.6052 121.815 38.6854 121.353 38.9564C120.891 39.2274 120.552 39.6678 120.409 40.1843C120.266 40.7008 120.33 41.2527 120.587 41.7229C120.844 42.193 121.275 42.5445 121.787 42.7027C127.361 44.2522 128.617 45.9996 128.617 46.4721C128.617 48.192 120.553 52.2251 104.92 52.2251C89.2879 52.2251 81.2216 48.192 81.2216 46.4721C81.2216 44.7523 89.2824 40.7191 104.92 40.7191C108.619 40.7058 112.313 40.9656 115.973 41.4966C116.506 41.56 117.043 41.4133 117.469 41.0874C117.896 40.7616 118.179 40.2824 118.258 39.7515C118.337 39.2206 118.206 38.6798 117.893 38.2439C117.579 37.808 117.109 37.5113 116.58 37.4168C112.719 36.858 108.822 36.5825 104.92 36.5926C91.5215 36.5926 77.1005 39.6834 77.1005 46.4666V62.4975C77.1005 69.2808 91.5215 72.3716 104.92 72.3716C113.926 72.3716 123.377 70.9677 128.617 67.9895V70.5116C128.617 72.2315 120.553 76.2646 104.92 76.2646C103.126 76.2646 101.379 76.2097 99.7004 76.0998C99.1551 76.068 98.619 76.2518 98.2079 76.6115C97.7967 76.9713 97.5434 77.4782 97.5025 78.0229C97.4835 78.2937 97.5183 78.5656 97.6048 78.8229C97.6913 79.0803 97.8279 79.3179 98.0066 79.5222C98.1854 79.7265 98.4028 79.8934 98.6463 80.0133C98.8899 80.1332 99.1548 80.2038 99.4257 80.2208C101.198 80.3362 103.036 80.3967 104.92 80.3967C113.926 80.3967 123.377 78.9928 128.617 76.0009V78.523C128.617 80.2428 120.553 84.2924 104.92 84.2924H104.242C104.126 84.2924 104.061 84.2924 103.692 84.2924C103.152 84.2961 102.633 84.504 102.24 84.8745C101.846 85.245 101.607 85.7506 101.571 86.2898C101.556 86.8364 101.758 87.3669 102.133 87.765C102.507 88.1631 103.025 88.3963 103.571 88.4135C103.846 88.4135 104.019 88.4135 104.135 88.4135H104.409H104.942C113.948 88.4135 123.399 87.0069 128.639 84.0177V86.5398C128.639 88.2597 120.575 92.2928 104.942 92.2928C104.396 92.2928 103.872 92.5099 103.485 92.8963C103.099 93.2827 102.882 93.8068 102.882 94.3533C102.882 94.8998 103.099 95.4239 103.485 95.8103C103.872 96.1968 104.396 96.4139 104.942 96.4139C113.948 96.4139 123.399 95.0072 128.639 92.0318V94.7544C128.639 96.4743 120.575 100.507 104.942 100.507H104.203C103.666 100.531 103.156 100.752 102.772 101.128C102.387 101.504 102.156 102.009 102.121 102.546C102.116 103.092 102.327 103.618 102.71 104.009C103.092 104.399 103.613 104.622 104.159 104.629H104.942C118.308 104.637 132.729 101.546 132.729 94.7627V46.4721C132.729 44.1918 131.02 40.9994 122.886 38.7328ZM104.912 56.3462C113.918 56.3462 123.369 54.9423 128.608 51.9641V54.4862C128.608 56.2061 120.545 60.2557 104.912 60.2557C89.2796 60.2557 81.2134 56.2198 81.2134 54.4862V51.9641C86.4526 54.9423 95.9146 56.3462 104.912 56.3462ZM104.912 68.256C89.2742 68.256 81.2134 64.2229 81.2134 62.503V59.9809C86.4526 62.9591 95.9008 64.3767 104.912 64.3767C113.924 64.3767 123.369 62.9728 128.608 59.9809V62.503C128.608 64.2229 120.545 68.256 104.912 68.256ZM44.264 106.436C43.5386 106.464 42.8078 106.48 42.0661 106.48C20.2244 106.48 4.97653 93.9495 4.97653 76.0091C4.97653 61.3794 14.8671 39.7438 29.6177 30.8561C29.8183 30.7324 29.9859 30.5813 30.1672 30.444H47.0113C47.5578 30.444 48.0819 30.2269 48.4683 29.8404C48.8548 29.454 49.0719 28.9299 49.0719 28.3834C49.0719 27.8369 48.8548 27.3128 48.4683 26.9264C48.0819 26.54 47.5578 26.3229 47.0113 26.3229H32.7662C33.0473 24.7741 32.727 23.1764 31.8706 21.8557C24.906 11.0667 23.5515 6.21213 23.8043 4.95383C23.8308 4.96936 23.8616 4.97609 23.8922 4.97306C26.9864 4.99462 30.0613 5.46284 33.0217 6.36323C35.8859 7.23378 38.8585 7.69622 41.8518 7.73692C45.2358 7.65391 48.5969 7.15753 51.8604 6.25883C54.4467 5.54665 57.1023 5.11557 59.7811 4.97306C59.7069 6.52533 58.1684 11.1107 52.8467 20.1935H37.1208C36.5743 20.1935 36.0502 20.4106 35.6638 20.797C35.2773 21.1834 35.0603 21.7075 35.0603 22.254C35.0603 22.8005 35.2773 23.3246 35.6638 23.711C36.0502 24.0975 36.5743 24.3146 37.1208 24.3146H51.028C50.9264 25.0825 50.9712 25.8628 51.1599 26.6141C51.3806 27.4676 51.7697 28.2684 52.3043 28.9695C52.8388 29.6706 53.508 30.2578 54.2726 30.6967C61.6899 35.5275 67.7049 42.2256 71.713 50.1179C71.8383 50.3626 72.0114 50.5797 72.2219 50.7565C72.4325 50.9333 72.6764 51.0662 72.9391 51.1473C73.2018 51.2284 73.4781 51.2561 73.7517 51.2288C74.0253 51.2014 74.2906 51.1196 74.5321 50.9882C74.7736 50.8567 74.9863 50.6782 75.1578 50.4633C75.3292 50.2483 75.4559 50.0012 75.5304 49.7365C75.6048 49.4719 75.6256 49.195 75.5914 48.9221C75.5572 48.6493 75.4687 48.3861 75.3312 48.148C70.969 39.6032 64.4301 32.3602 56.3744 27.1499C56.079 26.9857 55.8193 26.7643 55.6104 26.4988C55.4014 26.2332 55.2474 25.9288 55.1573 25.6031C55.087 25.3296 55.0729 25.0447 55.1159 24.7656C55.1589 24.4865 55.258 24.2191 55.4073 23.9794C65.7484 6.77534 64.078 3.82191 63.3747 2.54988C63.0614 2.00795 62.6063 1.56171 62.0583 1.25915C61.5103 0.956593 60.8902 0.80918 60.2647 0.832771C57.1059 0.923626 53.9695 1.395 50.9236 2.23668C47.9685 3.06124 44.924 3.52254 41.8573 3.61036C39.2199 3.5635 36.6024 3.14452 34.0822 2.36581C30.7764 1.37863 27.3476 0.864352 23.8977 0.838266C23.1607 0.790531 22.4252 0.952226 21.7762 1.30468C21.1273 1.65713 20.5912 2.18596 20.2299 2.83011C19.5376 4.10214 17.6969 7.48141 28.4144 24.081C28.5755 24.3202 28.6854 24.5901 28.7369 24.8738C28.7885 25.1576 28.7806 25.4489 28.7138 25.7295C28.6286 26.064 28.4766 26.3779 28.267 26.6522C28.0574 26.9265 27.7944 27.1556 27.494 27.3257C11.5702 36.9332 0.855469 60.2557 0.855469 76.0091C0.855469 96.0512 18.1914 110.612 42.0661 110.612C42.8573 110.612 43.643 110.596 44.4233 110.563C44.6939 110.552 44.9597 110.488 45.2057 110.375C45.4516 110.262 45.6728 110.101 45.8566 109.902C46.0404 109.703 46.1832 109.47 46.277 109.216C46.3707 108.962 46.4134 108.692 46.4028 108.421C46.3921 108.151 46.3283 107.885 46.2149 107.639C46.1015 107.393 45.9408 107.172 45.742 106.988C45.5431 106.804 45.31 106.661 45.0559 106.568C44.8018 106.474 44.5318 106.431 44.2612 106.442L44.264 106.436Z" fill="white"/>
</svg>
