<svg width="24" height="24" viewBox="0 0 24 24" fill="none" xmlns="http://www.w3.org/2000/svg">
<path d="M12.2965 23.1369C18.5925 23.1369 23.6965 18.0329 23.6965 11.7369C23.6965 5.44089 18.5925 0.336914 12.2965 0.336914C6.00045 0.336914 0.896484 5.44089 0.896484 11.7369C0.896484 18.0329 6.00045 23.1369 12.2965 23.1369Z" fill="#26A17B"/>
<path d="M13.5085 12.7859V12.7841C13.4297 12.7896 13.0228 12.8134 12.1174 12.8134C11.3935 12.8134 10.8858 12.7933 10.7062 12.7841V12.7859C7.92214 12.6632 5.84558 12.1793 5.84558 11.5983C5.84558 11.0191 7.92399 10.5334 10.7062 10.4107V12.3039C10.8876 12.3167 11.41 12.3479 12.1303 12.3479C12.9953 12.3479 13.4279 12.3112 13.5085 12.3039V10.4125C16.287 10.5371 18.3581 11.0209 18.3581 11.6001C18.3581 12.1793 16.2852 12.6632 13.5085 12.7878V12.7859ZM13.5085 10.2164V8.52286H17.3849V5.94043H6.83164V8.52286H10.708V10.2164C7.55744 10.3612 5.18945 10.9843 5.18945 11.7321C5.18945 12.4798 7.55924 13.103 10.708 13.2496V18.6784H13.5104V13.2496C16.6554 13.1049 19.0198 12.4817 19.0198 11.7339C19.0198 10.988 16.6554 10.363 13.5104 10.2182" fill="white"/>
</svg>
