<svg width="24" height="24" viewBox="0 0 24 24" fill="none" xmlns="http://www.w3.org/2000/svg">
<path d="M12.104 22.7529C18.1902 22.7529 23.124 17.8191 23.124 11.7329C23.124 5.64671 18.1902 0.712891 12.104 0.712891C6.01781 0.712891 1.08398 5.64671 1.08398 11.7329C1.08398 17.8191 6.01781 22.7529 12.104 22.7529Z" fill="#42A5F5"/>
<path d="M12.0973 23.1369C5.81207 23.1369 0.697266 18.0221 0.697266 11.7369C0.697266 5.45171 5.81207 0.336914 12.0973 0.336914C18.3825 0.336914 23.4973 5.45171 23.4973 11.7369C23.4973 18.0221 18.3825 23.1369 12.0973 23.1369ZM12.0973 1.09691C6.23007 1.09691 1.45727 5.86972 1.45727 11.7369C1.45727 17.6041 6.23007 22.3769 12.0973 22.3769C17.9645 22.3769 22.7373 17.6041 22.7373 11.7369C22.7373 5.86972 17.9645 1.09691 12.0973 1.09691Z" fill="#455A64"/>
<path d="M13.018 15.9147H11.1636C10.0008 15.9147 9.05078 14.9647 9.05078 13.8019V13.6347C9.05078 13.4219 9.21798 13.2547 9.43078 13.2547C9.64358 13.2547 9.81078 13.4219 9.81078 13.6347V13.8019C9.81078 14.5467 10.4188 15.1547 11.1636 15.1547H13.018C13.7628 15.1547 14.3708 14.5467 14.3708 13.8019C14.3708 13.2015 13.968 12.6695 13.3904 12.5023L10.586 11.7043C9.68158 11.4383 9.05078 10.6023 9.05078 9.66749C9.05078 8.50469 10.0008 7.55469 11.1636 7.55469H13.018C14.1808 7.55469 15.1308 8.50469 15.1308 9.66749V9.83469C15.1308 10.0475 14.9636 10.2147 14.7508 10.2147C14.538 10.2147 14.3708 10.0475 14.3708 9.83469V9.66749C14.3708 8.92269 13.7628 8.31469 13.018 8.31469H11.1636C10.4188 8.31469 9.81078 8.92269 9.81078 9.66749C9.81078 10.2679 10.2136 10.7999 10.7912 10.9671L13.5956 11.7651C14.5 12.0235 15.1308 12.8595 15.1308 13.7943C15.1308 14.9647 14.1808 15.9147 13.018 15.9147Z" fill="white"/>
<path d="M12.0987 17.4411C11.8859 17.4411 11.7188 17.2739 11.7188 17.0611V15.5411C11.7188 15.3283 11.8859 15.1611 12.0987 15.1611C12.3116 15.1611 12.4787 15.3283 12.4787 15.5411V17.0611C12.4787 17.2739 12.3116 17.4411 12.0987 17.4411Z" fill="white"/>
<path d="M12.0987 8.31223C11.8859 8.31223 11.7188 8.14503 11.7188 7.93223V6.41223C11.7188 6.19943 11.8859 6.03223 12.0987 6.03223C12.3116 6.03223 12.4787 6.19943 12.4787 6.41223V7.93223C12.4787 8.14503 12.3116 8.31223 12.0987 8.31223Z" fill="white"/>
<path d="M9.43633 19.6363C9.39073 19.6363 9.35273 19.6287 9.30713 19.6135C5.97833 18.4355 3.73633 15.2663 3.73633 11.7399C3.73633 8.21354 5.97833 5.04434 9.30713 3.86634C9.50473 3.79794 9.71753 3.89674 9.79353 4.09434C9.86193 4.29194 9.76313 4.51234 9.56553 4.58074C6.53313 5.65234 4.49633 8.53274 4.49633 11.7399C4.49633 14.9471 6.53313 17.8275 9.56553 18.8991C9.76313 18.9675 9.86953 19.1879 9.79353 19.3855C9.74033 19.5375 9.59593 19.6363 9.43633 19.6363Z" fill="white"/>
<path d="M14.7666 19.6364C14.607 19.6364 14.4626 19.5376 14.4094 19.3856C14.341 19.188 14.4398 18.9676 14.6374 18.8992C17.6698 17.8276 19.7066 14.9472 19.7066 11.74C19.7066 8.53284 17.6698 5.65244 14.6374 4.58084C14.4398 4.51244 14.3334 4.29204 14.4094 4.09444C14.4778 3.89684 14.6982 3.79044 14.8958 3.86644C18.2246 5.04444 20.4666 8.21364 20.4666 11.74C20.4666 15.2664 18.2246 18.4356 14.8958 19.6136C14.8502 19.6288 14.8122 19.6364 14.7666 19.6364Z" fill="white"/>
</svg>
