<svg width="19" height="14" viewBox="0 0 19 14" fill="none" xmlns="http://www.w3.org/2000/svg">
<path d="M0.203125 2.2629C0.203125 1.76039 0.402748 1.27845 0.758081 0.92312C1.11341 0.567787 1.59535 0.368164 2.09786 0.368164H15.361C15.8635 0.368164 16.3455 0.567787 16.7008 0.92312C17.0561 1.27845 17.2558 1.76039 17.2558 2.2629V4.15764H13.4663C12.7125 4.15764 11.9896 4.45707 11.4566 4.99007C10.9236 5.52307 10.6242 6.24597 10.6242 6.99974C10.6242 7.75352 10.9236 8.47642 11.4566 9.00942C11.9896 9.54241 12.7125 9.84185 13.4663 9.84185H17.2558V11.7366C17.2558 12.2391 17.0561 12.721 16.7008 13.0764C16.3455 13.4317 15.8635 13.6313 15.361 13.6313H2.09786C1.59535 13.6313 1.11341 13.4317 0.758081 13.0764C0.402748 12.721 0.203125 12.2391 0.203125 11.7366V2.2629Z" fill="white"/>
<path fill-rule="evenodd" clip-rule="evenodd" d="M11.5703 6.99923C11.5703 6.49671 11.7699 6.01478 12.1253 5.65945C12.4806 5.30412 12.9625 5.10449 13.465 5.10449H17.2545C17.5058 5.10449 17.7467 5.2043 17.9244 5.38197C18.1021 5.55964 18.2019 5.8006 18.2019 6.05186V7.9466C18.2019 8.19786 18.1021 8.43882 17.9244 8.61649C17.7467 8.79415 17.5058 8.89397 17.2545 8.89397H13.465C12.9625 8.89397 12.4806 8.69434 12.1253 8.33901C11.7699 7.98368 11.5703 7.50174 11.5703 6.99923ZM14.4124 6.99923C14.4124 7.25049 14.3126 7.49145 14.1349 7.66912C13.9573 7.84679 13.7163 7.9466 13.465 7.9466C13.2138 7.9466 12.9728 7.84679 12.7952 7.66912C12.6175 7.49145 12.5177 7.25049 12.5177 6.99923C12.5177 6.74797 12.6175 6.507 12.7952 6.32934C12.9728 6.15167 13.2138 6.05186 13.465 6.05186C13.7163 6.05186 13.9573 6.15167 14.1349 6.32934C14.3126 6.507 14.4124 6.74797 14.4124 6.99923Z" fill="white"/>
</svg>
