<svg width="13" height="13" viewBox="0 0 13 13" fill="none" xmlns="http://www.w3.org/2000/svg">
<rect x="0.5" y="1.36816" width="12" height="11" rx="5.5" stroke="#757272"/>
<path d="M5.97753 10.8682V5.46951H6.64403V10.8682H5.97753ZM6.31078 4.53641C6.14786 4.53641 6.01086 4.48087 5.89978 4.36979C5.78869 4.25871 5.73315 4.1217 5.73315 3.95878C5.73315 3.78845 5.78869 3.65145 5.89978 3.54777C6.01086 3.43669 6.14786 3.38115 6.31078 3.38115C6.48111 3.38115 6.61811 3.43669 6.72179 3.54777C6.83288 3.65145 6.88842 3.78845 6.88842 3.95878C6.88842 4.1217 6.83288 4.25871 6.72179 4.36979C6.61811 4.48087 6.48111 4.53641 6.31078 4.53641Z" fill="white"/>
</svg>
