<svg width="23" height="22" viewBox="0 0 23 22" fill="none" xmlns="http://www.w3.org/2000/svg">
<path d="M3.03252 12.0995C2.7123 11.2921 2.62377 10.4113 2.77689 9.55624C2.93002 8.7012 3.31874 7.90586 3.89929 7.25972L4.6326 7.99743L5.10338 4.03318L1.156 4.50433L1.9135 5.26513C0.340194 7.0984 0.282996 9.72583 1.84567 11.2951C2.18701 11.6357 2.58971 11.9086 3.03252 12.0995ZM20.3737 3.29988C20.694 4.10734 20.7825 4.98814 20.6294 5.84318C20.4762 6.69822 20.0875 7.49355 19.507 8.13969L18.7737 7.40198L18.3029 11.3662L22.2503 10.8951L21.4928 10.1339C23.0661 8.30065 23.1233 5.67358 21.5606 4.10431C21.2192 3.76371 20.8165 3.49076 20.3737 3.29988ZM15.3697 3.66653C15.3697 2.94136 15.1546 2.23247 14.7517 1.62952C14.3488 1.02656 13.7762 0.55661 13.1062 0.279099C12.4363 0.00158865 11.6991 -0.0710208 10.9878 0.0704529C10.2766 0.211927 9.62327 0.561129 9.1105 1.0739C8.59773 1.58668 8.24852 2.23999 8.10705 2.95122C7.96558 3.66246 8.03819 4.39968 8.3157 5.06965C8.59321 5.73962 9.06316 6.31225 9.66611 6.71513C10.2691 7.11802 10.978 7.33305 11.7031 7.33305C12.6755 7.33305 13.6081 6.94676 14.2958 6.25915C14.9834 5.57155 15.3697 4.63895 15.3697 3.66653ZM10.6032 4.44456V4.39983H11.3365V4.44456C11.3366 4.52991 11.3705 4.61174 11.4309 4.67209C11.4912 4.73244 11.573 4.76639 11.6584 4.76649H11.7479C11.8332 4.76639 11.915 4.73244 11.9754 4.67209C12.0357 4.61174 12.0697 4.52991 12.0698 4.44456V4.3551C12.0697 4.26975 12.0357 4.18793 11.9754 4.12758C11.915 4.06723 11.8332 4.03328 11.7479 4.03318H11.6584C11.3786 4.03289 11.1104 3.92162 10.9126 3.72379C10.7147 3.52596 10.6035 3.25773 10.6032 2.97795V2.88849C10.6039 2.66573 10.6753 2.44896 10.8071 2.26935C10.9389 2.08975 11.1242 1.95657 11.3365 1.889V1.46661H12.0698V1.889C12.282 1.95657 12.4674 2.08975 12.5992 2.26935C12.7309 2.44896 12.8023 2.66573 12.8031 2.88849V2.93322H12.0698V2.88849C12.0697 2.80314 12.0357 2.72132 11.9754 2.66097C11.915 2.60062 11.8332 2.56667 11.7479 2.56657H11.6584C11.573 2.56667 11.4912 2.60062 11.4309 2.66097C11.3705 2.72132 11.3366 2.80314 11.3365 2.88849V2.97795C11.3366 3.0633 11.3705 3.14513 11.4309 3.20548C11.4912 3.26583 11.573 3.29978 11.6584 3.29988H11.7479C12.0276 3.30017 12.2959 3.41144 12.4937 3.60927C12.6915 3.8071 12.8028 4.07533 12.8031 4.3551V4.44456C12.8023 4.66732 12.7309 4.8841 12.5992 5.0637C12.4674 5.24331 12.282 5.37648 12.0698 5.44406V5.86644H11.3365V5.44406C11.1242 5.37648 10.9389 5.24331 10.8071 5.0637C10.6753 4.8841 10.6039 4.66732 10.6032 4.44456ZM12.8031 9.89962C12.8031 9.6079 12.6872 9.32812 12.4809 9.12183C12.2746 8.91555 11.9949 8.79966 11.7031 8.79966C11.4114 8.79966 11.1316 8.91555 10.9253 9.12183C10.7191 9.32812 10.6032 9.6079 10.6032 9.89962C10.6032 10.5072 11.0956 12.4662 11.7031 12.4662C12.3107 12.4662 12.8031 10.5072 12.8031 9.89962ZM19.4028 13.1995C19.4028 13.005 19.3256 12.8185 19.1881 12.681C19.0505 12.5434 18.864 12.4662 18.6695 12.4662H4.73673C4.54224 12.4662 4.35572 12.5434 4.2182 12.681C4.08068 12.8185 4.00342 13.005 4.00342 13.1995C4.00342 13.394 4.08068 13.5805 4.2182 13.718C4.35572 13.8555 4.54224 13.9328 4.73673 13.9328H5.41943L3.67563 17.4332C3.6498 17.4848 3.63648 17.5417 3.63677 17.5993V17.6173C3.65483 18.1884 3.89441 18.7301 4.3048 19.1277C4.71518 19.5253 5.26417 19.7477 5.83558 19.7477C6.40699 19.7477 6.95598 19.5253 7.36637 19.1277C7.77675 18.7301 8.01633 18.1884 8.0344 17.6173V17.6114L8.0366 17.5993C8.03757 17.5419 8.02501 17.485 7.99993 17.4332L6.25393 13.9328H10.9698V19.8322C10.4576 19.9188 9.99252 20.1839 9.65698 20.5805C9.32144 20.9771 9.13708 21.4797 9.13656 21.9992H14.2697C14.2692 21.4797 14.0848 20.9771 13.7493 20.5805C13.4137 20.1839 12.9487 19.9188 12.4364 19.8322V13.9328H17.1523L15.4085 17.4332C15.3827 17.4848 15.3694 17.5417 15.3697 17.5993V17.6173C15.3877 18.1884 15.6273 18.7301 16.0377 19.1277C16.4481 19.5253 16.9971 19.7477 17.5685 19.7477C18.1399 19.7477 18.6889 19.5253 19.0993 19.1277C19.5096 18.7301 19.7492 18.1884 19.7673 17.6173V17.6114L19.7695 17.5993C19.7705 17.5419 19.7579 17.485 19.7328 17.4332L17.9868 13.9328H18.6695C18.864 13.9328 19.0505 13.8555 19.1881 13.718C19.3256 13.5805 19.4028 13.394 19.4028 13.1995ZM7.0767 17.2301H4.59666L5.83668 14.7394L7.0767 17.2301ZM18.8096 17.2301H16.3295L17.5696 14.7394L18.8096 17.2301Z" fill="white"/>
</svg>
