<svg width="18" height="20" viewBox="0 0 18 20" fill="none" xmlns="http://www.w3.org/2000/svg">
<path d="M5.3763 3.57715L5.30469 3.62489" stroke="white" stroke-width="0.888889" stroke-linecap="round" stroke-linejoin="round"/>
<path d="M12.1068 3.62489L12.0352 3.57715" stroke="white" stroke-width="0.888889" stroke-linecap="round" stroke-linejoin="round"/>
<path d="M14.784 5.56445C15.0037 5.83659 15.1237 6.1756 15.1242 6.52529V13.8121C15.1232 14.0598 15.0625 14.3036 14.9472 14.5228C14.8319 14.7421 14.6653 14.9302 14.4618 15.0714L9.58002 18.4552C9.32299 18.6354 9.01668 18.7322 8.70273 18.7322C8.38879 18.7322 8.08247 18.6354 7.82545 18.4552L2.94369 15.0714C2.74013 14.9302 2.57362 14.7421 2.45829 14.5228C2.34297 14.3036 2.28224 14.0598 2.28125 13.8121V6.52529C2.28179 6.1756 2.40181 5.83659 2.62142 5.56445" stroke="white" stroke-width="0.888889" stroke-linecap="round" stroke-linejoin="round"/>
<path d="M12.6777 5.93448L13.0835 6.21497C13.2879 6.35668 13.4549 6.54579 13.5703 6.76612C13.6857 6.98646 13.7459 7.23146 13.746 7.48017V12.8513C13.745 13.099 13.6842 13.3428 13.5689 13.562C13.4536 13.7812 13.2871 13.9694 13.0835 14.1105L11.5438 15.1788L9.89665 16.3425L9.60422 16.5454C9.34623 16.7233 9.04028 16.8185 8.72693 16.8185C8.41359 16.8185 8.10764 16.7233 7.84965 16.5454L7.50948 16.3425L5.80265 15.1489L4.32261 14.1165C4.11904 13.9754 3.95253 13.7872 3.83721 13.568C3.72189 13.3488 3.66115 13.105 3.66017 12.8573V7.48614C3.65923 7.23642 3.71904 6.99022 3.83444 6.76877C3.94985 6.54731 4.11738 6.35725 4.32261 6.21497L4.72843 5.93448M8.2495 3.57715L8.13611 3.62489M9.29985 3.62489L9.18646 3.57715" stroke="white" stroke-width="0.888889" stroke-linecap="round" stroke-linejoin="round"/>
<path d="M15.7483 1.26758H1.65799C1.13063 1.26758 0.703125 1.69509 0.703125 2.22245V2.67004C0.703125 3.1974 1.13063 3.62491 1.65799 3.62491H15.7483C16.2756 3.62491 16.7031 3.1974 16.7031 2.67004V2.22245C16.7031 1.69509 16.2756 1.26758 15.7483 1.26758Z" stroke="white" stroke-width="0.888889" stroke-linecap="round" stroke-linejoin="round"/>
<path d="M14.0295 3.57715H3.37674C2.84938 3.57715 2.42188 4.00466 2.42188 4.53202V4.97961C2.42188 5.50697 2.84938 5.93448 3.37674 5.93448H14.0295C14.5568 5.93448 14.9844 5.50697 14.9844 4.97961V4.53202C14.9844 4.00466 14.5568 3.57715 14.0295 3.57715Z" stroke="white" stroke-width="0.888889" stroke-linecap="round" stroke-linejoin="round"/>
<path d="M7.53495 16.3417L5.82812 15.154L5.86393 5.93359H7.53495V16.3417Z" stroke="white" stroke-width="0.888889" stroke-linecap="round" stroke-linejoin="round"/>
<path d="M11.546 15.1839L9.875 16.3417V5.93359H11.546V15.1839Z" stroke="white" stroke-width="0.888889" stroke-linecap="round" stroke-linejoin="round"/>
</svg>
