<svg width="17" height="13" viewBox="0 0 17 13" fill="none" xmlns="http://www.w3.org/2000/svg">
<path d="M14.7439 2.04089C13.6003 1.12597 12.2279 0.668533 10.7793 0.592285L10.5506 0.821029C11.8467 1.12597 12.9904 1.7359 14.0577 2.57458C12.7616 1.8884 11.313 1.43096 9.78815 1.27846C9.33071 1.20222 8.94947 1.20222 8.49204 1.20222C8.0346 1.20222 7.65336 1.20222 7.19593 1.27846C5.67107 1.43096 4.22247 1.8884 2.92636 2.57458C3.99372 1.7359 5.13739 1.12597 6.4335 0.821029L6.20476 0.592285C4.75615 0.668533 3.38379 1.12597 2.24018 2.04089C0.944062 4.48067 0.257883 7.22539 0.181641 10.0463C1.32526 11.2662 2.92636 12.0286 4.60371 12.0286C4.60371 12.0286 5.13739 11.4187 5.51858 10.885C4.52746 10.6563 3.61254 10.1226 3.00261 9.28393C3.53629 9.58887 4.06997 9.89386 4.60371 10.1225C5.28989 10.4275 5.97607 10.58 6.66225 10.7325C7.27218 10.8087 7.88211 10.885 8.49204 10.885C9.10197 10.885 9.7119 10.8087 10.3218 10.7325C11.008 10.58 11.6942 10.4275 12.3804 10.1225C12.9141 9.89386 13.4478 9.58887 13.9815 9.28393C13.3715 10.1226 12.4566 10.6563 11.4655 10.885C11.8467 11.4187 12.3804 12.0286 12.3804 12.0286C14.0577 12.0286 15.6588 11.2662 16.8024 10.0463C16.7262 7.22539 16.04 4.48067 14.7439 2.04089ZM5.97607 8.67394C5.21364 8.67394 4.52746 7.98776 4.52746 7.14914C4.52746 6.31046 5.21364 5.62428 5.97607 5.62428C6.73849 5.62428 7.42467 6.31046 7.42467 7.14914C7.42467 7.98776 6.73849 8.67394 5.97607 8.67394ZM11.008 8.67394C10.2456 8.67394 9.55941 7.98776 9.55941 7.14914C9.55941 6.31046 10.2456 5.62428 11.008 5.62428C11.7704 5.62428 12.4566 6.31046 12.4566 7.14914C12.4566 7.98776 11.7704 8.67394 11.008 8.67394Z" fill="white"/>
</svg>
