<svg width="18" height="17" viewBox="0 0 18 17" fill="none" xmlns="http://www.w3.org/2000/svg">
<path d="M9.0311 0C4.44859 0 0.720703 3.728 0.720703 8.31034C0.720703 12.8928 4.44859 16.621 9.0311 16.621C13.6133 16.621 17.3415 12.8928 17.3415 8.31034C17.3415 3.728 13.6133 0 9.0311 0ZM11.3799 5.24615C11.3799 5.2855 11.3642 5.32324 11.3364 5.35106C11.3086 5.37889 11.2708 5.39452 11.2315 5.39452L10.2868 5.39512C9.66347 5.39512 9.54952 5.63785 9.54952 6.11591V7.10763H11.1698C11.2123 7.10763 11.253 7.12603 11.281 7.15808C11.3091 7.19012 11.3221 7.23271 11.3169 7.27499L11.0862 9.06036C11.0816 9.09613 11.0641 9.12899 11.037 9.1528C11.0099 9.17662 10.9751 9.18975 10.939 9.18974H9.54952V13.623C9.54952 13.6623 9.53389 13.7 9.50606 13.7279C9.47824 13.7557 9.4405 13.7713 9.40114 13.7713H7.55775C7.5184 13.7713 7.48066 13.7557 7.45284 13.7279C7.42501 13.7 7.40938 13.6623 7.40938 13.623V9.18974H6.01541C5.97606 9.18974 5.93832 9.17411 5.91049 9.14628C5.88267 9.11846 5.86704 9.08072 5.86704 9.04137V7.256C5.86704 7.21665 5.88267 7.17891 5.91049 7.15109C5.93832 7.12326 5.97606 7.10763 6.01541 7.10763H7.40938V5.9392C7.40938 4.39167 8.34591 3.43052 9.85383 3.43052C10.5021 3.43052 11.0749 3.47874 11.2509 3.50203C11.2866 3.50674 11.3193 3.52425 11.343 3.5513C11.3668 3.57835 11.3798 3.61309 11.3799 3.64907V5.24615Z" fill="white"/>
</svg>
