<svg width="17" height="17" viewBox="0 0 17 17" fill="none" xmlns="http://www.w3.org/2000/svg">
<path d="M8.57016 6.24948C8.16254 6.24948 7.76407 6.37036 7.42515 6.59682C7.08622 6.82328 6.82206 7.14516 6.66607 7.52176C6.51008 7.89835 6.46926 8.31275 6.54879 8.71254C6.62831 9.11233 6.8246 9.47956 7.11283 9.76779C7.40106 10.056 7.7683 10.2523 8.16809 10.3318C8.56788 10.4114 8.98227 10.3705 9.35887 10.2146C9.73546 10.0586 10.0573 9.79441 10.2838 9.45548C10.5103 9.11655 10.6311 8.71808 10.6311 8.31046C10.6311 8.03981 10.5778 7.77181 10.4743 7.52176C10.3707 7.27171 10.2189 7.04451 10.0275 6.85313C9.83612 6.66175 9.60892 6.50994 9.35887 6.40636C9.10882 6.30279 8.84081 6.24948 8.57016 6.24948ZM16.8224 4.21343C16.818 3.57167 16.6998 2.93577 16.4734 2.33528C16.3065 1.89588 16.0485 1.49684 15.7161 1.1645C15.3838 0.832162 14.9847 0.574075 14.5453 0.407271C13.9449 0.180782 13.309 0.0626059 12.6672 0.0582338C11.5951 6.09794e-05 11.2794 6.10352e-05 8.57016 6.10352e-05C5.86097 6.10352e-05 5.54518 6.09794e-05 4.47314 0.0582338C3.83137 0.0626059 3.19547 0.180782 2.59499 0.407271C2.15558 0.574075 1.75655 0.832162 1.42421 1.1645C1.09187 1.49684 0.833779 1.89588 0.666975 2.33528C0.440487 2.93577 0.32231 3.57167 0.317938 4.21343C0.259766 5.28548 0.259766 5.60127 0.259766 8.31046C0.259766 11.0197 0.259766 11.3354 0.317938 12.4075C0.326884 13.0515 0.4449 13.6894 0.666975 14.294C0.83304 14.7313 1.09091 15.1281 1.42322 15.4574C1.75414 15.7917 2.15403 16.0498 2.59499 16.2137C3.19547 16.4401 3.83137 16.5583 4.47314 16.5627C5.54518 16.6209 5.86097 16.6209 8.57016 16.6209C11.2794 16.6209 11.5951 16.6209 12.6672 16.5627C13.309 16.5583 13.9449 16.4401 14.5453 16.2137C14.9863 16.0498 15.3862 15.7917 15.7171 15.4574C16.0494 15.1281 16.3073 14.7313 16.4734 14.294C16.6996 13.6905 16.8178 13.0519 16.8224 12.4075C16.8806 11.3354 16.8806 11.0197 16.8806 8.31046C16.8806 5.60127 16.8806 5.28548 16.8224 4.21343ZM14.7115 10.8618C14.6849 11.3746 14.5754 11.8797 14.3874 12.3576C14.2261 12.7563 13.9863 13.1184 13.6822 13.4225C13.3781 13.7266 13.016 13.9664 12.6173 14.1277C12.1349 14.3052 11.627 14.4035 11.1131 14.4186C10.4566 14.4186 10.2821 14.4186 8.57016 14.4186C6.85822 14.4186 6.6837 14.4186 6.02718 14.4186C5.51337 14.4035 5.00541 14.3052 4.523 14.1277C4.11089 13.9746 3.73873 13.7303 3.43434 13.413C3.13322 13.1149 2.90068 12.7548 2.75288 12.3576C2.57467 11.8757 2.47915 11.3672 2.47033 10.8534C2.47033 10.1969 2.47033 10.0224 2.47033 8.31046C2.47033 6.59852 2.47033 6.424 2.47033 5.76748C2.47915 5.25375 2.57467 4.7452 2.75288 4.2633C2.90603 3.85119 3.15035 3.47902 3.46758 3.17463C3.76703 2.87515 4.12681 2.64285 4.523 2.49318C5.00541 2.31568 5.51337 2.21745 6.02718 2.20232C6.6837 2.20232 6.85822 2.20232 8.57016 2.20232C10.2821 2.20232 10.4566 2.20232 11.1131 2.20232C11.627 2.21745 12.1349 2.31568 12.6173 2.49318C13.0294 2.64633 13.4016 2.89065 13.706 3.20788C14.0071 3.50601 14.2396 3.86617 14.3874 4.2633C14.5649 4.74571 14.6632 5.25367 14.6783 5.76748C14.6783 6.424 14.6783 6.59852 14.6783 8.31046C14.6783 10.0224 14.7365 10.1969 14.7115 10.8534V10.8618ZM13.3819 4.67882C13.2829 4.41038 13.1269 4.1666 12.9246 3.9643C12.7223 3.762 12.4786 3.606 12.2101 3.50705C11.8415 3.37929 11.4533 3.3174 11.0633 3.32422C10.4151 3.32422 10.2322 3.32422 8.57016 3.32422C6.90808 3.32422 6.72526 3.32422 6.07704 3.32422C5.68502 3.32805 5.29675 3.4012 4.93021 3.54029C4.66588 3.63474 4.42468 3.78438 4.22265 3.97925C4.02062 4.17412 3.86237 4.40976 3.75844 4.67051C3.63776 5.04062 3.5788 5.42808 3.58392 5.81734C3.58392 6.46555 3.58392 6.64838 3.58392 8.31046C3.58392 9.97254 3.58392 10.1554 3.58392 10.8036C3.59216 11.1952 3.66517 11.5827 3.8 11.9504C3.89894 12.2189 4.05495 12.4626 4.25724 12.6649C4.45954 12.8672 4.70332 13.0232 4.97176 13.1222C5.32634 13.2526 5.69946 13.3255 6.07704 13.3383C6.72526 13.3383 6.90808 13.3383 8.57016 13.3383C10.2322 13.3383 10.4151 13.3383 11.0633 13.3383C11.4553 13.3344 11.8436 13.2613 12.2101 13.1222C12.4786 13.0232 12.7223 12.8672 12.9246 12.6649C13.1269 12.4626 13.2829 12.2189 13.3819 11.9504C13.521 11.5839 13.5941 11.1956 13.598 10.8036C13.598 10.1554 13.598 9.97254 13.598 8.31046C13.598 6.64838 13.598 6.46555 13.598 5.81734C13.5982 5.42492 13.5249 5.03593 13.3819 4.67051V4.67882ZM8.57016 11.485C8.15366 11.485 7.74126 11.4029 7.35656 11.2432C6.97187 11.0836 6.62246 10.8496 6.32834 10.5547C6.03421 10.2598 5.80116 9.9098 5.64253 9.52469C5.4839 9.13958 5.40281 8.72696 5.4039 8.31046C5.4039 7.68224 5.5903 7.06814 5.9395 6.5459C6.28869 6.02367 6.78498 5.61678 7.36555 5.37675C7.94611 5.13672 8.58483 5.07434 9.20086 5.19751C9.8169 5.32068 10.3825 5.62385 10.8262 6.06865C11.2698 6.51346 11.5715 7.07989 11.6931 7.69624C11.8146 8.3126 11.7506 8.95116 11.509 9.53109C11.2675 10.111 10.8593 10.6062 10.3361 10.9541C9.81297 11.3019 9.19839 11.4867 8.57016 11.485ZM11.8943 5.75917C11.7106 5.73972 11.5406 5.65298 11.417 5.51565C11.2935 5.37832 11.2251 5.20012 11.2251 5.01539C11.2251 4.83065 11.2935 4.65246 11.417 4.51513C11.5406 4.3778 11.7106 4.29105 11.8943 4.27161C12.078 4.29105 12.248 4.3778 12.3716 4.51513C12.4952 4.65246 12.5635 4.83065 12.5635 5.01539C12.5635 5.20012 12.4952 5.37832 12.3716 5.51565C12.248 5.65298 12.078 5.73972 11.8943 5.75917Z" fill="white"/>
</svg>
