<svg width="18" height="16" viewBox="0 0 18 16" fill="none" xmlns="http://www.w3.org/2000/svg">
<path d="M16.7635 1.06512C16.4171 0.777859 15.941 0.703939 15.5238 0.872618L1.39655 6.57603C0.775105 6.83182 0.478702 7.54297 0.734488 8.16436C0.866784 8.48574 1.13013 8.73517 1.45815 8.84986L4.50582 9.90938L6.15748 15.3702C6.1608 15.3814 6.171 15.3881 6.17529 15.3988C6.19237 15.4424 6.21735 15.4825 6.24887 15.517C6.26061 15.5309 6.27341 15.544 6.28708 15.556C6.32823 15.5902 6.37602 15.6154 6.42741 15.6302C6.43526 15.6325 6.4405 15.6395 6.44849 15.6413L6.45311 15.6411L6.45542 15.6421C6.48175 15.6479 6.5086 15.6508 6.5355 15.6505C6.57068 15.6493 6.60557 15.6432 6.63907 15.6325C6.64557 15.6307 6.65211 15.6312 6.65846 15.6291C6.71568 15.6089 6.76737 15.5757 6.80948 15.5321C6.81439 15.5272 6.82185 15.5264 6.82656 15.5212L9.2028 12.8993L12.6694 15.5835C12.88 15.7482 13.1397 15.8377 13.407 15.8376C13.9853 15.8375 14.4844 15.4325 14.6036 14.8667L17.1762 2.23706C17.2654 1.80018 17.1067 1.34973 16.7635 1.06512ZM7.01988 10.945L6.46226 13.6549L5.29936 9.8088L11.067 6.80545L7.12691 10.7456C7.07244 10.8001 7.03524 10.8695 7.01988 10.945ZM13.8313 14.708C13.8011 14.8532 13.6975 14.9722 13.558 15.0222C13.4216 15.0747 13.2676 15.0513 13.153 14.9606L9.39688 12.0523C9.23427 11.9264 9.00216 11.9469 8.86404 12.0993L7.21166 13.9224L7.76833 11.2199L13.4363 5.55116C13.5904 5.3974 13.5906 5.14792 13.4369 4.99392C13.3152 4.87202 13.1286 4.84324 12.9759 4.92284L4.80453 9.17802L1.7161 8.10449C1.54776 8.0491 1.43327 7.89284 1.4312 7.71564C1.42306 7.53719 1.5287 7.37313 1.69454 7.30677L15.8195 1.60412C15.967 1.54151 16.1373 1.56774 16.2592 1.67188C16.3804 1.76977 16.4362 1.92767 16.4031 2.07998L13.8313 14.708Z" fill="white"/>
</svg>
