<svg width="22" height="25" viewBox="0 0 22 25" fill="none" xmlns="http://www.w3.org/2000/svg">
<path d="M18.4643 18.4432C19.0045 18.7133 19.4914 19.0447 19.9252 19.4376C20.359 19.8305 20.7273 20.2683 21.0301 20.7512C21.333 21.2341 21.5703 21.7579 21.7422 22.3226C21.9141 22.8874 22 23.4685 22 24.0659H20.4286C20.4286 23.4194 20.3058 22.8096 20.0603 22.2367C19.8147 21.6638 19.4792 21.1645 19.0536 20.7389C18.628 20.3133 18.1246 19.9737 17.5435 19.72C16.9624 19.4662 16.3527 19.3435 15.7143 19.3517C15.0595 19.3517 14.4498 19.4744 13.885 19.72C13.3203 19.9655 12.8211 20.3011 12.3873 20.7267C11.9535 21.1523 11.6138 21.6556 11.3683 22.2367C11.1228 22.8178 11 23.4276 11 24.0659H9.42857C9.42857 23.4685 9.51042 22.8874 9.67411 22.3226C9.8378 21.7579 10.0751 21.2341 10.3862 20.7512C10.6972 20.2683 11.0696 19.8305 11.5033 19.4376C11.9371 19.0447 12.4241 18.7133 12.9643 18.4432C12.3504 18.0012 11.8717 17.4488 11.5279 16.7858C11.1842 16.1229 11.0082 15.4067 11 14.6374C11 13.9908 10.8772 13.3811 10.6317 12.8081C10.3862 12.2352 10.0506 11.736 9.625 11.3104C9.1994 10.8848 8.69606 10.5451 8.11495 10.2914C7.53385 10.0377 6.92411 9.91491 6.28571 9.92309C5.63095 9.92309 5.02121 10.0459 4.45647 10.2914C3.89174 10.5369 3.39249 10.8725 2.95871 11.2981C2.52493 11.7237 2.18527 12.227 1.93973 12.8081C1.6942 13.3892 1.57143 13.999 1.57143 14.6374H0C0 14.0399 0.0818452 13.4588 0.245536 12.8941C0.409226 12.3293 0.646577 11.8055 0.957589 11.3226C1.2686 10.8398 1.641 10.4019 2.07478 10.009C2.50856 9.61617 2.99554 9.2847 3.53571 9.01461C2.92187 8.57265 2.44308 8.02019 2.09933 7.35725C1.75558 6.6943 1.57961 5.97815 1.57143 5.20881C1.57143 4.56223 1.6942 3.95249 1.93973 3.37957C2.18527 2.80665 2.52083 2.3074 2.94643 1.8818C3.37202 1.45621 3.87128 1.11655 4.4442 0.862828C5.01711 0.609108 5.63095 0.48634 6.28571 0.494524C6.93229 0.494524 7.54204 0.617292 8.11495 0.862828C8.68787 1.10836 9.18713 1.44393 9.61272 1.86952C10.0383 2.29512 10.378 2.79847 10.6317 3.37957C10.8854 3.96067 11.0082 4.57042 11 5.20881C11 5.97815 10.8281 6.6943 10.4844 7.35725C10.1406 8.02019 9.65774 8.57265 9.03571 9.01461C9.65774 9.32562 10.2143 9.72667 10.7054 10.2177C11.1964 10.7088 11.5975 11.2654 11.9085 11.8874C12.3504 11.2735 12.9029 10.7947 13.5658 10.451C14.2288 10.1072 14.9449 9.93128 15.7143 9.92309C16.3609 9.92309 16.9706 10.0459 17.5435 10.2914C18.1164 10.5369 18.6157 10.8725 19.0413 11.2981C19.4669 11.7237 19.8065 12.227 20.0603 12.8081C20.314 13.3892 20.4368 13.999 20.4286 14.6374C20.4286 15.4067 20.2567 16.1229 19.9129 16.7858C19.5692 17.4488 19.0863 18.0012 18.4643 18.4432ZM6.28571 8.35167C6.71949 8.35167 7.12463 8.26982 7.50112 8.10613C7.8776 7.94244 8.21317 7.71737 8.50781 7.43091C8.80245 7.14445 9.02753 6.81297 9.18303 6.43649C9.33854 6.06 9.42039 5.65077 9.42857 5.20881C9.42857 4.77503 9.34673 4.3699 9.18303 3.99341C9.01934 3.61692 8.79427 3.28135 8.50781 2.98671C8.22135 2.69207 7.88988 2.46699 7.51339 2.31149C7.1369 2.15598 6.72768 2.07414 6.28571 2.06595C5.85193 2.06595 5.4468 2.1478 5.07031 2.31149C4.69382 2.47518 4.35826 2.70025 4.06362 2.98671C3.76897 3.27317 3.5439 3.60464 3.38839 3.98113C3.23289 4.35762 3.15104 4.76684 3.14286 5.20881C3.14286 5.64259 3.2247 6.04772 3.38839 6.42421C3.55208 6.8007 3.77716 7.13626 4.06362 7.43091C4.35007 7.72555 4.68155 7.95062 5.05804 8.10613C5.43452 8.26164 5.84375 8.34348 6.28571 8.35167ZM15.7143 17.7802C16.1481 17.7802 16.5532 17.6984 16.9297 17.5347C17.3062 17.371 17.6417 17.1459 17.9364 16.8595C18.231 16.573 18.4561 16.2415 18.6116 15.8651C18.7671 15.4886 18.849 15.0793 18.8571 14.6374C18.8571 14.2036 18.7753 13.7985 18.6116 13.422C18.4479 13.0455 18.2228 12.7099 17.9364 12.4153C17.6499 12.1206 17.3185 11.8956 16.942 11.7401C16.5655 11.5846 16.1562 11.5027 15.7143 11.4945C15.2805 11.4945 14.8754 11.5764 14.4989 11.7401C14.1224 11.9037 13.7868 12.1288 13.4922 12.4153C13.1975 12.7017 12.9725 13.0332 12.817 13.4097C12.6615 13.7862 12.5796 14.1954 12.5714 14.6374C12.5714 15.0712 12.6533 15.4763 12.817 15.8528C12.9807 16.2293 13.2057 16.5648 13.4922 16.8595C13.7786 17.1541 14.1101 17.3792 14.4866 17.5347C14.8631 17.6902 15.2723 17.7721 15.7143 17.7802ZM17.2857 3.63738H12.5714V2.06595H18.8571V8.35167H17.2857V3.63738Z" fill="white"/>
</svg>
