<svg width="18" height="19" viewBox="0 0 18 19" fill="none" xmlns="http://www.w3.org/2000/svg">
<path d="M1 10.2803H7C7.26522 10.2803 7.51957 10.1749 7.70711 9.98738C7.89464 9.79984 8 9.54549 8 9.28027V1.28027C8 1.01506 7.89464 0.760703 7.70711 0.573167C7.51957 0.38563 7.26522 0.280273 7 0.280273H1C0.734784 0.280273 0.48043 0.38563 0.292893 0.573167C0.105357 0.760703 0 1.01506 0 1.28027V9.28027C0 9.54549 0.105357 9.79984 0.292893 9.98738C0.48043 10.1749 0.734784 10.2803 1 10.2803ZM0 17.2803C0 17.5455 0.105357 17.7998 0.292893 17.9874C0.48043 18.1749 0.734784 18.2803 1 18.2803H7C7.26522 18.2803 7.51957 18.1749 7.70711 17.9874C7.89464 17.7998 8 17.5455 8 17.2803V13.2803C8 13.0151 7.89464 12.7607 7.70711 12.5732C7.51957 12.3856 7.26522 12.2803 7 12.2803H1C0.734784 12.2803 0.48043 12.3856 0.292893 12.5732C0.105357 12.7607 0 13.0151 0 13.2803V17.2803ZM10 17.2803C10 17.5455 10.1054 17.7998 10.2929 17.9874C10.4804 18.1749 10.7348 18.2803 11 18.2803H17C17.2652 18.2803 17.5196 18.1749 17.7071 17.9874C17.8946 17.7998 18 17.5455 18 17.2803V10.2803C18 10.0151 17.8946 9.7607 17.7071 9.57317C17.5196 9.38563 17.2652 9.28027 17 9.28027H11C10.7348 9.28027 10.4804 9.38563 10.2929 9.57317C10.1054 9.7607 10 10.0151 10 10.2803V17.2803ZM11 7.28027H17C17.2652 7.28027 17.5196 7.17492 17.7071 6.98738C17.8946 6.79984 18 6.54549 18 6.28027V1.28027C18 1.01506 17.8946 0.760703 17.7071 0.573167C17.5196 0.38563 17.2652 0.280273 17 0.280273H11C10.7348 0.280273 10.4804 0.38563 10.2929 0.573167C10.1054 0.760703 10 1.01506 10 1.28027V6.28027C10 6.54549 10.1054 6.79984 10.2929 6.98738C10.4804 7.17492 10.7348 7.28027 11 7.28027Z" fill="#E00E5D"/>
</svg>
