<svg width="18" height="24" viewBox="0 0 18 24" fill="none" xmlns="http://www.w3.org/2000/svg">
<path d="M0 12C0 12.2984 0.118527 12.5845 0.329505 12.7955C0.540484 13.0065 0.826631 13.125 1.125 13.125H9.66375L7.07625 15.7012C6.97081 15.8058 6.88711 15.9303 6.83 16.0673C6.77288 16.2044 6.74348 16.3515 6.74348 16.5C6.74348 16.6485 6.77288 16.7956 6.83 16.9326C6.88711 17.0697 6.97081 17.1942 7.07625 17.2987C7.18083 17.4042 7.30526 17.4879 7.44235 17.545C7.57944 17.6021 7.72649 17.6315 7.875 17.6315C8.02351 17.6315 8.17056 17.6021 8.30765 17.545C8.44474 17.4879 8.56917 17.4042 8.67375 17.2987L13.1737 12.7987C13.2762 12.6918 13.3565 12.5656 13.41 12.4275C13.5225 12.1536 13.5225 11.8464 13.41 11.5725C13.3565 11.4344 13.2762 11.3082 13.1737 11.2012L8.67375 6.70125C8.56886 6.59636 8.44433 6.51315 8.30728 6.45638C8.17023 6.39961 8.02334 6.3704 7.875 6.3704C7.72666 6.3704 7.57977 6.39961 7.44272 6.45638C7.30567 6.51315 7.18114 6.59636 7.07625 6.70125C6.97136 6.80614 6.88815 6.93067 6.83138 7.06772C6.77461 7.20477 6.7454 7.35166 6.7454 7.5C6.7454 7.64834 6.77461 7.79523 6.83138 7.93228C6.88815 8.06933 6.97136 8.19386 7.07625 8.29875L9.66375 10.875H1.125C0.826631 10.875 0.540484 10.9935 0.329505 11.2045C0.118527 11.4155 0 11.7016 0 12ZM14.625 0.75H3.375C2.47989 0.75 1.62145 1.10558 0.988515 1.73851C0.355579 2.37145 0 3.22989 0 4.125V7.5C0 7.79837 0.118527 8.08452 0.329505 8.29549C0.540484 8.50647 0.826631 8.625 1.125 8.625C1.42337 8.625 1.70952 8.50647 1.92049 8.29549C2.13147 8.08452 2.25 7.79837 2.25 7.5V4.125C2.25 3.82663 2.36853 3.54048 2.5795 3.3295C2.79048 3.11853 3.07663 3 3.375 3H14.625C14.9234 3 15.2095 3.11853 15.4205 3.3295C15.6315 3.54048 15.75 3.82663 15.75 4.125V19.875C15.75 20.1734 15.6315 20.4595 15.4205 20.6705C15.2095 20.8815 14.9234 21 14.625 21H3.375C3.07663 21 2.79048 20.8815 2.5795 20.6705C2.36853 20.4595 2.25 20.1734 2.25 19.875V16.5C2.25 16.2016 2.13147 15.9155 1.92049 15.7045C1.70952 15.4935 1.42337 15.375 1.125 15.375C0.826631 15.375 0.540484 15.4935 0.329505 15.7045C0.118527 15.9155 0 16.2016 0 16.5V19.875C0 20.7701 0.355579 21.6285 0.988515 22.2615C1.62145 22.8944 2.47989 23.25 3.375 23.25H14.625C15.5201 23.25 16.3786 22.8944 17.0115 22.2615C17.6444 21.6285 18 20.7701 18 19.875V4.125C18 3.22989 17.6444 2.37145 17.0115 1.73851C16.3786 1.10558 15.5201 0.75 14.625 0.75Z" fill="white"/>
</svg>
