<svg width="22" height="20" viewBox="0 0 22 20" fill="none" xmlns="http://www.w3.org/2000/svg">
<path d="M1.53 0.4375C0.682388 0.4375 0 1.10771 0 1.94015V13.21C0 14.0425 0.682388 14.7127 1.53 14.7127H2.295V19.2206C2.29478 19.2864 2.31389 19.3507 2.35005 19.406C2.38621 19.4613 2.43786 19.5051 2.49879 19.5323C2.55972 19.5594 2.62734 19.5687 2.6935 19.5589C2.75967 19.5492 2.82156 19.5209 2.87174 19.4774L8.415 14.7127H19.89C20.7376 14.7127 21.42 14.0425 21.42 13.21V1.94015C21.42 1.10768 20.7376 0.4375 19.89 0.4375H1.53ZM10.713 2.69295C12.6032 2.69295 14.1525 4.21893 14.1525 6.07538C14.1525 7.50532 13.107 8.49827 11.8545 8.96622V9.08215C11.8522 9.69719 11.3392 10.1997 10.713 10.2018C10.7109 10.2018 10.7089 10.2018 10.7069 10.2018C10.0806 10.1995 9.569 9.69719 9.56684 9.08215V8.32789C9.56683 8.32589 9.56683 8.32388 9.56684 8.32188C9.56914 7.7069 10.0807 7.20442 10.7069 7.20223C10.7089 7.20221 10.7109 7.20221 10.713 7.20223C11.3651 7.20223 11.859 6.71572 11.859 6.07524C11.859 5.43478 11.3651 4.94385 10.713 4.94385C10.0625 4.94385 9.56342 5.43124 9.56101 6.06937C9.5633 6.68756 9.05042 7.2001 8.42098 7.20223C7.78988 7.20448 7.26906 6.69451 7.26899 6.07524C7.26899 4.21879 8.82273 2.69295 10.713 2.69295ZM10.713 3.44134C9.24138 3.44134 8.03101 4.63008 8.03101 6.07538C8.03024 6.28866 8.19792 6.45334 8.415 6.45251C8.63088 6.45177 8.79984 6.2875 8.79899 6.07538C8.79899 5.03825 9.65701 4.1956 10.713 4.1956C11.769 4.1956 12.6225 5.03825 12.6225 6.07538C12.6225 7.11251 11.769 7.95076 10.713 7.95076C10.4983 7.95151 10.3298 8.11719 10.329 8.32789V9.08215C10.3321 9.28777 10.4985 9.44186 10.707 9.44754C10.9194 9.44454 11.0903 9.28556 11.091 9.07628V8.77105C11.0907 8.69015 11.117 8.6113 11.166 8.54626C11.215 8.48122 11.2841 8.43346 11.3629 8.41007C12.511 8.07893 13.3905 7.24926 13.3905 6.07538C13.3905 4.63008 12.1846 3.44134 10.713 3.44134ZM10.713 10.2077C11.3422 10.2077 11.859 10.7152 11.859 11.3332C11.859 11.9512 11.3422 12.4602 10.713 12.4602C10.0838 12.4602 9.56101 11.9512 9.56101 11.3332C9.56101 10.7152 10.0838 10.2077 10.713 10.2077ZM10.713 10.9561C10.4972 10.9561 10.329 11.1213 10.329 11.3332C10.329 11.5451 10.4972 11.7103 10.713 11.7103C10.9288 11.7103 11.091 11.545 11.091 11.3332C11.091 11.1213 10.9288 10.9561 10.713 10.9561Z" fill="white"/>
</svg>
