<svg width="18" height="22" viewBox="0 0 18 22" fill="none" xmlns="http://www.w3.org/2000/svg">
<path d="M17.25 4.35777V3.03027C17.2483 2.43407 17.0106 1.86279 16.5891 1.44121C16.1675 1.01963 15.5962 0.782015 15 0.780273H2.25C1.6538 0.782015 1.08251 1.01963 0.660933 1.44121C0.239353 1.86279 0.00174121 2.43407 0 3.03027V19.5303C0.00174121 20.1265 0.239353 20.6978 0.660933 21.1193C1.08251 21.5409 1.6538 21.7785 2.25 21.7803H15.75C16.3462 21.7785 16.9175 21.5409 17.3391 21.1193C17.7606 20.6978 17.9983 20.1265 18 19.5303V6.03027C17.9998 5.71441 17.9328 5.40215 17.8036 5.11393C17.6744 4.82572 17.4857 4.56804 17.25 4.35777ZM2.25 2.28027H15C15.1987 2.28087 15.3892 2.36008 15.5297 2.5006C15.6702 2.64112 15.7494 2.83154 15.75 3.03027V3.78027H2.25C2.05109 3.78027 1.86032 3.70126 1.71967 3.5606C1.57902 3.41995 1.5 3.22919 1.5 3.03027C1.5 2.83136 1.57902 2.6406 1.71967 2.49994C1.86032 2.35929 2.05109 2.28027 2.25 2.28027ZM16.5 19.5303C16.4994 19.729 16.4202 19.9194 16.2797 20.0599C16.1392 20.2005 15.9487 20.2797 15.75 20.2803H4.5V5.28027H10.5V9.78027C10.4994 9.90848 10.5319 10.0347 10.5942 10.1467C10.6566 10.2587 10.7467 10.3528 10.856 10.4199C10.9653 10.487 11.09 10.5248 11.2181 10.5296C11.3462 10.5345 11.4734 10.5063 11.5875 10.4478L12.75 9.87027L13.9125 10.4478C14.0173 10.5005 14.1327 10.5288 14.25 10.5303C14.3903 10.5302 14.5279 10.4912 14.6475 10.4178C14.7556 10.3503 14.8448 10.2563 14.9065 10.1448C14.9681 10.0332 15.0003 9.90775 15 9.78027V5.28027H15.75C15.9487 5.28087 16.1392 5.36007 16.2797 5.5006C16.4202 5.64112 16.4994 5.83154 16.5 6.03027V19.5303Z" fill="white"/>
<path d="M14.25 16.5303H6.75V18.0303H14.25V16.5303Z" fill="white"/>
<path d="M14.25 13.5303H6.75V15.0303H14.25V13.5303Z" fill="white"/>
</svg>
