<svg width="18" height="22" viewBox="0 0 18 22" fill="none" xmlns="http://www.w3.org/2000/svg">
<path d="M16.8261 0.714844H1.17391C0.862677 0.715186 0.564286 0.838975 0.344209 1.05905C0.124131 1.27913 0.000341796 1.57752 0 1.88876V3.45397C0.000341796 3.76521 0.124131 4.0636 0.344209 4.28368C0.564286 4.50376 0.862677 4.62755 1.17391 4.62789H3.13043V21.454C3.13073 21.5577 3.17206 21.657 3.24538 21.7303C3.3187 21.8037 3.41805 21.845 3.52174 21.8453H14.4783C14.5819 21.845 14.6813 21.8037 14.7546 21.7303C14.8279 21.657 14.8693 21.5577 14.8696 21.454V4.62789H16.8261C17.1373 4.62755 17.4357 4.50376 17.6558 4.28368C17.8759 4.0636 17.9997 3.76521 18 3.45397V1.88876C17.9997 1.57752 17.8759 1.27913 17.6558 1.05905C17.4357 0.838975 17.1373 0.715186 16.8261 0.714844ZM3.91304 21.0627V19.5366C3.96085 19.5446 4.00795 19.5564 4.05391 19.5718C4.09696 19.5835 4.14391 19.5992 4.18304 19.6109C4.27578 19.645 4.36601 19.6855 4.45304 19.7322C4.50739 19.7598 4.5597 19.7911 4.60957 19.8261C4.66435 19.8653 4.71522 19.9044 4.76609 19.9435C4.86491 20.0215 4.95422 20.1108 5.03217 20.2096C5.0713 20.2605 5.11043 20.3114 5.14957 20.3661C5.18457 20.416 5.21595 20.4683 5.24348 20.5227C5.29021 20.6097 5.33074 20.6999 5.36478 20.7927C5.37652 20.8318 5.39217 20.8788 5.40391 20.9218C5.41932 20.9678 5.43109 21.0149 5.43913 21.0627H3.91304ZM5.08696 11.2801C5.08696 10.5061 5.31645 9.74959 5.74642 9.10609C6.17639 8.46259 6.78753 7.96105 7.50254 7.66488C8.21756 7.36871 9.00434 7.29122 9.7634 7.44221C10.5225 7.59319 11.2197 7.96587 11.7669 8.51312C12.3142 9.06037 12.6869 9.75761 12.8379 10.5167C12.9888 11.2757 12.9114 12.0625 12.6152 12.7775C12.319 13.4925 11.8175 14.1037 11.174 14.5336C10.5305 14.9636 9.77393 15.1931 9 15.1931C7.96272 15.1914 6.96841 14.7786 6.23495 14.0451C5.50148 13.3116 5.08866 12.3173 5.08696 11.2801ZM14.087 21.0627H12.5609C12.5689 21.0149 12.5807 20.9678 12.5961 20.9218C12.6078 20.8788 12.6235 20.8318 12.6352 20.7927C12.6693 20.6999 12.7098 20.6097 12.7565 20.5227C12.784 20.4683 12.8154 20.416 12.8504 20.3661C12.8896 20.3114 12.9287 20.2605 12.9678 20.2096C13.0458 20.1108 13.1351 20.0215 13.2339 19.9435C13.2848 19.9044 13.3357 19.8653 13.3904 19.8261C13.4403 19.7911 13.4926 19.7598 13.547 19.7322C13.634 19.6855 13.7242 19.645 13.817 19.6109C13.8561 19.5992 13.903 19.5835 13.9461 19.5718C13.9921 19.5564 14.0392 19.5446 14.087 19.5366V21.0627ZM17.2174 3.45397C17.2173 3.55771 17.176 3.65716 17.1026 3.73052C17.0293 3.80387 16.9298 3.84514 16.8261 3.84528H14.8696V3.06267H16.0435C16.1473 3.06267 16.2468 3.02144 16.3202 2.94806C16.3936 2.87468 16.4348 2.77515 16.4348 2.67137C16.4348 2.56759 16.3936 2.46806 16.3202 2.39467C16.2468 2.32129 16.1473 2.28006 16.0435 2.28006H1.95652C1.85274 2.28006 1.75321 2.32129 1.67983 2.39467C1.60644 2.46806 1.56522 2.56759 1.56522 2.67137C1.56522 2.77515 1.60644 2.87468 1.67983 2.94806C1.75321 3.02144 1.85274 3.06267 1.95652 3.06267H3.13043V3.84528H1.17391C1.07017 3.84514 0.970722 3.80387 0.897368 3.73052C0.824013 3.65716 0.782743 3.55771 0.782609 3.45397V1.88876C0.782743 1.78502 0.824013 1.68557 0.897368 1.61221C0.970722 1.53886 1.07017 1.49759 1.17391 1.49745H16.8261C16.9298 1.49759 17.0293 1.53886 17.1026 1.61221C17.176 1.68557 17.2173 1.78502 17.2174 1.88876V3.45397Z" fill="white"/>
<path d="M9.00153 8.14844C8.38239 8.14844 7.77715 8.33203 7.26235 8.67601C6.74756 9.01999 6.34632 9.50889 6.10939 10.0809C5.87245 10.6529 5.81046 11.2823 5.93125 11.8896C6.05203 12.4968 6.35018 13.0546 6.78798 13.4924C7.22578 13.9302 7.78357 14.2284 8.39081 14.3492C8.99806 14.4699 9.62748 14.408 10.1995 14.171C10.7715 13.9341 11.2604 13.5328 11.6044 13.018C11.9484 12.5033 12.132 11.898 12.132 11.2789C12.1309 10.449 11.8007 9.65337 11.2139 9.06653C10.627 8.4797 9.83144 8.14953 9.00153 8.14844ZM11.3494 11.6702H10.9581V12.0615C10.9581 12.1653 10.9168 12.2648 10.8434 12.3382C10.7701 12.4116 10.6705 12.4528 10.5667 12.4528C10.463 12.4528 10.3634 12.4116 10.2901 12.3382C10.2167 12.2648 10.1754 12.1653 10.1754 12.0615V11.2789C10.1754 11.1751 10.1342 11.0756 10.0608 11.0022C9.98745 10.9288 9.88792 10.8876 9.78414 10.8876C9.68036 10.8876 9.58083 10.9288 9.50744 11.0022C9.43406 11.0756 9.39283 11.1751 9.39283 11.2789C9.39327 11.5556 9.29577 11.8236 9.11759 12.0353C8.93941 12.2471 8.69205 12.3889 8.41931 12.4358C8.14656 12.4827 7.86604 12.4315 7.6274 12.2914C7.38876 12.1512 7.2074 11.9312 7.11544 11.6702H6.6537C6.54992 11.6702 6.45039 11.629 6.37701 11.5556C6.30363 11.4822 6.2624 11.3827 6.2624 11.2789C6.2624 11.1751 6.30363 11.0756 6.37701 11.0022C6.45039 10.9288 6.54992 10.8876 6.6537 10.8876H7.04501V10.4963C7.04501 10.3925 7.08623 10.293 7.15962 10.2196C7.233 10.1462 7.33253 10.105 7.43631 10.105C7.54009 10.105 7.63962 10.1462 7.71301 10.2196C7.78639 10.293 7.82762 10.3925 7.82762 10.4963V11.2789C7.82762 11.3827 7.86884 11.4822 7.94223 11.5556C8.01561 11.629 8.11514 11.6702 8.21892 11.6702C8.3227 11.6702 8.42223 11.629 8.49562 11.5556C8.569 11.4822 8.61023 11.3827 8.61023 11.2789C8.60979 11.0021 8.70729 10.7342 8.88547 10.5224C9.06365 10.3107 9.31101 10.1688 9.58375 10.1219C9.8565 10.0751 10.137 10.1262 10.3757 10.2664C10.6143 10.4065 10.7957 10.6266 10.8876 10.8876H11.3494C11.4531 10.8876 11.5527 10.9288 11.6261 11.0022C11.6994 11.0756 11.7407 11.1751 11.7407 11.2789C11.7407 11.3827 11.6994 11.4822 11.6261 11.5556C11.5527 11.629 11.4531 11.6702 11.3494 11.6702Z" fill="white"/>
</svg>
