<svg width="362" height="362" viewBox="0 0 362 362" fill="none" xmlns="http://www.w3.org/2000/svg">
<path d="M0 180.88L90.44 24.2331L271.32 24.2331L361.76 180.88L271.32 337.526L90.44 337.526L0 180.88Z" fill="#0072D8"/>
<path d="M74.4979 181V176.174L69.8809 167.7H72.1989L75.3909 173.723H75.6759L78.8679 167.7H81.1859L76.5689 176.174V181H74.4979ZM85.5801 181.266C84.6427 181.266 83.8067 181.076 83.0721 180.696C82.3501 180.303 81.7801 179.746 81.3621 179.024C80.9441 178.302 80.7351 177.447 80.7351 176.459V176.174C80.7351 175.186 80.9441 174.337 81.3621 173.628C81.7801 172.906 82.3501 172.349 83.0721 171.956C83.8067 171.563 84.6427 171.367 85.5801 171.367C86.5174 171.367 87.3534 171.563 88.0881 171.956C88.8227 172.349 89.3991 172.906 89.8171 173.628C90.2351 174.337 90.4441 175.186 90.4441 176.174V176.459C90.4441 177.447 90.2351 178.302 89.8171 179.024C89.3991 179.746 88.8227 180.303 88.0881 180.696C87.3534 181.076 86.5174 181.266 85.5801 181.266ZM85.5801 179.518C86.4414 179.518 87.1381 179.246 87.6701 178.701C88.2147 178.144 88.4871 177.377 88.4871 176.402V176.231C88.4871 175.256 88.2211 174.496 87.6891 173.951C87.1571 173.394 86.4541 173.115 85.5801 173.115C84.7314 173.115 84.0347 173.394 83.4901 173.951C82.9581 174.496 82.6921 175.256 82.6921 176.231V176.402C82.6921 177.377 82.9581 178.144 83.4901 178.701C84.0347 179.246 84.7314 179.518 85.5801 179.518ZM96.4715 181.171C95.7622 181.171 95.1289 181.013 94.5715 180.696C94.0142 180.379 93.5772 179.93 93.2605 179.347C92.9439 178.764 92.7855 178.068 92.7855 177.257V171.633H94.7425V177.124C94.7425 177.935 94.9452 178.536 95.3505 178.929C95.7559 179.309 96.3195 179.499 97.0415 179.499C97.8395 179.499 98.4792 179.233 98.9605 178.701C99.4545 178.156 99.7015 177.377 99.7015 176.364V171.633H101.659V181H99.7395V179.594H99.4355C99.2582 179.974 98.9415 180.335 98.4855 180.677C98.0295 181.006 97.3582 181.171 96.4715 181.171ZM110.42 181L108.824 171.633H110.781L111.959 179.689H112.263L113.897 171.633H117.07L118.685 179.689H118.989L120.167 171.633H122.124L120.528 181H117.241L115.626 172.963H115.322L113.707 181H110.42ZM124.442 181V171.633H126.399V181H124.442ZM125.43 170.36C125.05 170.36 124.727 170.24 124.461 169.999C124.208 169.746 124.081 169.423 124.081 169.03C124.081 168.637 124.208 168.321 124.461 168.08C124.727 167.827 125.05 167.7 125.43 167.7C125.823 167.7 126.146 167.827 126.399 168.08C126.652 168.321 126.779 168.637 126.779 169.03C126.779 169.423 126.652 169.746 126.399 169.999C126.146 170.24 125.823 170.36 125.43 170.36ZM129.303 181V167.7H131.26V181H129.303ZM134.165 181V167.7H136.122V181H134.165ZM143.413 176.364V176.079C143.413 175.091 143.609 174.249 144.002 173.552C144.407 172.855 144.939 172.317 145.598 171.937C146.256 171.557 146.978 171.367 147.764 171.367C148.676 171.367 149.372 171.538 149.854 171.88C150.348 172.222 150.709 172.589 150.937 172.982H151.241V171.633H153.141V182.919C153.141 183.489 152.97 183.945 152.628 184.287C152.298 184.629 151.842 184.8 151.26 184.8H144.952V183.09H150.652C151.019 183.09 151.203 182.9 151.203 182.52V179.537H150.899C150.759 179.765 150.563 179.999 150.31 180.24C150.056 180.481 149.721 180.677 149.303 180.829C148.897 180.981 148.384 181.057 147.764 181.057C146.978 181.057 146.25 180.873 145.579 180.506C144.92 180.126 144.394 179.588 144.002 178.891C143.609 178.182 143.413 177.339 143.413 176.364ZM148.296 179.347C149.144 179.347 149.841 179.081 150.386 178.549C150.943 178.004 151.222 177.257 151.222 176.307V176.136C151.222 175.161 150.949 174.413 150.405 173.894C149.86 173.362 149.157 173.096 148.296 173.096C147.46 173.096 146.763 173.362 146.206 173.894C145.661 174.413 145.389 175.161 145.389 176.136V176.307C145.389 177.257 145.661 178.004 146.206 178.549C146.763 179.081 147.46 179.347 148.296 179.347ZM160.316 181.266C159.366 181.266 158.536 181.07 157.827 180.677C157.118 180.272 156.56 179.708 156.155 178.986C155.762 178.251 155.566 177.403 155.566 176.44V176.212C155.566 175.237 155.762 174.388 156.155 173.666C156.548 172.931 157.092 172.368 157.789 171.975C158.498 171.57 159.315 171.367 160.24 171.367C161.139 171.367 161.925 171.57 162.596 171.975C163.28 172.368 163.812 172.919 164.192 173.628C164.572 174.337 164.762 175.167 164.762 176.117V176.858H157.561C157.586 177.681 157.859 178.34 158.378 178.834C158.91 179.315 159.569 179.556 160.354 179.556C161.089 179.556 161.64 179.391 162.007 179.062C162.387 178.733 162.678 178.353 162.881 177.922L164.496 178.758C164.319 179.113 164.059 179.486 163.717 179.879C163.388 180.272 162.951 180.601 162.406 180.867C161.861 181.133 161.165 181.266 160.316 181.266ZM157.58 175.357H162.767C162.716 174.648 162.463 174.097 162.007 173.704C161.551 173.299 160.956 173.096 160.221 173.096C159.486 173.096 158.885 173.299 158.416 173.704C157.96 174.097 157.681 174.648 157.58 175.357ZM170.28 181C169.71 181 169.254 180.829 168.912 180.487C168.583 180.145 168.418 179.689 168.418 179.119V173.286H165.834V171.633H168.418V168.536H170.375V171.633H173.168V173.286H170.375V178.777C170.375 179.157 170.553 179.347 170.907 179.347H172.864V181H170.28ZM184.604 181.266C183.604 181.266 182.736 181.082 182.001 180.715C181.267 180.348 180.697 179.828 180.291 179.157C179.899 178.486 179.702 177.707 179.702 176.82V176.611H181.735V176.801C181.735 177.612 181.982 178.264 182.476 178.758C182.983 179.239 183.686 179.48 184.585 179.48C185.51 179.48 186.226 179.227 186.732 178.72C187.239 178.213 187.492 177.529 187.492 176.668V176.497C187.492 175.674 187.239 175.015 186.732 174.521C186.238 174.027 185.605 173.78 184.832 173.78C184.402 173.78 184.041 173.85 183.749 173.989C183.471 174.116 183.243 174.274 183.065 174.464C182.901 174.654 182.761 174.838 182.647 175.015H180.12V167.7H189.031V169.505H182.115V173.419H182.419C182.546 173.204 182.723 173.001 182.951 172.811C183.192 172.608 183.502 172.444 183.882 172.317C184.262 172.19 184.718 172.127 185.25 172.127C186.036 172.127 186.745 172.298 187.378 172.64C188.024 172.969 188.537 173.463 188.917 174.122C189.297 174.768 189.487 175.553 189.487 176.478V176.687C189.487 177.612 189.291 178.416 188.898 179.1C188.506 179.784 187.942 180.316 187.207 180.696C186.485 181.076 185.618 181.266 184.604 181.266ZM192.919 181.247L191.703 180.259L202.096 167.453L203.312 168.441L192.919 181.247ZM201.146 181.209C200.209 181.209 199.468 180.949 198.923 180.43C198.379 179.898 198.106 179.182 198.106 178.283V178.169C198.106 177.257 198.379 176.541 198.923 176.022C199.468 175.49 200.209 175.224 201.146 175.224C202.071 175.224 202.812 175.49 203.369 176.022C203.927 176.541 204.205 177.257 204.205 178.169V178.283C204.205 179.182 203.927 179.898 203.369 180.43C202.825 180.949 202.084 181.209 201.146 181.209ZM201.146 179.879C201.602 179.879 201.957 179.74 202.21 179.461C202.476 179.182 202.609 178.815 202.609 178.359V178.093C202.609 177.624 202.476 177.251 202.21 176.972C201.957 176.693 201.602 176.554 201.146 176.554C200.703 176.554 200.348 176.693 200.082 176.972C199.829 177.251 199.702 177.624 199.702 178.093V178.359C199.702 178.815 199.829 179.182 200.082 179.461C200.348 179.74 200.703 179.879 201.146 179.879ZM193.869 173.476C192.932 173.476 192.185 173.216 191.627 172.697C191.083 172.165 190.81 171.449 190.81 170.55V170.417C190.81 169.505 191.083 168.789 191.627 168.27C192.185 167.751 192.932 167.491 193.869 167.491C194.794 167.491 195.529 167.751 196.073 168.27C196.631 168.789 196.909 169.505 196.909 170.417V170.55C196.909 171.449 196.637 172.165 196.092 172.697C195.548 173.216 194.807 173.476 193.869 173.476ZM193.869 172.146C194.313 172.146 194.661 172.007 194.914 171.728C195.18 171.437 195.313 171.063 195.313 170.607V170.341C195.313 169.885 195.18 169.518 194.914 169.239C194.661 168.96 194.313 168.821 193.869 168.821C193.413 168.821 193.052 168.96 192.786 169.239C192.533 169.518 192.406 169.885 192.406 170.341V170.607C192.406 171.063 192.533 171.437 192.786 171.728C193.052 172.007 193.413 172.146 193.869 172.146ZM212.746 181V173.286H210.124V171.633H212.746V169.581C212.746 169.011 212.917 168.555 213.259 168.213C213.601 167.871 214.057 167.7 214.627 167.7H217.04V169.353H215.254C214.887 169.353 214.703 169.543 214.703 169.923V171.633H217.401V173.286H214.703V181H212.746ZM223.404 181.266C222.467 181.266 221.631 181.076 220.896 180.696C220.174 180.303 219.604 179.746 219.186 179.024C218.768 178.302 218.559 177.447 218.559 176.459V176.174C218.559 175.186 218.768 174.337 219.186 173.628C219.604 172.906 220.174 172.349 220.896 171.956C221.631 171.563 222.467 171.367 223.404 171.367C224.342 171.367 225.178 171.563 225.912 171.956C226.647 172.349 227.223 172.906 227.641 173.628C228.059 174.337 228.268 175.186 228.268 176.174V176.459C228.268 177.447 228.059 178.302 227.641 179.024C227.223 179.746 226.647 180.303 225.912 180.696C225.178 181.076 224.342 181.266 223.404 181.266ZM223.404 179.518C224.266 179.518 224.962 179.246 225.494 178.701C226.039 178.144 226.311 177.377 226.311 176.402V176.231C226.311 175.256 226.045 174.496 225.513 173.951C224.981 173.394 224.278 173.115 223.404 173.115C222.556 173.115 221.859 173.394 221.314 173.951C220.782 174.496 220.516 175.256 220.516 176.231V176.402C220.516 177.377 220.782 178.144 221.314 178.701C221.859 179.246 222.556 179.518 223.404 179.518ZM230.705 181V171.633H232.624V172.735H232.928C233.08 172.342 233.32 172.057 233.65 171.88C233.992 171.69 234.41 171.595 234.904 171.595H236.025V173.362H234.828C234.194 173.362 233.675 173.539 233.27 173.894C232.864 174.236 232.662 174.768 232.662 175.49V181H230.705ZM247.189 181.266C246.239 181.266 245.41 181.07 244.7 180.677C243.991 180.272 243.434 179.708 243.028 178.986C242.636 178.251 242.439 177.403 242.439 176.44V176.212C242.439 175.237 242.636 174.388 243.028 173.666C243.421 172.931 243.966 172.368 244.662 171.975C245.372 171.57 246.189 171.367 247.113 171.367C248.013 171.367 248.798 171.57 249.469 171.975C250.153 172.368 250.685 172.919 251.065 173.628C251.445 174.337 251.635 175.167 251.635 176.117V176.858H244.434C244.46 177.681 244.732 178.34 245.251 178.834C245.783 179.315 246.442 179.556 247.227 179.556C247.962 179.556 248.513 179.391 248.88 179.062C249.26 178.733 249.552 178.353 249.754 177.922L251.369 178.758C251.192 179.113 250.932 179.486 250.59 179.879C250.261 180.272 249.824 180.601 249.279 180.867C248.735 181.133 248.038 181.266 247.189 181.266ZM244.453 175.357H249.64C249.59 174.648 249.336 174.097 248.88 173.704C248.424 173.299 247.829 173.096 247.094 173.096C246.36 173.096 245.758 173.299 245.289 173.704C244.833 174.097 244.555 174.648 244.453 175.357ZM255.823 181L252.669 171.633H254.74L257.229 179.556H257.533L260.022 171.633H262.093L258.939 181H255.823ZM267.952 181.266C267.002 181.266 266.172 181.07 265.463 180.677C264.754 180.272 264.196 179.708 263.791 178.986C263.398 178.251 263.202 177.403 263.202 176.44V176.212C263.202 175.237 263.398 174.388 263.791 173.666C264.184 172.931 264.728 172.368 265.425 171.975C266.134 171.57 266.951 171.367 267.876 171.367C268.775 171.367 269.561 171.57 270.232 171.975C270.916 172.368 271.448 172.919 271.828 173.628C272.208 174.337 272.398 175.167 272.398 176.117V176.858H265.197C265.222 177.681 265.495 178.34 266.014 178.834C266.546 179.315 267.205 179.556 267.99 179.556C268.725 179.556 269.276 179.391 269.643 179.062C270.023 178.733 270.314 178.353 270.517 177.922L272.132 178.758C271.955 179.113 271.695 179.486 271.353 179.879C271.024 180.272 270.587 180.601 270.042 180.867C269.497 181.133 268.801 181.266 267.952 181.266ZM265.216 175.357H270.403C270.352 174.648 270.099 174.097 269.643 173.704C269.187 173.299 268.592 173.096 267.857 173.096C267.122 173.096 266.521 173.299 266.052 173.704C265.596 174.097 265.317 174.648 265.216 175.357ZM274.754 181V171.633H276.673V172.735H276.977C277.129 172.342 277.369 172.057 277.699 171.88C278.041 171.69 278.459 171.595 278.953 171.595H280.074V173.362H278.877C278.243 173.362 277.724 173.539 277.319 173.894C276.913 174.236 276.711 174.768 276.711 175.49V181H274.754ZM283.184 184.8V183.09H288.409C288.764 183.09 288.941 182.9 288.941 182.52V179.632H288.637C288.523 179.885 288.346 180.132 288.105 180.373C287.877 180.601 287.567 180.791 287.174 180.943C286.782 181.095 286.288 181.171 285.692 181.171C284.983 181.171 284.35 181.013 283.792 180.696C283.235 180.379 282.798 179.93 282.481 179.347C282.165 178.764 282.006 178.074 282.006 177.276V171.633H283.963V177.124C283.963 177.935 284.166 178.536 284.571 178.929C284.977 179.309 285.54 179.499 286.262 179.499C287.06 179.499 287.7 179.233 288.181 178.701C288.675 178.169 288.922 177.396 288.922 176.383V171.633H290.879V182.919C290.879 183.489 290.708 183.945 290.366 184.287C290.037 184.629 289.581 184.8 288.998 184.8H283.184ZM43.5714 203.8V190.633H45.4904V191.982H45.7944C46.0351 191.564 46.3961 191.19 46.8774 190.861C47.3714 190.532 48.0744 190.367 48.9864 190.367C49.7718 190.367 50.4874 190.557 51.1334 190.937C51.7921 191.317 52.3178 191.868 52.7104 192.59C53.1158 193.299 53.3184 194.161 53.3184 195.174V195.459C53.3184 196.472 53.1221 197.34 52.7294 198.062C52.3368 198.771 51.8111 199.316 51.1524 199.696C50.4938 200.076 49.7718 200.266 48.9864 200.266C48.3784 200.266 47.8654 200.19 47.4474 200.038C47.0294 199.886 46.6938 199.696 46.4404 199.468C46.1871 199.227 45.9844 198.98 45.8324 198.727H45.5284V203.8H43.5714ZM48.4164 198.556C49.2778 198.556 49.9808 198.284 50.5254 197.739C51.0701 197.194 51.3424 196.415 51.3424 195.402V195.231C51.3424 194.23 51.0638 193.458 50.5064 192.913C49.9618 192.368 49.2651 192.096 48.4164 192.096C47.5804 192.096 46.8838 192.368 46.3264 192.913C45.7818 193.458 45.5094 194.23 45.5094 195.231V195.402C45.5094 196.415 45.7818 197.194 46.3264 197.739C46.8838 198.284 47.5804 198.556 48.4164 198.556ZM60.0373 200.266C59.0873 200.266 58.2576 200.07 57.5483 199.677C56.839 199.272 56.2816 198.708 55.8763 197.986C55.4836 197.251 55.2873 196.403 55.2873 195.44V195.212C55.2873 194.237 55.4836 193.388 55.8763 192.666C56.269 191.931 56.8136 191.368 57.5103 190.975C58.2196 190.57 59.0366 190.367 59.9613 190.367C60.8607 190.367 61.646 190.57 62.3173 190.975C63.0013 191.368 63.5333 191.919 63.9133 192.628C64.2933 193.337 64.4833 194.167 64.4833 195.117V195.858H57.2823C57.3076 196.681 57.58 197.34 58.0993 197.834C58.6313 198.315 59.29 198.556 60.0753 198.556C60.81 198.556 61.361 198.391 61.7283 198.062C62.1083 197.733 62.3997 197.353 62.6023 196.922L64.2173 197.758C64.04 198.113 63.7803 198.486 63.4383 198.879C63.109 199.272 62.672 199.601 62.1273 199.867C61.5827 200.133 60.886 200.266 60.0373 200.266ZM57.3013 194.357H62.4883C62.4377 193.648 62.1843 193.097 61.7283 192.704C61.2723 192.299 60.677 192.096 59.9423 192.096C59.2076 192.096 58.606 192.299 58.1373 192.704C57.6813 193.097 57.4026 193.648 57.3013 194.357ZM66.839 200V190.633H68.758V191.735H69.062C69.214 191.342 69.4547 191.057 69.784 190.88C70.126 190.69 70.544 190.595 71.038 190.595H72.159V192.362H70.962C70.3287 192.362 69.8094 192.539 69.404 192.894C68.9987 193.236 68.796 193.768 68.796 194.49V200H66.839ZM77.8206 200.266C76.6299 200.266 75.6419 200 74.8566 199.468C74.0712 198.936 73.5899 198.132 73.4126 197.055L75.2366 196.618C75.3379 197.137 75.5089 197.549 75.7496 197.853C75.9902 198.157 76.2879 198.372 76.6426 198.499C77.0099 198.626 77.4026 198.689 77.8206 198.689C78.4412 198.689 78.9162 198.569 79.2456 198.328C79.5876 198.087 79.7586 197.777 79.7586 197.397C79.7586 197.017 79.6002 196.738 79.2836 196.561C78.9669 196.384 78.4982 196.238 77.8776 196.124L77.2316 196.01C76.5982 195.896 76.0219 195.731 75.5026 195.516C74.9832 195.301 74.5716 195.003 74.2676 194.623C73.9636 194.243 73.8116 193.755 73.8116 193.16C73.8116 192.273 74.1409 191.589 74.7996 191.108C75.4582 190.614 76.3322 190.367 77.4216 190.367C78.4729 190.367 79.3342 190.608 80.0056 191.089C80.6896 191.558 81.1329 192.197 81.3356 193.008L79.5116 193.521C79.3976 192.951 79.1569 192.552 78.7896 192.324C78.4222 192.083 77.9662 191.963 77.4216 191.963C76.8896 191.963 76.4716 192.064 76.1676 192.267C75.8636 192.457 75.7116 192.729 75.7116 193.084C75.7116 193.464 75.8572 193.743 76.1486 193.92C76.4526 194.097 76.8579 194.23 77.3646 194.319L78.0296 194.433C78.7009 194.547 79.3152 194.705 79.8726 194.908C80.4299 195.111 80.8669 195.402 81.1836 195.782C81.5129 196.162 81.6776 196.669 81.6776 197.302C81.6776 198.239 81.3292 198.968 80.6326 199.487C79.9359 200.006 78.9986 200.266 77.8206 200.266ZM88.354 200.266C87.4167 200.266 86.5807 200.076 85.846 199.696C85.124 199.303 84.554 198.746 84.136 198.024C83.718 197.302 83.509 196.447 83.509 195.459V195.174C83.509 194.186 83.718 193.337 84.136 192.628C84.554 191.906 85.124 191.349 85.846 190.956C86.5807 190.563 87.4167 190.367 88.354 190.367C89.2913 190.367 90.1273 190.563 90.862 190.956C91.5967 191.349 92.173 191.906 92.591 192.628C93.009 193.337 93.218 194.186 93.218 195.174V195.459C93.218 196.447 93.009 197.302 92.591 198.024C92.173 198.746 91.5967 199.303 90.862 199.696C90.1273 200.076 89.2913 200.266 88.354 200.266ZM88.354 198.518C89.2153 198.518 89.912 198.246 90.444 197.701C90.9887 197.144 91.261 196.377 91.261 195.402V195.231C91.261 194.256 90.995 193.496 90.463 192.951C89.931 192.394 89.228 192.115 88.354 192.115C87.5053 192.115 86.8087 192.394 86.264 192.951C85.732 193.496 85.466 194.256 85.466 195.231V195.402C85.466 196.377 85.732 197.144 86.264 197.701C86.8087 198.246 87.5053 198.518 88.354 198.518ZM95.6544 200V190.633H97.5734V192.039H97.8774C98.0548 191.659 98.3714 191.304 98.8274 190.975C99.2834 190.646 99.9611 190.481 100.86 190.481C101.57 190.481 102.197 190.639 102.741 190.956C103.299 191.273 103.736 191.722 104.052 192.305C104.369 192.875 104.527 193.565 104.527 194.376V200H102.57V194.528C102.57 193.717 102.368 193.122 101.962 192.742C101.557 192.349 101 192.153 100.29 192.153C99.4798 192.153 98.8274 192.419 98.3334 192.951C97.8521 193.483 97.6114 194.256 97.6114 195.269V200H95.6544ZM115.702 200C115.132 200 114.676 199.829 114.334 199.487C114.004 199.145 113.84 198.689 113.84 198.119V192.286H111.256V190.633H113.84V187.536H115.797V190.633H118.59V192.286H115.797V197.777C115.797 198.157 115.974 198.347 116.329 198.347H118.286V200H115.702ZM120.889 200V186.7H122.846V191.963H123.15C123.276 191.722 123.454 191.488 123.682 191.26C123.922 191.032 124.233 190.848 124.613 190.709C125.005 190.557 125.499 190.481 126.095 190.481C126.804 190.481 127.431 190.639 127.976 190.956C128.533 191.273 128.97 191.722 129.287 192.305C129.603 192.875 129.762 193.565 129.762 194.376V200H127.805V194.528C127.805 193.717 127.602 193.122 127.197 192.742C126.791 192.349 126.234 192.153 125.525 192.153C124.714 192.153 124.062 192.419 123.568 192.951C123.086 193.483 122.846 194.256 122.846 195.269V200H120.889ZM135.485 200.266C134.814 200.266 134.212 200.152 133.68 199.924C133.161 199.696 132.743 199.36 132.426 198.917C132.122 198.474 131.97 197.935 131.97 197.302C131.97 196.656 132.122 196.124 132.426 195.706C132.743 195.275 133.167 194.952 133.699 194.737C134.244 194.522 134.858 194.414 135.542 194.414H138.392V193.806C138.392 193.261 138.228 192.824 137.898 192.495C137.569 192.166 137.062 192.001 136.378 192.001C135.707 192.001 135.194 192.159 134.839 192.476C134.485 192.793 134.25 193.204 134.136 193.711L132.312 193.122C132.464 192.615 132.705 192.159 133.034 191.754C133.376 191.336 133.826 191 134.383 190.747C134.941 190.494 135.612 190.367 136.397 190.367C137.613 190.367 138.57 190.677 139.266 191.298C139.963 191.919 140.311 192.799 140.311 193.939V197.796C140.311 198.176 140.489 198.366 140.843 198.366H141.641V200H140.178C139.735 200 139.374 199.886 139.095 199.658C138.817 199.43 138.677 199.12 138.677 198.727V198.67H138.392C138.291 198.86 138.139 199.082 137.936 199.335C137.734 199.588 137.436 199.81 137.043 200C136.651 200.177 136.131 200.266 135.485 200.266ZM135.77 198.651C136.556 198.651 137.189 198.429 137.67 197.986C138.152 197.53 138.392 196.909 138.392 196.124V195.934H135.656C135.137 195.934 134.719 196.048 134.402 196.276C134.086 196.491 133.927 196.814 133.927 197.245C133.927 197.676 134.092 198.018 134.421 198.271C134.751 198.524 135.2 198.651 135.77 198.651ZM146.41 200C145.84 200 145.384 199.829 145.042 199.487C144.712 199.145 144.548 198.689 144.548 198.119V192.286H141.964V190.633H144.548V187.536H146.505V190.633H149.298V192.286H146.505V197.777C146.505 198.157 146.682 198.347 147.037 198.347H148.994V200H146.41ZM160.031 200.171C159.321 200.171 158.688 200.013 158.131 199.696C157.573 199.379 157.136 198.93 156.82 198.347C156.503 197.764 156.345 197.068 156.345 196.257V190.633H158.302V196.124C158.302 196.935 158.504 197.536 158.91 197.929C159.315 198.309 159.879 198.499 160.601 198.499C161.399 198.499 162.038 198.233 162.52 197.701C163.014 197.156 163.261 196.377 163.261 195.364V190.633H165.218V200H163.299V198.594H162.995C162.817 198.974 162.501 199.335 162.045 199.677C161.589 200.006 160.917 200.171 160.031 200.171ZM171.949 200.266C170.758 200.266 169.77 200 168.985 199.468C168.199 198.936 167.718 198.132 167.541 197.055L169.365 196.618C169.466 197.137 169.637 197.549 169.878 197.853C170.118 198.157 170.416 198.372 170.771 198.499C171.138 198.626 171.531 198.689 171.949 198.689C172.569 198.689 173.044 198.569 173.374 198.328C173.716 198.087 173.887 197.777 173.887 197.397C173.887 197.017 173.728 196.738 173.412 196.561C173.095 196.384 172.626 196.238 172.006 196.124L171.36 196.01C170.726 195.896 170.15 195.731 169.631 195.516C169.111 195.301 168.7 195.003 168.396 194.623C168.092 194.243 167.94 193.755 167.94 193.16C167.94 192.273 168.269 191.589 168.928 191.108C169.586 190.614 170.46 190.367 171.55 190.367C172.601 190.367 173.462 190.608 174.134 191.089C174.818 191.558 175.261 192.197 175.464 193.008L173.64 193.521C173.526 192.951 173.285 192.552 172.918 192.324C172.55 192.083 172.094 191.963 171.55 191.963C171.018 191.963 170.6 192.064 170.296 192.267C169.992 192.457 169.84 192.729 169.84 193.084C169.84 193.464 169.985 193.743 170.277 193.92C170.581 194.097 170.986 194.23 171.493 194.319L172.158 194.433C172.829 194.547 173.443 194.705 174.001 194.908C174.558 195.111 174.995 195.402 175.312 195.782C175.641 196.162 175.806 196.669 175.806 197.302C175.806 198.239 175.457 198.968 174.761 199.487C174.064 200.006 173.127 200.266 171.949 200.266ZM182.387 200.266C181.437 200.266 180.607 200.07 179.898 199.677C179.189 199.272 178.631 198.708 178.226 197.986C177.833 197.251 177.637 196.403 177.637 195.44V195.212C177.637 194.237 177.833 193.388 178.226 192.666C178.619 191.931 179.163 191.368 179.86 190.975C180.569 190.57 181.386 190.367 182.311 190.367C183.21 190.367 183.996 190.57 184.667 190.975C185.351 191.368 185.883 191.919 186.263 192.628C186.643 193.337 186.833 194.167 186.833 195.117V195.858H179.632C179.657 196.681 179.93 197.34 180.449 197.834C180.981 198.315 181.64 198.556 182.425 198.556C183.16 198.556 183.711 198.391 184.078 198.062C184.458 197.733 184.749 197.353 184.952 196.922L186.567 197.758C186.39 198.113 186.13 198.486 185.788 198.879C185.459 199.272 185.022 199.601 184.477 199.867C183.932 200.133 183.236 200.266 182.387 200.266ZM179.651 194.357H184.838C184.787 193.648 184.534 193.097 184.078 192.704C183.622 192.299 183.027 192.096 182.292 192.096C181.557 192.096 180.956 192.299 180.487 192.704C180.031 193.097 179.752 193.648 179.651 194.357ZM193.027 200.266C191.836 200.266 190.848 200 190.063 199.468C189.277 198.936 188.796 198.132 188.619 197.055L190.443 196.618C190.544 197.137 190.715 197.549 190.956 197.853C191.196 198.157 191.494 198.372 191.849 198.499C192.216 198.626 192.609 198.689 193.027 198.689C193.647 198.689 194.122 198.569 194.452 198.328C194.794 198.087 194.965 197.777 194.965 197.397C194.965 197.017 194.806 196.738 194.49 196.561C194.173 196.384 193.704 196.238 193.084 196.124L192.438 196.01C191.804 195.896 191.228 195.731 190.709 195.516C190.189 195.301 189.778 195.003 189.474 194.623C189.17 194.243 189.018 193.755 189.018 193.16C189.018 192.273 189.347 191.589 190.006 191.108C190.664 190.614 191.538 190.367 192.628 190.367C193.679 190.367 194.54 190.608 195.212 191.089C195.896 191.558 196.339 192.197 196.542 193.008L194.718 193.521C194.604 192.951 194.363 192.552 193.996 192.324C193.628 192.083 193.172 191.963 192.628 191.963C192.096 191.963 191.678 192.064 191.374 192.267C191.07 192.457 190.918 192.729 190.918 193.084C190.918 193.464 191.063 193.743 191.355 193.92C191.659 194.097 192.064 194.23 192.571 194.319L193.236 194.433C193.907 194.547 194.521 194.705 195.079 194.908C195.636 195.111 196.073 195.402 196.39 195.782C196.719 196.162 196.884 196.669 196.884 197.302C196.884 198.239 196.535 198.968 195.839 199.487C195.142 200.006 194.205 200.266 193.027 200.266ZM205.097 203.8V202.09H210.322C210.676 202.09 210.854 201.9 210.854 201.52V198.632H210.55C210.436 198.885 210.258 199.132 210.018 199.373C209.79 199.601 209.479 199.791 209.087 199.943C208.694 200.095 208.2 200.171 207.605 200.171C206.895 200.171 206.262 200.013 205.705 199.696C205.147 199.379 204.71 198.93 204.394 198.347C204.077 197.764 203.919 197.074 203.919 196.276V190.633H205.876V196.124C205.876 196.935 206.078 197.536 206.484 197.929C206.889 198.309 207.453 198.499 208.175 198.499C208.973 198.499 209.612 198.233 210.094 197.701C210.588 197.169 210.835 196.396 210.835 195.383V190.633H212.792V201.919C212.792 202.489 212.621 202.945 212.279 203.287C211.949 203.629 211.493 203.8 210.911 203.8H205.097ZM220.074 200.266C219.136 200.266 218.3 200.076 217.566 199.696C216.844 199.303 216.274 198.746 215.856 198.024C215.438 197.302 215.229 196.447 215.229 195.459V195.174C215.229 194.186 215.438 193.337 215.856 192.628C216.274 191.906 216.844 191.349 217.566 190.956C218.3 190.563 219.136 190.367 220.074 190.367C221.011 190.367 221.847 190.563 222.582 190.956C223.316 191.349 223.893 191.906 224.311 192.628C224.729 193.337 224.938 194.186 224.938 195.174V195.459C224.938 196.447 224.729 197.302 224.311 198.024C223.893 198.746 223.316 199.303 222.582 199.696C221.847 200.076 221.011 200.266 220.074 200.266ZM220.074 198.518C220.935 198.518 221.632 198.246 222.164 197.701C222.708 197.144 222.981 196.377 222.981 195.402V195.231C222.981 194.256 222.715 193.496 222.183 192.951C221.651 192.394 220.948 192.115 220.074 192.115C219.225 192.115 218.528 192.394 217.984 192.951C217.452 193.496 217.186 194.256 217.186 195.231V195.402C217.186 196.377 217.452 197.144 217.984 197.701C218.528 198.246 219.225 198.518 220.074 198.518ZM230.965 200.171C230.256 200.171 229.623 200.013 229.065 199.696C228.508 199.379 228.071 198.93 227.754 198.347C227.438 197.764 227.279 197.068 227.279 196.257V190.633H229.236V196.124C229.236 196.935 229.439 197.536 229.844 197.929C230.25 198.309 230.813 198.499 231.535 198.499C232.333 198.499 232.973 198.233 233.454 197.701C233.948 197.156 234.195 196.377 234.195 195.364V190.633H236.152V200H234.233V198.594H233.929C233.752 198.974 233.435 199.335 232.979 199.677C232.523 200.006 231.852 200.171 230.965 200.171ZM239.045 200V190.633H240.964V191.735H241.268C241.42 191.342 241.661 191.057 241.99 190.88C242.332 190.69 242.75 190.595 243.244 190.595H244.365V192.362H243.168C242.535 192.362 242.015 192.539 241.61 192.894C241.205 193.236 241.002 193.768 241.002 194.49V200H239.045ZM255.587 200.266C254.687 200.266 253.87 200.076 253.136 199.696C252.414 199.316 251.837 198.765 251.407 198.043C250.989 197.321 250.78 196.453 250.78 195.44V195.193C250.78 194.18 250.989 193.318 251.407 192.609C251.837 191.887 252.414 191.336 253.136 190.956C253.87 190.563 254.687 190.367 255.587 190.367C256.486 190.367 257.252 190.532 257.886 190.861C258.519 191.19 259.026 191.627 259.406 192.172C259.798 192.717 260.052 193.318 260.166 193.977L258.266 194.376C258.202 193.958 258.069 193.578 257.867 193.236C257.664 192.894 257.379 192.622 257.012 192.419C256.644 192.216 256.182 192.115 255.625 192.115C255.08 192.115 254.586 192.242 254.143 192.495C253.712 192.736 253.37 193.09 253.117 193.559C252.863 194.015 252.737 194.572 252.737 195.231V195.402C252.737 196.061 252.863 196.624 253.117 197.093C253.37 197.562 253.712 197.916 254.143 198.157C254.586 198.398 255.08 198.518 255.625 198.518C256.448 198.518 257.075 198.309 257.506 197.891C257.936 197.46 258.209 196.916 258.323 196.257L260.223 196.694C260.071 197.34 259.798 197.935 259.406 198.48C259.026 199.025 258.519 199.462 257.886 199.791C257.252 200.108 256.486 200.266 255.587 200.266ZM266.869 200.266C265.931 200.266 265.095 200.076 264.361 199.696C263.639 199.303 263.069 198.746 262.651 198.024C262.233 197.302 262.024 196.447 262.024 195.459V195.174C262.024 194.186 262.233 193.337 262.651 192.628C263.069 191.906 263.639 191.349 264.361 190.956C265.095 190.563 265.931 190.367 266.869 190.367C267.806 190.367 268.642 190.563 269.377 190.956C270.111 191.349 270.688 191.906 271.106 192.628C271.524 193.337 271.733 194.186 271.733 195.174V195.459C271.733 196.447 271.524 197.302 271.106 198.024C270.688 198.746 270.111 199.303 269.377 199.696C268.642 200.076 267.806 200.266 266.869 200.266ZM266.869 198.518C267.73 198.518 268.427 198.246 268.959 197.701C269.503 197.144 269.776 196.377 269.776 195.402V195.231C269.776 194.256 269.51 193.496 268.978 192.951C268.446 192.394 267.743 192.115 266.869 192.115C266.02 192.115 265.323 192.394 264.779 192.951C264.247 193.496 263.981 194.256 263.981 195.231V195.402C263.981 196.377 264.247 197.144 264.779 197.701C265.323 198.246 266.02 198.518 266.869 198.518ZM278.045 200.266C277.272 200.266 276.557 200.076 275.898 199.696C275.239 199.316 274.707 198.771 274.302 198.062C273.909 197.34 273.713 196.472 273.713 195.459V195.174C273.713 194.173 273.909 193.312 274.302 192.59C274.695 191.868 275.22 191.317 275.879 190.937C276.538 190.557 277.26 190.367 278.045 190.367C278.653 190.367 279.16 190.443 279.565 190.595C279.983 190.747 280.325 190.943 280.591 191.184C280.857 191.412 281.06 191.653 281.199 191.906H281.503V186.7H283.46V200H281.541V198.67H281.237C280.996 199.075 280.629 199.443 280.135 199.772C279.654 200.101 278.957 200.266 278.045 200.266ZM278.596 198.556C279.445 198.556 280.141 198.284 280.686 197.739C281.243 197.194 281.522 196.415 281.522 195.402V195.231C281.522 194.23 281.25 193.458 280.705 192.913C280.16 192.368 279.457 192.096 278.596 192.096C277.76 192.096 277.063 192.368 276.506 192.913C275.961 193.458 275.689 194.23 275.689 195.231V195.402C275.689 196.415 275.961 197.194 276.506 197.739C277.063 198.284 277.76 198.556 278.596 198.556ZM290.635 200.266C289.685 200.266 288.855 200.07 288.146 199.677C287.437 199.272 286.879 198.708 286.474 197.986C286.081 197.251 285.885 196.403 285.885 195.44V195.212C285.885 194.237 286.081 193.388 286.474 192.666C286.867 191.931 287.411 191.368 288.108 190.975C288.817 190.57 289.634 190.367 290.559 190.367C291.458 190.367 292.244 190.57 292.915 190.975C293.599 191.368 294.131 191.919 294.511 192.628C294.891 193.337 295.081 194.167 295.081 195.117V195.858H287.88C287.905 196.681 288.178 197.34 288.697 197.834C289.229 198.315 289.888 198.556 290.673 198.556C291.408 198.556 291.959 198.391 292.326 198.062C292.706 197.733 292.997 197.353 293.2 196.922L294.815 197.758C294.638 198.113 294.378 198.486 294.036 198.879C293.707 199.272 293.27 199.601 292.725 199.867C292.18 200.133 291.484 200.266 290.635 200.266ZM287.899 194.357H293.086C293.035 193.648 292.782 193.097 292.326 192.704C291.87 192.299 291.275 192.096 290.54 192.096C289.805 192.096 289.204 192.299 288.735 192.704C288.279 193.097 288 193.648 287.899 194.357ZM306.668 200.266C305.731 200.266 304.895 200.076 304.16 199.696C303.438 199.303 302.868 198.746 302.45 198.024C302.032 197.302 301.823 196.447 301.823 195.459V195.174C301.823 194.186 302.032 193.337 302.45 192.628C302.868 191.906 303.438 191.349 304.16 190.956C304.895 190.563 305.731 190.367 306.668 190.367C307.606 190.367 308.442 190.563 309.176 190.956C309.911 191.349 310.487 191.906 310.905 192.628C311.323 193.337 311.532 194.186 311.532 195.174V195.459C311.532 196.447 311.323 197.302 310.905 198.024C310.487 198.746 309.911 199.303 309.176 199.696C308.442 200.076 307.606 200.266 306.668 200.266ZM306.668 198.518C307.53 198.518 308.226 198.246 308.758 197.701C309.303 197.144 309.575 196.377 309.575 195.402V195.231C309.575 194.256 309.309 193.496 308.777 192.951C308.245 192.394 307.542 192.115 306.668 192.115C305.82 192.115 305.123 192.394 304.578 192.951C304.046 193.496 303.78 194.256 303.78 195.231V195.402C303.78 196.377 304.046 197.144 304.578 197.701C305.123 198.246 305.82 198.518 306.668 198.518ZM313.969 200V190.633H315.888V191.735H316.192C316.344 191.342 316.585 191.057 316.914 190.88C317.256 190.69 317.674 190.595 318.168 190.595H319.289V192.362H318.092C317.459 192.362 316.939 192.539 316.534 192.894C316.129 193.236 315.926 193.768 315.926 194.49V200H313.969ZM54.2218 219V205.7H56.1788V219H54.2218ZM59.0832 219V209.633H61.0402V219H59.0832ZM60.0712 208.36C59.6912 208.36 59.3682 208.24 59.1022 207.999C58.8488 207.746 58.7222 207.423 58.7222 207.03C58.7222 206.637 58.8488 206.321 59.1022 206.08C59.3682 205.827 59.6912 205.7 60.0712 205.7C60.4638 205.7 60.7868 205.827 61.0402 206.08C61.2935 206.321 61.4202 206.637 61.4202 207.03C61.4202 207.423 61.2935 207.746 61.0402 207.999C60.7868 208.24 60.4638 208.36 60.0712 208.36ZM63.9445 219V209.633H65.8635V211.039H66.1675C66.3448 210.659 66.6615 210.304 67.1175 209.975C67.5735 209.646 68.2512 209.481 69.1505 209.481C69.8598 209.481 70.4868 209.639 71.0315 209.956C71.5888 210.273 72.0258 210.722 72.3425 211.305C72.6592 211.875 72.8175 212.565 72.8175 213.376V219H70.8605V213.528C70.8605 212.717 70.6578 212.122 70.2525 211.742C69.8472 211.349 69.2898 211.153 68.5805 211.153C67.7698 211.153 67.1175 211.419 66.6235 211.951C66.1422 212.483 65.9015 213.256 65.9015 214.269V219H63.9445ZM75.6339 219V205.7H77.5909V213.281H77.8949L81.5809 209.633H84.1839L79.4529 214.174L84.3359 219H81.7519L77.8949 215.105H77.5909V219H75.6339ZM94.4566 219C93.8866 219 93.4306 218.829 93.0886 218.487C92.7592 218.145 92.5946 217.689 92.5946 217.119V211.286H90.0106V209.633H92.5946V206.536H94.5516V209.633H97.3446V211.286H94.5516V216.777C94.5516 217.157 94.7289 217.347 95.0836 217.347H97.0406V219H94.4566ZM103.699 219.266C102.761 219.266 101.925 219.076 101.191 218.696C100.469 218.303 99.8987 217.746 99.4807 217.024C99.0627 216.302 98.8537 215.447 98.8537 214.459V214.174C98.8537 213.186 99.0627 212.337 99.4807 211.628C99.8987 210.906 100.469 210.349 101.191 209.956C101.925 209.563 102.761 209.367 103.699 209.367C104.636 209.367 105.472 209.563 106.207 209.956C106.941 210.349 107.518 210.906 107.936 211.628C108.354 212.337 108.563 213.186 108.563 214.174V214.459C108.563 215.447 108.354 216.302 107.936 217.024C107.518 217.746 106.941 218.303 106.207 218.696C105.472 219.076 104.636 219.266 103.699 219.266ZM103.699 217.518C104.56 217.518 105.257 217.246 105.789 216.701C106.333 216.144 106.606 215.377 106.606 214.402V214.231C106.606 213.256 106.34 212.496 105.808 211.951C105.276 211.394 104.573 211.115 103.699 211.115C102.85 211.115 102.153 211.394 101.609 211.951C101.077 212.496 100.811 213.256 100.811 214.231V214.402C100.811 215.377 101.077 216.144 101.609 216.701C102.153 217.246 102.85 217.518 103.699 217.518ZM115.842 222.8V209.633H117.761V210.982H118.065C118.306 210.564 118.667 210.19 119.148 209.861C119.642 209.532 120.345 209.367 121.257 209.367C122.042 209.367 122.758 209.557 123.404 209.937C124.063 210.317 124.588 210.868 124.981 211.59C125.386 212.299 125.589 213.161 125.589 214.174V214.459C125.589 215.472 125.393 216.34 125 217.062C124.607 217.771 124.082 218.316 123.423 218.696C122.764 219.076 122.042 219.266 121.257 219.266C120.649 219.266 120.136 219.19 119.718 219.038C119.3 218.886 118.964 218.696 118.711 218.468C118.458 218.227 118.255 217.98 118.103 217.727H117.799V222.8H115.842ZM120.687 217.556C121.548 217.556 122.251 217.284 122.796 216.739C123.341 216.194 123.613 215.415 123.613 214.402V214.231C123.613 213.23 123.334 212.458 122.777 211.913C122.232 211.368 121.536 211.096 120.687 211.096C119.851 211.096 119.154 211.368 118.597 211.913C118.052 212.458 117.78 213.23 117.78 214.231V214.402C117.78 215.415 118.052 216.194 118.597 216.739C119.154 217.284 119.851 217.556 120.687 217.556ZM131.605 219.171C130.895 219.171 130.262 219.013 129.705 218.696C129.147 218.379 128.71 217.93 128.394 217.347C128.077 216.764 127.919 216.068 127.919 215.257V209.633H129.876V215.124C129.876 215.935 130.078 216.536 130.484 216.929C130.889 217.309 131.453 217.499 132.175 217.499C132.973 217.499 133.612 217.233 134.094 216.701C134.588 216.156 134.835 215.377 134.835 214.364V209.633H136.792V219H134.873V217.594H134.569C134.391 217.974 134.075 218.335 133.619 218.677C133.163 219.006 132.491 219.171 131.605 219.171ZM139.685 219V209.633H141.604V210.735H141.908C142.06 210.342 142.3 210.057 142.63 209.88C142.972 209.69 143.39 209.595 143.884 209.595H145.005V211.362H143.808C143.174 211.362 142.655 211.539 142.25 211.894C141.844 212.236 141.642 212.768 141.642 213.49V219H139.685ZM151.049 219.266C150.15 219.266 149.333 219.076 148.598 218.696C147.876 218.316 147.3 217.765 146.869 217.043C146.451 216.321 146.242 215.453 146.242 214.44V214.193C146.242 213.18 146.451 212.318 146.869 211.609C147.3 210.887 147.876 210.336 148.598 209.956C149.333 209.563 150.15 209.367 151.049 209.367C151.949 209.367 152.715 209.532 153.348 209.861C153.982 210.19 154.488 210.627 154.868 211.172C155.261 211.717 155.514 212.318 155.628 212.977L153.728 213.376C153.665 212.958 153.532 212.578 153.329 212.236C153.127 211.894 152.842 211.622 152.474 211.419C152.107 211.216 151.645 211.115 151.087 211.115C150.543 211.115 150.049 211.242 149.605 211.495C149.175 211.736 148.833 212.09 148.579 212.559C148.326 213.015 148.199 213.572 148.199 214.231V214.402C148.199 215.061 148.326 215.624 148.579 216.093C148.833 216.562 149.175 216.916 149.605 217.157C150.049 217.398 150.543 217.518 151.087 217.518C151.911 217.518 152.538 217.309 152.968 216.891C153.399 216.46 153.671 215.916 153.785 215.257L155.685 215.694C155.533 216.34 155.261 216.935 154.868 217.48C154.488 218.025 153.982 218.462 153.348 218.791C152.715 219.108 151.949 219.266 151.049 219.266ZM157.943 219V205.7H159.9V210.963H160.204C160.33 210.722 160.508 210.488 160.736 210.26C160.976 210.032 161.287 209.848 161.667 209.709C162.059 209.557 162.553 209.481 163.149 209.481C163.858 209.481 164.485 209.639 165.03 209.956C165.587 210.273 166.024 210.722 166.341 211.305C166.657 211.875 166.816 212.565 166.816 213.376V219H164.859V213.528C164.859 212.717 164.656 212.122 164.251 211.742C163.845 211.349 163.288 211.153 162.579 211.153C161.768 211.153 161.116 211.419 160.622 211.951C160.14 212.483 159.9 213.256 159.9 214.269V219H157.943ZM172.539 219.266C171.868 219.266 171.266 219.152 170.734 218.924C170.215 218.696 169.797 218.36 169.48 217.917C169.176 217.474 169.024 216.935 169.024 216.302C169.024 215.656 169.176 215.124 169.48 214.706C169.797 214.275 170.221 213.952 170.753 213.737C171.298 213.522 171.912 213.414 172.596 213.414H175.446V212.806C175.446 212.261 175.281 211.824 174.952 211.495C174.623 211.166 174.116 211.001 173.432 211.001C172.761 211.001 172.248 211.159 171.893 211.476C171.538 211.793 171.304 212.204 171.19 212.711L169.366 212.122C169.518 211.615 169.759 211.159 170.088 210.754C170.43 210.336 170.88 210 171.437 209.747C171.994 209.494 172.666 209.367 173.451 209.367C174.667 209.367 175.623 209.677 176.32 210.298C177.017 210.919 177.365 211.799 177.365 212.939V216.796C177.365 217.176 177.542 217.366 177.897 217.366H178.695V219H177.232C176.789 219 176.428 218.886 176.149 218.658C175.87 218.43 175.731 218.12 175.731 217.727V217.67H175.446C175.345 217.86 175.193 218.082 174.99 218.335C174.787 218.588 174.49 218.81 174.097 219C173.704 219.177 173.185 219.266 172.539 219.266ZM172.824 217.651C173.609 217.651 174.243 217.429 174.724 216.986C175.205 216.53 175.446 215.909 175.446 215.124V214.934H172.71C172.191 214.934 171.773 215.048 171.456 215.276C171.139 215.491 170.981 215.814 170.981 216.245C170.981 216.676 171.146 217.018 171.475 217.271C171.804 217.524 172.254 217.651 172.824 217.651ZM184.362 219.266C183.171 219.266 182.183 219 181.398 218.468C180.612 217.936 180.131 217.132 179.954 216.055L181.778 215.618C181.879 216.137 182.05 216.549 182.291 216.853C182.531 217.157 182.829 217.372 183.184 217.499C183.551 217.626 183.944 217.689 184.362 217.689C184.982 217.689 185.457 217.569 185.787 217.328C186.129 217.087 186.3 216.777 186.3 216.397C186.3 216.017 186.141 215.738 185.825 215.561C185.508 215.384 185.039 215.238 184.419 215.124L183.773 215.01C183.139 214.896 182.563 214.731 182.044 214.516C181.524 214.301 181.113 214.003 180.809 213.623C180.505 213.243 180.353 212.755 180.353 212.16C180.353 211.273 180.682 210.589 181.341 210.108C181.999 209.614 182.873 209.367 183.963 209.367C185.014 209.367 185.875 209.608 186.547 210.089C187.231 210.558 187.674 211.197 187.877 212.008L186.053 212.521C185.939 211.951 185.698 211.552 185.331 211.324C184.963 211.083 184.507 210.963 183.963 210.963C183.431 210.963 183.013 211.064 182.709 211.267C182.405 211.457 182.253 211.729 182.253 212.084C182.253 212.464 182.398 212.743 182.69 212.92C182.994 213.097 183.399 213.23 183.906 213.319L184.571 213.433C185.242 213.547 185.856 213.705 186.414 213.908C186.971 214.111 187.408 214.402 187.725 214.782C188.054 215.162 188.219 215.669 188.219 216.302C188.219 217.239 187.87 217.968 187.174 218.487C186.477 219.006 185.54 219.266 184.362 219.266ZM194.8 219.266C193.85 219.266 193.02 219.07 192.311 218.677C191.602 218.272 191.044 217.708 190.639 216.986C190.246 216.251 190.05 215.403 190.05 214.44V214.212C190.05 213.237 190.246 212.388 190.639 211.666C191.032 210.931 191.576 210.368 192.273 209.975C192.982 209.57 193.799 209.367 194.724 209.367C195.623 209.367 196.409 209.57 197.08 209.975C197.764 210.368 198.296 210.919 198.676 211.628C199.056 212.337 199.246 213.167 199.246 214.117V214.858H192.045C192.07 215.681 192.343 216.34 192.862 216.834C193.394 217.315 194.053 217.556 194.838 217.556C195.573 217.556 196.124 217.391 196.491 217.062C196.871 216.733 197.162 216.353 197.365 215.922L198.98 216.758C198.803 217.113 198.543 217.486 198.201 217.879C197.872 218.272 197.435 218.601 196.89 218.867C196.345 219.133 195.649 219.266 194.8 219.266ZM192.064 213.357H197.251C197.2 212.648 196.947 212.097 196.491 211.704C196.035 211.299 195.44 211.096 194.705 211.096C193.97 211.096 193.369 211.299 192.9 211.704C192.444 212.097 192.165 212.648 192.064 213.357ZM209.351 219.266C208.68 219.266 208.078 219.152 207.546 218.924C207.027 218.696 206.609 218.36 206.292 217.917C205.988 217.474 205.836 216.935 205.836 216.302C205.836 215.656 205.988 215.124 206.292 214.706C206.609 214.275 207.033 213.952 207.565 213.737C208.11 213.522 208.724 213.414 209.408 213.414H212.258V212.806C212.258 212.261 212.094 211.824 211.764 211.495C211.435 211.166 210.928 211.001 210.244 211.001C209.573 211.001 209.06 211.159 208.705 211.476C208.351 211.793 208.116 212.204 208.002 212.711L206.178 212.122C206.33 211.615 206.571 211.159 206.9 210.754C207.242 210.336 207.692 210 208.249 209.747C208.807 209.494 209.478 209.367 210.263 209.367C211.479 209.367 212.436 209.677 213.132 210.298C213.829 210.919 214.177 211.799 214.177 212.939V216.796C214.177 217.176 214.355 217.366 214.709 217.366H215.507V219H214.044C213.601 219 213.24 218.886 212.961 218.658C212.683 218.43 212.543 218.12 212.543 217.727V217.67H212.258C212.157 217.86 212.005 218.082 211.802 218.335C211.6 218.588 211.302 218.81 210.909 219C210.517 219.177 209.997 219.266 209.351 219.266ZM209.636 217.651C210.422 217.651 211.055 217.429 211.536 216.986C212.018 216.53 212.258 215.909 212.258 215.124V214.934H209.522C209.003 214.934 208.585 215.048 208.268 215.276C207.952 215.491 207.793 215.814 207.793 216.245C207.793 216.676 207.958 217.018 208.287 217.271C208.617 217.524 209.066 217.651 209.636 217.651ZM217.41 219V209.633H219.329V211.039H219.633C219.811 210.659 220.127 210.304 220.583 209.975C221.039 209.646 221.717 209.481 222.616 209.481C223.326 209.481 223.953 209.639 224.497 209.956C225.055 210.273 225.492 210.722 225.808 211.305C226.125 211.875 226.283 212.565 226.283 213.376V219H224.326V213.528C224.326 212.717 224.124 212.122 223.718 211.742C223.313 211.349 222.756 211.153 222.046 211.153C221.236 211.153 220.583 211.419 220.089 211.951C219.608 212.483 219.367 213.256 219.367 214.269V219H217.41ZM236.85 219.266C236.178 219.266 235.577 219.152 235.045 218.924C234.525 218.696 234.107 218.36 233.791 217.917C233.487 217.474 233.335 216.935 233.335 216.302C233.335 215.656 233.487 215.124 233.791 214.706C234.107 214.275 234.532 213.952 235.064 213.737C235.608 213.522 236.223 213.414 236.907 213.414H239.757V212.806C239.757 212.261 239.592 211.824 239.263 211.495C238.933 211.166 238.427 211.001 237.743 211.001C237.071 211.001 236.558 211.159 236.204 211.476C235.849 211.793 235.615 212.204 235.501 212.711L233.677 212.122C233.829 211.615 234.069 211.159 234.399 210.754C234.741 210.336 235.19 210 235.748 209.747C236.305 209.494 236.976 209.367 237.762 209.367C238.978 209.367 239.934 209.677 240.631 210.298C241.327 210.919 241.676 211.799 241.676 212.939V216.796C241.676 217.176 241.853 217.366 242.208 217.366H243.006V219H241.543C241.099 219 240.738 218.886 240.46 218.658C240.181 218.43 240.042 218.12 240.042 217.727V217.67H239.757C239.655 217.86 239.503 218.082 239.301 218.335C239.098 218.588 238.8 218.81 238.408 219C238.015 219.177 237.496 219.266 236.85 219.266ZM237.135 217.651C237.92 217.651 238.553 217.429 239.035 216.986C239.516 216.53 239.757 215.909 239.757 215.124V214.934H237.021C236.501 214.934 236.083 215.048 235.767 215.276C235.45 215.491 235.292 215.814 235.292 216.245C235.292 216.676 235.456 217.018 235.786 217.271C236.115 217.524 236.565 217.651 237.135 217.651ZM249.037 219.266C248.137 219.266 247.32 219.076 246.586 218.696C245.864 218.316 245.287 217.765 244.857 217.043C244.439 216.321 244.23 215.453 244.23 214.44V214.193C244.23 213.18 244.439 212.318 244.857 211.609C245.287 210.887 245.864 210.336 246.586 209.956C247.32 209.563 248.137 209.367 249.037 209.367C249.936 209.367 250.702 209.532 251.336 209.861C251.969 210.19 252.476 210.627 252.856 211.172C253.248 211.717 253.502 212.318 253.616 212.977L251.716 213.376C251.652 212.958 251.519 212.578 251.317 212.236C251.114 211.894 250.829 211.622 250.462 211.419C250.094 211.216 249.632 211.115 249.075 211.115C248.53 211.115 248.036 211.242 247.593 211.495C247.162 211.736 246.82 212.09 246.567 212.559C246.313 213.015 246.187 213.572 246.187 214.231V214.402C246.187 215.061 246.313 215.624 246.567 216.093C246.82 216.562 247.162 216.916 247.593 217.157C248.036 217.398 248.53 217.518 249.075 217.518C249.898 217.518 250.525 217.309 250.956 216.891C251.386 216.46 251.659 215.916 251.773 215.257L253.673 215.694C253.521 216.34 253.248 216.935 252.856 217.48C252.476 218.025 251.969 218.462 251.336 218.791C250.702 219.108 249.936 219.266 249.037 219.266ZM260.281 219.266C259.382 219.266 258.565 219.076 257.83 218.696C257.108 218.316 256.532 217.765 256.101 217.043C255.683 216.321 255.474 215.453 255.474 214.44V214.193C255.474 213.18 255.683 212.318 256.101 211.609C256.532 210.887 257.108 210.336 257.83 209.956C258.565 209.563 259.382 209.367 260.281 209.367C261.18 209.367 261.947 209.532 262.58 209.861C263.213 210.19 263.72 210.627 264.1 211.172C264.493 211.717 264.746 212.318 264.86 212.977L262.96 213.376C262.897 212.958 262.764 212.578 262.561 212.236C262.358 211.894 262.073 211.622 261.706 211.419C261.339 211.216 260.876 211.115 260.319 211.115C259.774 211.115 259.28 211.242 258.837 211.495C258.406 211.736 258.064 212.09 257.811 212.559C257.558 213.015 257.431 213.572 257.431 214.231V214.402C257.431 215.061 257.558 215.624 257.811 216.093C258.064 216.562 258.406 216.916 258.837 217.157C259.28 217.398 259.774 217.518 260.319 217.518C261.142 217.518 261.769 217.309 262.2 216.891C262.631 216.46 262.903 215.916 263.017 215.257L264.917 215.694C264.765 216.34 264.493 216.935 264.1 217.48C263.72 218.025 263.213 218.462 262.58 218.791C261.947 219.108 261.18 219.266 260.281 219.266ZM271.563 219.266C270.626 219.266 269.79 219.076 269.055 218.696C268.333 218.303 267.763 217.746 267.345 217.024C266.927 216.302 266.718 215.447 266.718 214.459V214.174C266.718 213.186 266.927 212.337 267.345 211.628C267.763 210.906 268.333 210.349 269.055 209.956C269.79 209.563 270.626 209.367 271.563 209.367C272.5 209.367 273.336 209.563 274.071 209.956C274.806 210.349 275.382 210.906 275.8 211.628C276.218 212.337 276.427 213.186 276.427 214.174V214.459C276.427 215.447 276.218 216.302 275.8 217.024C275.382 217.746 274.806 218.303 274.071 218.696C273.336 219.076 272.5 219.266 271.563 219.266ZM271.563 217.518C272.424 217.518 273.121 217.246 273.653 216.701C274.198 216.144 274.47 215.377 274.47 214.402V214.231C274.47 213.256 274.204 212.496 273.672 211.951C273.14 211.394 272.437 211.115 271.563 211.115C270.714 211.115 270.018 211.394 269.473 211.951C268.941 212.496 268.675 213.256 268.675 214.231V214.402C268.675 215.377 268.941 216.144 269.473 216.701C270.018 217.246 270.714 217.518 271.563 217.518ZM282.454 219.171C281.745 219.171 281.112 219.013 280.554 218.696C279.997 218.379 279.56 217.93 279.243 217.347C278.927 216.764 278.768 216.068 278.768 215.257V209.633H280.725V215.124C280.725 215.935 280.928 216.536 281.333 216.929C281.739 217.309 282.302 217.499 283.024 217.499C283.822 217.499 284.462 217.233 284.943 216.701C285.437 216.156 285.684 215.377 285.684 214.364V209.633H287.641V219H285.722V217.594H285.418C285.241 217.974 284.924 218.335 284.468 218.677C284.012 219.006 283.341 219.171 282.454 219.171ZM290.534 219V209.633H292.453V211.039H292.757C292.935 210.659 293.251 210.304 293.707 209.975C294.163 209.646 294.841 209.481 295.74 209.481C296.45 209.481 297.077 209.639 297.621 209.956C298.179 210.273 298.616 210.722 298.932 211.305C299.249 211.875 299.407 212.565 299.407 213.376V219H297.45V213.528C297.45 212.717 297.248 212.122 296.842 211.742C296.437 211.349 295.88 211.153 295.17 211.153C294.36 211.153 293.707 211.419 293.213 211.951C292.732 212.483 292.491 213.256 292.491 214.269V219H290.534ZM305.479 219C304.909 219 304.453 218.829 304.111 218.487C303.782 218.145 303.617 217.689 303.617 217.119V211.286H301.033V209.633H303.617V206.536H305.574V209.633H308.367V211.286H305.574V216.777C305.574 217.157 305.751 217.347 306.106 217.347H308.063V219H305.479Z" fill="white"/>
<path d="M178.472 114.842L182.317 89.6898C181.046 89.4895 179.761 89.3827 178.474 89.3702C164.403 89.3702 153 100.775 153 114.842C153 128.912 164.405 140.314 178.472 140.314C192.539 140.314 203.944 128.909 203.944 114.842C203.944 114.245 203.897 113.659 203.855 113.069L178.472 114.842ZM187.464 85L183.619 110.152L209 108.379C208.596 102.617 206.244 97.1629 202.331 92.9141C198.417 88.6654 193.174 85.8745 187.464 85Z" fill="white"/>
</svg>
