<svg width="362" height="362" viewBox="0 0 362 362" fill="none" xmlns="http://www.w3.org/2000/svg">
<path d="M91.306 336.026L1.73205 180.88L91.306 25.7331L270.454 25.7331L360.028 180.88L270.454 336.026L91.306 336.026Z" stroke="#0072D8" stroke-width="3"/>
<path d="M109.69 181V167.7H113.547L116.454 179.632H116.758L119.665 167.7H123.522V181H121.527V169.144H121.223L118.335 181H114.877L111.989 169.144H111.685V181H109.69ZM130.742 181.266C129.805 181.266 128.969 181.076 128.234 180.696C127.512 180.303 126.942 179.746 126.524 179.024C126.106 178.302 125.897 177.447 125.897 176.459V176.174C125.897 175.186 126.106 174.337 126.524 173.628C126.942 172.906 127.512 172.349 128.234 171.956C128.969 171.563 129.805 171.367 130.742 171.367C131.68 171.367 132.516 171.563 133.25 171.956C133.985 172.349 134.561 172.906 134.979 173.628C135.397 174.337 135.606 175.186 135.606 176.174V176.459C135.606 177.447 135.397 178.302 134.979 179.024C134.561 179.746 133.985 180.303 133.25 180.696C132.516 181.076 131.68 181.266 130.742 181.266ZM130.742 179.518C131.604 179.518 132.3 179.246 132.832 178.701C133.377 178.144 133.649 177.377 133.649 176.402V176.231C133.649 175.256 133.383 174.496 132.851 173.951C132.319 173.394 131.616 173.115 130.742 173.115C129.894 173.115 129.197 173.394 128.652 173.951C128.12 174.496 127.854 175.256 127.854 176.231V176.402C127.854 177.377 128.12 178.144 128.652 178.701C129.197 179.246 129.894 179.518 130.742 179.518ZM138.043 181V171.633H139.962V173.039H140.266C140.443 172.659 140.76 172.304 141.216 171.975C141.672 171.646 142.349 171.481 143.249 171.481C143.958 171.481 144.585 171.639 145.13 171.956C145.687 172.273 146.124 172.722 146.441 173.305C146.757 173.875 146.916 174.565 146.916 175.376V181H144.959V175.528C144.959 174.717 144.756 174.122 144.351 173.742C143.945 173.349 143.388 173.153 142.679 173.153C141.868 173.153 141.216 173.419 140.722 173.951C140.24 174.483 140 175.256 140 176.269V181H138.043ZM149.732 181V171.633H151.689V181H149.732ZM150.72 170.36C150.34 170.36 150.017 170.24 149.751 169.999C149.498 169.746 149.371 169.423 149.371 169.03C149.371 168.637 149.498 168.321 149.751 168.08C150.017 167.827 150.34 167.7 150.72 167.7C151.113 167.7 151.436 167.827 151.689 168.08C151.942 168.321 152.069 168.637 152.069 169.03C152.069 169.423 151.942 169.746 151.689 169.999C151.436 170.24 151.113 170.36 150.72 170.36ZM158.108 181C157.538 181 157.082 180.829 156.74 180.487C156.411 180.145 156.246 179.689 156.246 179.119V173.286H153.662V171.633H156.246V168.536H158.203V171.633H160.996V173.286H158.203V178.777C158.203 179.157 158.381 179.347 158.735 179.347H160.692V181H158.108ZM167.351 181.266C166.413 181.266 165.577 181.076 164.843 180.696C164.121 180.303 163.551 179.746 163.133 179.024C162.715 178.302 162.506 177.447 162.506 176.459V176.174C162.506 175.186 162.715 174.337 163.133 173.628C163.551 172.906 164.121 172.349 164.843 171.956C165.577 171.563 166.413 171.367 167.351 171.367C168.288 171.367 169.124 171.563 169.859 171.956C170.593 172.349 171.17 172.906 171.588 173.628C172.006 174.337 172.215 175.186 172.215 176.174V176.459C172.215 177.447 172.006 178.302 171.588 179.024C171.17 179.746 170.593 180.303 169.859 180.696C169.124 181.076 168.288 181.266 167.351 181.266ZM167.351 179.518C168.212 179.518 168.909 179.246 169.441 178.701C169.985 178.144 170.258 177.377 170.258 176.402V176.231C170.258 175.256 169.992 174.496 169.46 173.951C168.928 173.394 168.225 173.115 167.351 173.115C166.502 173.115 165.805 173.394 165.261 173.951C164.729 174.496 164.463 175.256 164.463 176.231V176.402C164.463 177.377 164.729 178.144 165.261 178.701C165.805 179.246 166.502 179.518 167.351 179.518ZM174.651 181V171.633H176.57V172.735H176.874C177.026 172.342 177.267 172.057 177.596 171.88C177.938 171.69 178.356 171.595 178.85 171.595H179.971V173.362H178.774C178.141 173.362 177.621 173.539 177.216 173.894C176.811 174.236 176.608 174.768 176.608 175.49V181H174.651ZM186.784 181V167.7H192.37C193.194 167.7 193.916 167.846 194.536 168.137C195.17 168.416 195.657 168.821 195.999 169.353C196.354 169.885 196.531 170.518 196.531 171.253V171.462C196.531 172.298 196.329 172.969 195.923 173.476C195.531 173.97 195.049 174.318 194.479 174.521V174.825C194.961 174.85 195.347 175.015 195.638 175.319C195.93 175.61 196.075 176.035 196.075 176.592V181H194.004V176.877C194.004 176.535 193.916 176.263 193.738 176.06C193.561 175.857 193.276 175.756 192.883 175.756H188.836V181H186.784ZM188.836 173.894H192.142C192.877 173.894 193.447 173.71 193.852 173.343C194.258 172.963 194.46 172.45 194.46 171.804V171.652C194.46 171.006 194.258 170.499 193.852 170.132C193.46 169.752 192.89 169.562 192.142 169.562H188.836V173.894ZM203.14 181.266C202.19 181.266 201.361 181.07 200.651 180.677C199.942 180.272 199.385 179.708 198.979 178.986C198.587 178.251 198.39 177.403 198.39 176.44V176.212C198.39 175.237 198.587 174.388 198.979 173.666C199.372 172.931 199.917 172.368 200.613 171.975C201.323 171.57 202.14 171.367 203.064 171.367C203.964 171.367 204.749 171.57 205.42 171.975C206.104 172.368 206.636 172.919 207.016 173.628C207.396 174.337 207.586 175.167 207.586 176.117V176.858H200.385C200.411 177.681 200.683 178.34 201.202 178.834C201.734 179.315 202.393 179.556 203.178 179.556C203.913 179.556 204.464 179.391 204.831 179.062C205.211 178.733 205.503 178.353 205.705 177.922L207.32 178.758C207.143 179.113 206.883 179.486 206.541 179.879C206.212 180.272 205.775 180.601 205.23 180.867C204.686 181.133 203.989 181.266 203.14 181.266ZM200.404 175.357H205.591C205.541 174.648 205.287 174.097 204.831 173.704C204.375 173.299 203.78 173.096 203.045 173.096C202.311 173.096 201.709 173.299 201.24 173.704C200.784 174.097 200.506 174.648 200.404 175.357ZM213.78 181.266C212.589 181.266 211.601 181 210.816 180.468C210.031 179.936 209.549 179.132 209.372 178.055L211.196 177.618C211.297 178.137 211.468 178.549 211.709 178.853C211.95 179.157 212.247 179.372 212.602 179.499C212.969 179.626 213.362 179.689 213.78 179.689C214.401 179.689 214.876 179.569 215.205 179.328C215.547 179.087 215.718 178.777 215.718 178.397C215.718 178.017 215.56 177.738 215.243 177.561C214.926 177.384 214.458 177.238 213.837 177.124L213.191 177.01C212.558 176.896 211.981 176.731 211.462 176.516C210.943 176.301 210.531 176.003 210.227 175.623C209.923 175.243 209.771 174.755 209.771 174.16C209.771 173.273 210.1 172.589 210.759 172.108C211.418 171.614 212.292 171.367 213.381 171.367C214.432 171.367 215.294 171.608 215.965 172.089C216.649 172.558 217.092 173.197 217.295 174.008L215.471 174.521C215.357 173.951 215.116 173.552 214.749 173.324C214.382 173.083 213.926 172.963 213.381 172.963C212.849 172.963 212.431 173.064 212.127 173.267C211.823 173.457 211.671 173.729 211.671 174.084C211.671 174.464 211.817 174.743 212.108 174.92C212.412 175.097 212.817 175.23 213.324 175.319L213.989 175.433C214.66 175.547 215.275 175.705 215.832 175.908C216.389 176.111 216.826 176.402 217.143 176.782C217.472 177.162 217.637 177.669 217.637 178.302C217.637 179.239 217.289 179.968 216.592 180.487C215.895 181.006 214.958 181.266 213.78 181.266ZM223.515 181.171C222.806 181.171 222.173 181.013 221.615 180.696C221.058 180.379 220.621 179.93 220.304 179.347C219.988 178.764 219.829 178.068 219.829 177.257V171.633H221.786V177.124C221.786 177.935 221.989 178.536 222.394 178.929C222.8 179.309 223.363 179.499 224.085 179.499C224.883 179.499 225.523 179.233 226.004 178.701C226.498 178.156 226.745 177.377 226.745 176.364V171.633H228.702V181H226.783V179.594H226.479C226.302 179.974 225.985 180.335 225.529 180.677C225.073 181.006 224.402 181.171 223.515 181.171ZM231.595 181V167.7H233.552V181H231.595ZM239.972 181C239.402 181 238.946 180.829 238.604 180.487C238.274 180.145 238.11 179.689 238.11 179.119V173.286H235.526V171.633H238.11V168.536H240.067V171.633H242.86V173.286H240.067V178.777C240.067 179.157 240.244 179.347 240.599 179.347H242.556V181H239.972ZM248.997 181.266C247.806 181.266 246.818 181 246.033 180.468C245.248 179.936 244.766 179.132 244.589 178.055L246.413 177.618C246.514 178.137 246.685 178.549 246.926 178.853C247.167 179.157 247.464 179.372 247.819 179.499C248.186 179.626 248.579 179.689 248.997 179.689C249.618 179.689 250.093 179.569 250.422 179.328C250.764 179.087 250.935 178.777 250.935 178.397C250.935 178.017 250.777 177.738 250.46 177.561C250.143 177.384 249.675 177.238 249.054 177.124L248.408 177.01C247.775 176.896 247.198 176.731 246.679 176.516C246.16 176.301 245.748 176.003 245.444 175.623C245.14 175.243 244.988 174.755 244.988 174.16C244.988 173.273 245.317 172.589 245.976 172.108C246.635 171.614 247.509 171.367 248.598 171.367C249.649 171.367 250.511 171.608 251.182 172.089C251.866 172.558 252.309 173.197 252.512 174.008L250.688 174.521C250.574 173.951 250.333 173.552 249.966 173.324C249.599 173.083 249.143 172.963 248.598 172.963C248.066 172.963 247.648 173.064 247.344 173.267C247.04 173.457 246.888 173.729 246.888 174.084C246.888 174.464 247.034 174.743 247.325 174.92C247.629 175.097 248.034 175.23 248.541 175.319L249.206 175.433C249.877 175.547 250.492 175.705 251.049 175.908C251.606 176.111 252.043 176.402 252.36 176.782C252.689 177.162 252.854 177.669 252.854 178.302C252.854 179.239 252.506 179.968 251.809 180.487C251.112 181.006 250.175 181.266 248.997 181.266Z" fill="white"/>
<path d="M152.454 112.319C151.222 112.319 150.136 112.099 149.193 111.658C148.251 111.217 147.514 110.586 146.982 109.766C146.45 108.945 146.184 107.957 146.184 106.802V106.163H149.148V106.802C149.148 107.759 149.444 108.481 150.037 108.968C150.63 109.439 151.435 109.674 152.454 109.674C153.487 109.674 154.255 109.469 154.756 109.059C155.273 108.648 155.532 108.124 155.532 107.486C155.532 107.045 155.402 106.688 155.144 106.414C154.901 106.14 154.536 105.92 154.05 105.753C153.578 105.57 153.001 105.403 152.317 105.251L151.792 105.137C150.698 104.894 149.756 104.59 148.965 104.225C148.19 103.845 147.59 103.351 147.164 102.743C146.754 102.135 146.548 101.345 146.548 100.372C146.548 99.3992 146.776 98.5708 147.232 97.8868C147.704 97.1876 148.357 96.6556 149.193 96.2908C150.044 95.9108 151.04 95.7208 152.18 95.7208C153.32 95.7208 154.331 95.9184 155.212 96.3136C156.109 96.6936 156.808 97.2712 157.31 98.0464C157.827 98.8064 158.085 99.764 158.085 100.919V101.603H155.121V100.919C155.121 100.311 155 99.8248 154.756 99.46C154.528 99.08 154.194 98.8064 153.753 98.6392C153.312 98.4568 152.788 98.3656 152.18 98.3656C151.268 98.3656 150.592 98.5404 150.151 98.89C149.725 99.2244 149.512 99.688 149.512 100.281C149.512 100.676 149.611 101.01 149.809 101.284C150.022 101.558 150.333 101.786 150.744 101.968C151.154 102.15 151.678 102.31 152.317 102.447L152.841 102.561C153.981 102.804 154.969 103.116 155.805 103.496C156.656 103.876 157.318 104.377 157.789 105C158.26 105.624 158.496 106.422 158.496 107.394C158.496 108.367 158.245 109.226 157.743 109.971C157.257 110.7 156.558 111.278 155.646 111.704C154.749 112.114 153.685 112.319 152.454 112.319ZM165.163 112C164.419 112 163.811 111.772 163.339 111.316C162.883 110.845 162.655 110.222 162.655 109.446V103.062H159.828V100.691H162.655V97.18H165.528V100.691H168.629V103.062H165.528V108.945C165.528 109.401 165.741 109.629 166.167 109.629H168.355V112H165.163ZM175.981 112.319C174.857 112.319 173.861 112.084 172.995 111.612C172.143 111.126 171.475 110.45 170.988 109.583C170.517 108.702 170.281 107.668 170.281 106.482V106.209C170.281 105.023 170.517 103.997 170.988 103.131C171.459 102.249 172.121 101.573 172.972 101.102C173.823 100.615 174.811 100.372 175.936 100.372C177.045 100.372 178.011 100.623 178.831 101.124C179.652 101.611 180.291 102.295 180.747 103.176C181.203 104.043 181.431 105.054 181.431 106.209V107.189H173.2C173.23 107.964 173.519 108.595 174.066 109.082C174.613 109.568 175.282 109.811 176.073 109.811C176.878 109.811 177.471 109.636 177.851 109.287C178.231 108.937 178.52 108.55 178.717 108.124L181.066 109.355C180.853 109.75 180.541 110.184 180.131 110.655C179.736 111.111 179.204 111.506 178.535 111.84C177.866 112.16 177.015 112.319 175.981 112.319ZM173.223 105.046H178.512C178.451 104.392 178.185 103.868 177.714 103.473C177.258 103.078 176.658 102.88 175.913 102.88C175.138 102.88 174.522 103.078 174.066 103.473C173.61 103.868 173.329 104.392 173.223 105.046ZM183.988 116.56V100.691H186.815V102.059H187.225C187.484 101.618 187.886 101.231 188.434 100.896C188.981 100.547 189.764 100.372 190.782 100.372C191.694 100.372 192.538 100.6 193.313 101.056C194.088 101.497 194.711 102.15 195.182 103.017C195.654 103.883 195.889 104.932 195.889 106.163V106.528C195.889 107.759 195.654 108.808 195.182 109.674C194.711 110.541 194.088 111.202 193.313 111.658C192.538 112.099 191.694 112.319 190.782 112.319C190.098 112.319 189.52 112.236 189.049 112.068C188.593 111.916 188.221 111.719 187.932 111.476C187.658 111.217 187.438 110.959 187.271 110.7H186.86V116.56H183.988ZM189.916 109.811C190.812 109.811 191.55 109.53 192.127 108.968C192.72 108.39 193.016 107.554 193.016 106.46V106.232C193.016 105.137 192.72 104.309 192.127 103.746C191.534 103.169 190.797 102.88 189.916 102.88C189.034 102.88 188.297 103.169 187.704 103.746C187.111 104.309 186.815 105.137 186.815 106.232V106.46C186.815 107.554 187.111 108.39 187.704 108.968C188.297 109.53 189.034 109.811 189.916 109.811ZM209.651 112.319C208.451 112.319 207.387 112.106 206.459 111.681C205.532 111.255 204.803 110.647 204.271 109.857C203.754 109.051 203.495 108.101 203.495 107.007V106.596H206.414V106.916C206.414 107.767 206.71 108.451 207.303 108.968C207.896 109.469 208.679 109.72 209.651 109.72C210.639 109.72 211.399 109.484 211.931 109.013C212.479 108.542 212.752 107.949 212.752 107.235V107.007C212.752 106.52 212.631 106.125 212.387 105.821C212.144 105.517 211.817 105.297 211.407 105.16C210.997 105.008 210.533 104.932 210.016 104.932H206.824V101.74L211.977 99.004V98.6392H203.906V96.04H215.215V99.916L210.404 102.47V102.834H211.247C211.962 102.834 212.653 102.979 213.322 103.268C214.006 103.556 214.569 104.005 215.009 104.613C215.45 105.206 215.671 105.981 215.671 106.938V107.212C215.671 108.246 215.42 109.15 214.918 109.925C214.417 110.685 213.71 111.278 212.798 111.704C211.901 112.114 210.852 112.319 209.651 112.319Z" fill="white"/>
<path d="M164.2 283.4V277.8L167 275H158.6C157.06 275 155.742 274.452 154.646 273.356C153.551 272.261 153.002 270.942 153 269.4V238.6C153 237.06 153.549 235.742 154.646 234.646C155.744 233.551 157.062 233.002 158.6 233H203.4C204.94 233 206.259 233.549 207.356 234.646C208.454 235.744 209.002 237.062 209 238.6V269.4C209 270.94 208.452 272.259 207.356 273.356C206.261 274.454 204.942 275.002 203.4 275H195L197.8 277.8V283.4H164.2Z" fill="white"/>
</svg>
