<svg width="362" height="362" viewBox="0 0 362 362" fill="none" xmlns="http://www.w3.org/2000/svg">
<path d="M91.306 336.026L1.73205 180.88L91.306 25.7331L270.454 25.7331L360.028 180.88L270.454 336.026L91.306 336.026Z" stroke="#0072D8" stroke-width="3"/>
<path d="M64.1998 181.266C63.2498 181.266 62.4011 181.063 61.6538 180.658C60.9065 180.24 60.3175 179.632 59.8868 178.834C59.4561 178.036 59.2408 177.061 59.2408 175.908V172.792C59.2408 171.057 59.7158 169.733 60.6658 168.821C61.6158 167.896 62.9015 167.434 64.5228 167.434C66.1188 167.434 67.3475 167.871 68.2088 168.745C69.0701 169.606 69.5008 170.765 69.5008 172.222V172.317H67.4678V172.165C67.4678 171.62 67.3601 171.133 67.1448 170.702C66.9295 170.259 66.6065 169.91 66.1758 169.657C65.7451 169.404 65.1941 169.277 64.5228 169.277C63.5095 169.277 62.7178 169.587 62.1478 170.208C61.5778 170.816 61.2928 171.665 61.2928 172.754V175.946C61.2928 177.023 61.5778 177.878 62.1478 178.511C62.7178 179.132 63.5158 179.442 64.5418 179.442C65.5551 179.442 66.2961 179.163 66.7648 178.606C67.2335 178.049 67.4678 177.327 67.4678 176.44V176.193H63.8958V174.426H69.5008V181H67.6008V179.651H67.2968C67.1828 179.892 67.0118 180.139 66.7838 180.392C66.5685 180.645 66.2518 180.854 65.8338 181.019C65.4285 181.184 64.8838 181.266 64.1998 181.266ZM76.4953 181.266C75.5453 181.266 74.7157 181.07 74.0063 180.677C73.297 180.272 72.7397 179.708 72.3343 178.986C71.9417 178.251 71.7453 177.403 71.7453 176.44V176.212C71.7453 175.237 71.9417 174.388 72.3343 173.666C72.727 172.931 73.2717 172.368 73.9683 171.975C74.6777 171.57 75.4947 171.367 76.4193 171.367C77.3187 171.367 78.104 171.57 78.7753 171.975C79.4593 172.368 79.9913 172.919 80.3713 173.628C80.7513 174.337 80.9413 175.167 80.9413 176.117V176.858H73.7403C73.7657 177.681 74.038 178.34 74.5573 178.834C75.0893 179.315 75.748 179.556 76.5333 179.556C77.268 179.556 77.819 179.391 78.1863 179.062C78.5663 178.733 78.8577 178.353 79.0603 177.922L80.6753 178.758C80.498 179.113 80.2383 179.486 79.8963 179.879C79.567 180.272 79.13 180.601 78.5853 180.867C78.0407 181.133 77.344 181.266 76.4953 181.266ZM73.7593 175.357H78.9463C78.8957 174.648 78.6423 174.097 78.1863 173.704C77.7303 173.299 77.135 173.096 76.4003 173.096C75.6657 173.096 75.064 173.299 74.5953 173.704C74.1393 174.097 73.8607 174.648 73.7593 175.357ZM83.297 181V171.633H85.216V173.039H85.52C85.6974 172.659 86.014 172.304 86.47 171.975C86.926 171.646 87.6037 171.481 88.503 171.481C89.2124 171.481 89.8394 171.639 90.384 171.956C90.9414 172.273 91.3784 172.722 91.695 173.305C92.0117 173.875 92.17 174.565 92.17 175.376V181H90.213V175.528C90.213 174.717 90.0104 174.122 89.605 173.742C89.1997 173.349 88.6424 173.153 87.933 173.153C87.1224 173.153 86.47 173.419 85.976 173.951C85.4947 174.483 85.254 175.256 85.254 176.269V181H83.297ZM99.2805 181.266C98.3305 181.266 97.5008 181.07 96.7915 180.677C96.0821 180.272 95.5248 179.708 95.1195 178.986C94.7268 178.251 94.5305 177.403 94.5305 176.44V176.212C94.5305 175.237 94.7268 174.388 95.1195 173.666C95.5121 172.931 96.0568 172.368 96.7535 171.975C97.4628 171.57 98.2798 171.367 99.2045 171.367C100.104 171.367 100.889 171.57 101.56 171.975C102.244 172.368 102.776 172.919 103.156 173.628C103.536 174.337 103.726 175.167 103.726 176.117V176.858H96.5255C96.5508 177.681 96.8231 178.34 97.3425 178.834C97.8745 179.315 98.5331 179.556 99.3185 179.556C100.053 179.556 100.604 179.391 100.971 179.062C101.351 178.733 101.643 178.353 101.845 177.922L103.46 178.758C103.283 179.113 103.023 179.486 102.681 179.879C102.352 180.272 101.915 180.601 101.37 180.867C100.826 181.133 100.129 181.266 99.2805 181.266ZM96.5445 175.357H101.731C101.681 174.648 101.427 174.097 100.971 173.704C100.515 173.299 99.9201 173.096 99.1855 173.096C98.4508 173.096 97.8491 173.299 97.3805 173.704C96.9245 174.097 96.6458 174.648 96.5445 175.357ZM106.082 181V171.633H108.001V172.735H108.305C108.457 172.342 108.698 172.057 109.027 171.88C109.369 171.69 109.787 171.595 110.281 171.595H111.402V173.362H110.205C109.572 173.362 109.053 173.539 108.647 173.894C108.242 174.236 108.039 174.768 108.039 175.49V181H106.082ZM116.077 181.266C115.406 181.266 114.804 181.152 114.272 180.924C113.753 180.696 113.335 180.36 113.018 179.917C112.714 179.474 112.562 178.935 112.562 178.302C112.562 177.656 112.714 177.124 113.018 176.706C113.335 176.275 113.759 175.952 114.291 175.737C114.836 175.522 115.45 175.414 116.134 175.414H118.984V174.806C118.984 174.261 118.819 173.824 118.49 173.495C118.161 173.166 117.654 173.001 116.97 173.001C116.299 173.001 115.786 173.159 115.431 173.476C115.076 173.793 114.842 174.204 114.728 174.711L112.904 174.122C113.056 173.615 113.297 173.159 113.626 172.754C113.968 172.336 114.418 172 114.975 171.747C115.532 171.494 116.204 171.367 116.989 171.367C118.205 171.367 119.161 171.677 119.858 172.298C120.555 172.919 120.903 173.799 120.903 174.939V178.796C120.903 179.176 121.08 179.366 121.435 179.366H122.233V181H120.77C120.327 181 119.966 180.886 119.687 180.658C119.408 180.43 119.269 180.12 119.269 179.727V179.67H118.984C118.883 179.86 118.731 180.082 118.528 180.335C118.325 180.588 118.028 180.81 117.635 181C117.242 181.177 116.723 181.266 116.077 181.266ZM116.362 179.651C117.147 179.651 117.781 179.429 118.262 178.986C118.743 178.53 118.984 177.909 118.984 177.124V176.934H116.248C115.729 176.934 115.311 177.048 114.994 177.276C114.677 177.491 114.519 177.814 114.519 178.245C114.519 178.676 114.684 179.018 115.013 179.271C115.342 179.524 115.792 179.651 116.362 179.651ZM127.001 181C126.431 181 125.975 180.829 125.633 180.487C125.304 180.145 125.139 179.689 125.139 179.119V173.286H122.555V171.633H125.139V168.536H127.096V171.633H129.889V173.286H127.096V178.777C127.096 179.157 127.274 179.347 127.628 179.347H129.585V181H127.001ZM136.149 181.266C135.199 181.266 134.369 181.07 133.66 180.677C132.95 180.272 132.393 179.708 131.988 178.986C131.595 178.251 131.399 177.403 131.399 176.44V176.212C131.399 175.237 131.595 174.388 131.988 173.666C132.38 172.931 132.925 172.368 133.622 171.975C134.331 171.57 135.148 171.367 136.073 171.367C136.972 171.367 137.757 171.57 138.429 171.975C139.113 172.368 139.645 172.919 140.025 173.628C140.405 174.337 140.595 175.167 140.595 176.117V176.858H133.394C133.419 177.681 133.691 178.34 134.211 178.834C134.743 179.315 135.401 179.556 136.187 179.556C136.921 179.556 137.472 179.391 137.84 179.062C138.22 178.733 138.511 178.353 138.714 177.922L140.329 178.758C140.151 179.113 139.892 179.486 139.55 179.879C139.22 180.272 138.783 180.601 138.239 180.867C137.694 181.133 136.997 181.266 136.149 181.266ZM133.413 175.357H138.6C138.549 174.648 138.296 174.097 137.84 173.704C137.384 173.299 136.788 173.096 136.054 173.096C135.319 173.096 134.717 173.299 134.249 173.704C133.793 174.097 133.514 174.648 133.413 175.357ZM153.719 184.8V183.09H158.944C159.299 183.09 159.476 182.9 159.476 182.52V179.632H159.172C159.058 179.885 158.881 180.132 158.64 180.373C158.412 180.601 158.102 180.791 157.709 180.943C157.316 181.095 156.822 181.171 156.227 181.171C155.518 181.171 154.884 181.013 154.327 180.696C153.77 180.379 153.333 179.93 153.016 179.347C152.699 178.764 152.541 178.074 152.541 177.276V171.633H154.498V177.124C154.498 177.935 154.701 178.536 155.106 178.929C155.511 179.309 156.075 179.499 156.797 179.499C157.595 179.499 158.235 179.233 158.716 178.701C159.21 178.169 159.457 177.396 159.457 176.383V171.633H161.414V182.919C161.414 183.489 161.243 183.945 160.901 184.287C160.572 184.629 160.116 184.8 159.533 184.8H153.719ZM168.696 181.266C167.758 181.266 166.922 181.076 166.188 180.696C165.466 180.303 164.896 179.746 164.478 179.024C164.06 178.302 163.851 177.447 163.851 176.459V176.174C163.851 175.186 164.06 174.337 164.478 173.628C164.896 172.906 165.466 172.349 166.188 171.956C166.922 171.563 167.758 171.367 168.696 171.367C169.633 171.367 170.469 171.563 171.204 171.956C171.938 172.349 172.515 172.906 172.933 173.628C173.351 174.337 173.56 175.186 173.56 176.174V176.459C173.56 177.447 173.351 178.302 172.933 179.024C172.515 179.746 171.938 180.303 171.204 180.696C170.469 181.076 169.633 181.266 168.696 181.266ZM168.696 179.518C169.557 179.518 170.254 179.246 170.786 178.701C171.33 178.144 171.603 177.377 171.603 176.402V176.231C171.603 175.256 171.337 174.496 170.805 173.951C170.273 173.394 169.57 173.115 168.696 173.115C167.847 173.115 167.15 173.394 166.606 173.951C166.074 174.496 165.808 175.256 165.808 176.231V176.402C165.808 177.377 166.074 178.144 166.606 178.701C167.15 179.246 167.847 179.518 168.696 179.518ZM179.587 181.171C178.878 181.171 178.245 181.013 177.687 180.696C177.13 180.379 176.693 179.93 176.376 179.347C176.06 178.764 175.901 178.068 175.901 177.257V171.633H177.858V177.124C177.858 177.935 178.061 178.536 178.466 178.929C178.872 179.309 179.435 179.499 180.157 179.499C180.955 179.499 181.595 179.233 182.076 178.701C182.57 178.156 182.817 177.377 182.817 176.364V171.633H184.774V181H182.855V179.594H182.551C182.374 179.974 182.057 180.335 181.601 180.677C181.145 181.006 180.474 181.171 179.587 181.171ZM187.667 181V171.633H189.586V172.735H189.89C190.042 172.342 190.283 172.057 190.612 171.88C190.954 171.69 191.372 171.595 191.866 171.595H192.987V173.362H191.79C191.157 173.362 190.637 173.539 190.232 173.894C189.827 174.236 189.624 174.768 189.624 175.49V181H187.667ZM202.765 181.266C202.093 181.266 201.492 181.152 200.96 180.924C200.44 180.696 200.022 180.36 199.706 179.917C199.402 179.474 199.25 178.935 199.25 178.302C199.25 177.656 199.402 177.124 199.706 176.706C200.022 176.275 200.447 175.952 200.979 175.737C201.523 175.522 202.138 175.414 202.822 175.414H205.672V174.806C205.672 174.261 205.507 173.824 205.178 173.495C204.848 173.166 204.342 173.001 203.658 173.001C202.986 173.001 202.473 173.159 202.119 173.476C201.764 173.793 201.53 174.204 201.416 174.711L199.592 174.122C199.744 173.615 199.984 173.159 200.314 172.754C200.656 172.336 201.105 172 201.663 171.747C202.22 171.494 202.891 171.367 203.677 171.367C204.893 171.367 205.849 171.677 206.546 172.298C207.242 172.919 207.591 173.799 207.591 174.939V178.796C207.591 179.176 207.768 179.366 208.123 179.366H208.921V181H207.458C207.014 181 206.653 180.886 206.375 180.658C206.096 180.43 205.957 180.12 205.957 179.727V179.67H205.672C205.57 179.86 205.418 180.082 205.216 180.335C205.013 180.588 204.715 180.81 204.323 181C203.93 181.177 203.411 181.266 202.765 181.266ZM203.05 179.651C203.835 179.651 204.468 179.429 204.95 178.986C205.431 178.53 205.672 177.909 205.672 177.124V176.934H202.936C202.416 176.934 201.998 177.048 201.682 177.276C201.365 177.491 201.207 177.814 201.207 178.245C201.207 178.676 201.371 179.018 201.701 179.271C202.03 179.524 202.48 179.651 203.05 179.651ZM218.021 181V173.286H215.931V171.633H218.021V169.581C218.021 169.011 218.186 168.555 218.515 168.213C218.857 167.871 219.319 167.7 219.902 167.7H222.182V169.353H220.529C220.162 169.353 219.978 169.543 219.978 169.923V171.633H224.177V173.286H219.978V181H218.021ZM211.865 181V173.286H209.243V171.633H211.865V169.581C211.865 169.011 212.036 168.555 212.378 168.213C212.72 167.871 213.176 167.7 213.746 167.7H216.159V169.353H214.373C214.006 169.353 213.822 169.543 213.822 169.923V171.633H215.931V173.286H213.822V181H211.865ZM224.177 181V171.633H226.134V181H224.177ZM225.165 170.417C224.785 170.417 224.462 170.297 224.196 170.056C223.943 169.803 223.816 169.48 223.816 169.087C223.816 168.682 223.943 168.359 224.196 168.118C224.462 167.877 224.785 167.757 225.165 167.757C225.545 167.757 225.862 167.877 226.115 168.118C226.368 168.359 226.495 168.682 226.495 169.087C226.495 169.48 226.368 169.803 226.115 170.056C225.862 170.297 225.545 170.417 225.165 170.417ZM229.026 181V167.7H230.983V181H229.026ZM233.887 181V171.633H235.844V181H233.887ZM234.875 170.36C234.495 170.36 234.172 170.24 233.906 169.999C233.653 169.746 233.526 169.423 233.526 169.03C233.526 168.637 233.653 168.321 233.906 168.08C234.172 167.827 234.495 167.7 234.875 167.7C235.268 167.7 235.591 167.827 235.844 168.08C236.097 168.321 236.224 168.637 236.224 169.03C236.224 169.423 236.097 169.746 235.844 169.999C235.591 170.24 235.268 170.36 234.875 170.36ZM241.655 181.266C240.984 181.266 240.382 181.152 239.85 180.924C239.331 180.696 238.913 180.36 238.596 179.917C238.292 179.474 238.14 178.935 238.14 178.302C238.14 177.656 238.292 177.124 238.596 176.706C238.913 176.275 239.337 175.952 239.869 175.737C240.414 175.522 241.028 175.414 241.712 175.414H244.562V174.806C244.562 174.261 244.398 173.824 244.068 173.495C243.739 173.166 243.232 173.001 242.548 173.001C241.877 173.001 241.364 173.159 241.009 173.476C240.655 173.793 240.42 174.204 240.306 174.711L238.482 174.122C238.634 173.615 238.875 173.159 239.204 172.754C239.546 172.336 239.996 172 240.553 171.747C241.111 171.494 241.782 171.367 242.567 171.367C243.783 171.367 244.74 171.677 245.436 172.298C246.133 172.919 246.481 173.799 246.481 174.939V178.796C246.481 179.176 246.659 179.366 247.013 179.366H247.811V181H246.348C245.905 181 245.544 180.886 245.265 180.658C244.987 180.43 244.847 180.12 244.847 179.727V179.67H244.562C244.461 179.86 244.309 180.082 244.106 180.335C243.904 180.588 243.606 180.81 243.213 181C242.821 181.177 242.301 181.266 241.655 181.266ZM241.94 179.651C242.726 179.651 243.359 179.429 243.84 178.986C244.322 178.53 244.562 177.909 244.562 177.124V176.934H241.826C241.307 176.934 240.889 177.048 240.572 177.276C240.256 177.491 240.097 177.814 240.097 178.245C240.097 178.676 240.262 179.018 240.591 179.271C240.921 179.524 241.37 179.651 241.94 179.651ZM252.58 181C252.01 181 251.554 180.829 251.212 180.487C250.882 180.145 250.718 179.689 250.718 179.119V173.286H248.134V171.633H250.718V168.536H252.675V171.633H255.468V173.286H252.675V178.777C252.675 179.157 252.852 179.347 253.207 179.347H255.164V181H252.58ZM261.727 181.266C260.777 181.266 259.947 181.07 259.238 180.677C258.528 180.272 257.971 179.708 257.566 178.986C257.173 178.251 256.977 177.403 256.977 176.44V176.212C256.977 175.237 257.173 174.388 257.566 173.666C257.958 172.931 258.503 172.368 259.2 171.975C259.909 171.57 260.726 171.367 261.651 171.367C262.55 171.367 263.335 171.57 264.007 171.975C264.691 172.368 265.223 172.919 265.603 173.628C265.983 174.337 266.173 175.167 266.173 176.117V176.858H258.972C258.997 177.681 259.269 178.34 259.789 178.834C260.321 179.315 260.979 179.556 261.765 179.556C262.499 179.556 263.05 179.391 263.418 179.062C263.798 178.733 264.089 178.353 264.292 177.922L265.907 178.758C265.729 179.113 265.47 179.486 265.128 179.879C264.798 180.272 264.361 180.601 263.817 180.867C263.272 181.133 262.575 181.266 261.727 181.266ZM258.991 175.357H264.178C264.127 174.648 263.874 174.097 263.418 173.704C262.962 173.299 262.366 173.096 261.632 173.096C260.897 173.096 260.295 173.299 259.827 173.704C259.371 174.097 259.092 174.648 258.991 175.357ZM273.371 181V167.7H275.328V181H273.371ZM278.233 181V171.633H280.19V181H278.233ZM279.221 170.36C278.841 170.36 278.518 170.24 278.252 169.999C277.998 169.746 277.872 169.423 277.872 169.03C277.872 168.637 277.998 168.321 278.252 168.08C278.518 167.827 278.841 167.7 279.221 167.7C279.613 167.7 279.936 167.827 280.19 168.08C280.443 168.321 280.57 168.637 280.57 169.03C280.57 169.423 280.443 169.746 280.19 169.999C279.936 170.24 279.613 170.36 279.221 170.36ZM283.094 181V171.633H285.013V173.039H285.317C285.494 172.659 285.811 172.304 286.267 171.975C286.723 171.646 287.401 171.481 288.3 171.481C289.009 171.481 289.636 171.639 290.181 171.956C290.738 172.273 291.175 172.722 291.492 173.305C291.809 173.875 291.967 174.565 291.967 175.376V181H290.01V175.528C290.01 174.717 289.807 174.122 289.402 173.742C288.997 173.349 288.439 173.153 287.73 173.153C286.919 173.153 286.267 173.419 285.773 173.951C285.292 174.483 285.051 175.256 285.051 176.269V181H283.094ZM294.783 181V167.7H296.74V175.281H297.044L300.73 171.633H303.333L298.602 176.174L303.485 181H300.901L297.044 177.105H296.74V181H294.783Z" fill="white"/>
<path d="M154.235 112.319C153.004 112.319 151.917 112.099 150.974 111.658C150.032 111.217 149.295 110.586 148.763 109.766C148.231 108.945 147.965 107.957 147.965 106.802V106.163H150.929V106.802C150.929 107.759 151.225 108.481 151.818 108.968C152.411 109.439 153.216 109.674 154.235 109.674C155.268 109.674 156.036 109.469 156.538 109.059C157.054 108.648 157.313 108.124 157.313 107.486C157.313 107.045 157.184 106.688 156.925 106.414C156.682 106.14 156.317 105.92 155.831 105.753C155.36 105.57 154.782 105.403 154.098 105.251L153.574 105.137C152.479 104.894 151.537 104.59 150.746 104.225C149.971 103.845 149.371 103.351 148.945 102.743C148.535 102.135 148.33 101.345 148.33 100.372C148.33 99.3992 148.558 98.5708 149.014 97.8868C149.485 97.1876 150.138 96.6556 150.974 96.2908C151.826 95.9108 152.821 95.7208 153.961 95.7208C155.101 95.7208 156.112 95.9184 156.994 96.3136C157.89 96.6936 158.59 97.2712 159.091 98.0464C159.608 98.8064 159.866 99.764 159.866 100.919V101.603H156.902V100.919C156.902 100.311 156.781 99.8248 156.538 99.46C156.31 99.08 155.975 98.8064 155.534 98.6392C155.094 98.4568 154.569 98.3656 153.961 98.3656C153.049 98.3656 152.373 98.5404 151.932 98.89C151.506 99.2244 151.294 99.688 151.294 100.281C151.294 100.676 151.392 101.01 151.59 101.284C151.803 101.558 152.114 101.786 152.525 101.968C152.935 102.15 153.46 102.31 154.098 102.447L154.622 102.561C155.762 102.804 156.75 103.116 157.586 103.496C158.438 103.876 159.099 104.377 159.57 105C160.041 105.624 160.277 106.422 160.277 107.394C160.277 108.367 160.026 109.226 159.524 109.971C159.038 110.7 158.339 111.278 157.427 111.704C156.53 112.114 155.466 112.319 154.235 112.319ZM166.945 112C166.2 112 165.592 111.772 165.121 111.316C164.665 110.845 164.437 110.222 164.437 109.446V103.062H161.609V100.691H164.437V97.18H167.309V100.691H170.41V103.062H167.309V108.945C167.309 109.401 167.522 109.629 167.948 109.629H170.137V112H166.945ZM177.763 112.319C176.638 112.319 175.642 112.084 174.776 111.612C173.925 111.126 173.256 110.45 172.769 109.583C172.298 108.702 172.063 107.668 172.063 106.482V106.209C172.063 105.023 172.298 103.997 172.769 103.131C173.241 102.249 173.902 101.573 174.753 101.102C175.604 100.615 176.592 100.372 177.717 100.372C178.827 100.372 179.792 100.623 180.613 101.124C181.433 101.611 182.072 102.295 182.528 103.176C182.984 104.043 183.212 105.054 183.212 106.209V107.189H174.981C175.011 107.964 175.3 108.595 175.847 109.082C176.395 109.568 177.063 109.811 177.854 109.811C178.659 109.811 179.252 109.636 179.632 109.287C180.012 108.937 180.301 108.55 180.499 108.124L182.847 109.355C182.634 109.75 182.323 110.184 181.912 110.655C181.517 111.111 180.985 111.506 180.316 111.84C179.647 112.16 178.796 112.319 177.763 112.319ZM175.004 105.046H180.293C180.233 104.392 179.967 103.868 179.495 103.473C179.039 103.078 178.439 102.88 177.694 102.88C176.919 102.88 176.303 103.078 175.847 103.473C175.391 103.868 175.11 104.392 175.004 105.046ZM185.769 116.56V100.691H188.596V102.059H189.006C189.265 101.618 189.668 101.231 190.215 100.896C190.762 100.547 191.545 100.372 192.563 100.372C193.475 100.372 194.319 100.6 195.094 101.056C195.869 101.497 196.492 102.15 196.964 103.017C197.435 103.883 197.67 104.932 197.67 106.163V106.528C197.67 107.759 197.435 108.808 196.964 109.674C196.492 110.541 195.869 111.202 195.094 111.658C194.319 112.099 193.475 112.319 192.563 112.319C191.879 112.319 191.302 112.236 190.83 112.068C190.374 111.916 190.002 111.719 189.713 111.476C189.44 111.217 189.219 110.959 189.052 110.7H188.642V116.56H185.769ZM191.697 109.811C192.594 109.811 193.331 109.53 193.908 108.968C194.501 108.39 194.798 107.554 194.798 106.46V106.232C194.798 105.137 194.501 104.309 193.908 103.746C193.316 103.169 192.578 102.88 191.697 102.88C190.815 102.88 190.078 103.169 189.485 103.746C188.892 104.309 188.596 105.137 188.596 106.232V106.46C188.596 107.554 188.892 108.39 189.485 108.968C190.078 109.53 190.815 109.811 191.697 109.811ZM210.384 112V98.1832H209.973L207.83 103.245H204.775L208.035 96.04H213.302V112H210.384Z" fill="white"/>
<path d="M183.347 277.667C183.661 277.98 183.909 278.35 184.079 278.759C184.248 279.167 184.335 279.605 184.335 280.047C184.335 280.489 184.248 280.927 184.079 281.335C183.909 281.744 183.661 282.115 183.347 282.427L181.684 284.09C178.533 287.241 174.259 289.011 169.803 289.011C165.347 289.011 161.073 287.241 157.921 284.09C154.77 280.939 153 276.665 153 272.208C153 267.752 154.77 263.478 157.921 260.327L164.674 253.577C167.702 250.542 171.775 248.779 176.061 248.65C180.346 248.521 184.518 250.035 187.723 252.883C188.054 253.177 188.324 253.533 188.517 253.932C188.71 254.33 188.823 254.762 188.849 255.204C188.875 255.646 188.813 256.089 188.668 256.507C188.523 256.926 188.297 257.311 188.003 257.642C187.709 257.973 187.353 258.243 186.954 258.436C186.556 258.629 186.123 258.742 185.681 258.768C185.239 258.794 184.797 258.732 184.378 258.587C183.96 258.442 183.575 258.216 183.244 257.922C181.322 256.215 178.821 255.307 176.251 255.384C173.682 255.46 171.239 256.515 169.422 258.333L162.675 265.075C160.785 266.965 159.723 269.529 159.723 272.203C159.723 274.876 160.785 277.44 162.675 279.33C164.566 281.221 167.13 282.283 169.803 282.283C172.476 282.283 175.04 281.221 176.931 279.33L178.594 277.667C178.906 277.355 179.276 277.107 179.684 276.938C180.092 276.769 180.529 276.682 180.971 276.682C181.412 276.682 181.849 276.769 182.257 276.938C182.665 277.107 183.035 277.355 183.347 277.667ZM204.087 237.913C200.933 234.767 196.66 233 192.205 233C187.75 233 183.478 234.767 180.324 237.913L178.661 239.576C178.03 240.207 177.675 241.063 177.675 241.956C177.675 242.848 178.03 243.704 178.661 244.336C179.292 244.967 180.148 245.321 181.04 245.321C181.933 245.321 182.789 244.967 183.42 244.336L185.083 242.673C186.974 240.782 189.537 239.72 192.211 239.72C194.884 239.72 197.448 240.782 199.339 242.673C201.229 244.563 202.291 247.127 202.291 249.8C202.291 252.474 201.229 255.038 199.339 256.928L192.589 263.681C190.77 265.498 188.326 266.552 185.756 266.626C183.186 266.701 180.685 265.79 178.764 264.081C178.434 263.787 178.048 263.561 177.63 263.416C177.211 263.271 176.769 263.209 176.327 263.235C175.885 263.261 175.452 263.374 175.054 263.567C174.656 263.76 174.299 264.03 174.005 264.361C173.711 264.692 173.485 265.077 173.34 265.496C173.195 265.914 173.133 266.357 173.159 266.799C173.185 267.241 173.298 267.673 173.491 268.071C173.684 268.47 173.954 268.826 174.285 269.12C177.488 271.967 181.657 273.482 185.941 273.356C190.224 273.229 194.297 271.471 197.326 268.44L204.078 261.69C207.228 258.537 208.998 254.263 209 249.806C209.002 245.349 207.234 241.074 204.087 237.919V237.913Z" fill="white"/>
</svg>
