<svg width="362" height="362" viewBox="0 0 362 362" fill="none" xmlns="http://www.w3.org/2000/svg">
<path d="M91.306 336.026L1.73205 180.88L91.306 25.7331L270.454 25.7331L360.028 180.88L270.454 336.026L91.306 336.026Z" stroke="#0072D8" stroke-width="3"/>
<path d="M108.855 181V167.7H114.441C115.264 167.7 115.986 167.846 116.607 168.137C117.24 168.416 117.728 168.821 118.07 169.353C118.424 169.885 118.602 170.518 118.602 171.253V171.462C118.602 172.298 118.399 172.969 117.994 173.476C117.601 173.97 117.12 174.318 116.55 174.521V174.825C117.031 174.85 117.417 175.015 117.709 175.319C118 175.61 118.146 176.035 118.146 176.592V181H116.075V176.877C116.075 176.535 115.986 176.263 115.809 176.06C115.631 175.857 115.346 175.756 114.954 175.756H110.907V181H108.855ZM110.907 173.894H114.213C114.947 173.894 115.517 173.71 115.923 173.343C116.328 172.963 116.531 172.45 116.531 171.804V171.652C116.531 171.006 116.328 170.499 115.923 170.132C115.53 169.752 114.96 169.562 114.213 169.562H110.907V173.894ZM125.211 181.266C124.261 181.266 123.431 181.07 122.722 180.677C122.012 180.272 121.455 179.708 121.05 178.986C120.657 178.251 120.461 177.403 120.461 176.44V176.212C120.461 175.237 120.657 174.388 121.05 173.666C121.442 172.931 121.987 172.368 122.684 171.975C123.393 171.57 124.21 171.367 125.135 171.367C126.034 171.367 126.819 171.57 127.491 171.975C128.175 172.368 128.707 172.919 129.087 173.628C129.467 174.337 129.657 175.167 129.657 176.117V176.858H122.456C122.481 177.681 122.753 178.34 123.273 178.834C123.805 179.315 124.463 179.556 125.249 179.556C125.983 179.556 126.534 179.391 126.902 179.062C127.282 178.733 127.573 178.353 127.776 177.922L129.391 178.758C129.213 179.113 128.954 179.486 128.612 179.879C128.282 180.272 127.845 180.601 127.301 180.867C126.756 181.133 126.059 181.266 125.211 181.266ZM122.475 175.357H127.662C127.611 174.648 127.358 174.097 126.902 173.704C126.446 173.299 125.85 173.096 125.116 173.096C124.381 173.096 123.779 173.299 123.311 173.704C122.855 174.097 122.576 174.648 122.475 175.357ZM139.346 184.8V179.727H139.042C138.903 179.98 138.7 180.227 138.434 180.468C138.168 180.696 137.826 180.886 137.408 181.038C137.003 181.19 136.496 181.266 135.888 181.266C135.103 181.266 134.381 181.076 133.722 180.696C133.064 180.316 132.538 179.771 132.145 179.062C131.753 178.34 131.556 177.472 131.556 176.459V176.174C131.556 175.161 131.753 174.299 132.145 173.59C132.551 172.868 133.083 172.317 133.741 171.937C134.4 171.557 135.116 171.367 135.888 171.367C136.8 171.367 137.497 171.532 137.978 171.861C138.472 172.19 138.84 172.564 139.08 172.982H139.384V171.633H141.303V184.8H139.346ZM136.439 179.556C137.301 179.556 138.004 179.284 138.548 178.739C139.093 178.194 139.365 177.415 139.365 176.402V176.231C139.365 175.23 139.087 174.458 138.529 173.913C137.985 173.368 137.288 173.096 136.439 173.096C135.603 173.096 134.907 173.368 134.349 173.913C133.805 174.458 133.532 175.23 133.532 176.231V176.402C133.532 177.415 133.805 178.194 134.349 178.739C134.907 179.284 135.603 179.556 136.439 179.556ZM147.775 181.171C147.066 181.171 146.433 181.013 145.875 180.696C145.318 180.379 144.881 179.93 144.564 179.347C144.248 178.764 144.089 178.068 144.089 177.257V171.633H146.046V177.124C146.046 177.935 146.249 178.536 146.654 178.929C147.06 179.309 147.623 179.499 148.345 179.499C149.143 179.499 149.783 179.233 150.264 178.701C150.758 178.156 151.005 177.377 151.005 176.364V171.633H152.962V181H151.043V179.594H150.739C150.562 179.974 150.245 180.335 149.789 180.677C149.333 181.006 148.662 181.171 147.775 181.171ZM160.149 181.266C159.199 181.266 158.369 181.07 157.66 180.677C156.951 180.272 156.393 179.708 155.988 178.986C155.595 178.251 155.399 177.403 155.399 176.44V176.212C155.399 175.237 155.595 174.388 155.988 173.666C156.381 172.931 156.925 172.368 157.622 171.975C158.331 171.57 159.148 171.367 160.073 171.367C160.972 171.367 161.758 171.57 162.429 171.975C163.113 172.368 163.645 172.919 164.025 173.628C164.405 174.337 164.595 175.167 164.595 176.117V176.858H157.394C157.419 177.681 157.692 178.34 158.211 178.834C158.743 179.315 159.402 179.556 160.187 179.556C160.922 179.556 161.473 179.391 161.84 179.062C162.22 178.733 162.511 178.353 162.714 177.922L164.329 178.758C164.152 179.113 163.892 179.486 163.55 179.879C163.221 180.272 162.784 180.601 162.239 180.867C161.694 181.133 160.998 181.266 160.149 181.266ZM157.413 175.357H162.6C162.549 174.648 162.296 174.097 161.84 173.704C161.384 173.299 160.789 173.096 160.054 173.096C159.319 173.096 158.718 173.299 158.249 173.704C157.793 174.097 157.514 174.648 157.413 175.357ZM170.789 181.266C169.598 181.266 168.61 181 167.825 180.468C167.04 179.936 166.558 179.132 166.381 178.055L168.205 177.618C168.306 178.137 168.477 178.549 168.718 178.853C168.959 179.157 169.256 179.372 169.611 179.499C169.978 179.626 170.371 179.689 170.789 179.689C171.41 179.689 171.885 179.569 172.214 179.328C172.556 179.087 172.727 178.777 172.727 178.397C172.727 178.017 172.569 177.738 172.252 177.561C171.935 177.384 171.467 177.238 170.846 177.124L170.2 177.01C169.567 176.896 168.99 176.731 168.471 176.516C167.952 176.301 167.54 176.003 167.236 175.623C166.932 175.243 166.78 174.755 166.78 174.16C166.78 173.273 167.109 172.589 167.768 172.108C168.427 171.614 169.301 171.367 170.39 171.367C171.441 171.367 172.303 171.608 172.974 172.089C173.658 172.558 174.101 173.197 174.304 174.008L172.48 174.521C172.366 173.951 172.125 173.552 171.758 173.324C171.391 173.083 170.935 172.963 170.39 172.963C169.858 172.963 169.44 173.064 169.136 173.267C168.832 173.457 168.68 173.729 168.68 174.084C168.68 174.464 168.826 174.743 169.117 174.92C169.421 175.097 169.826 175.23 170.333 175.319L170.998 175.433C171.669 175.547 172.284 175.705 172.841 175.908C173.398 176.111 173.835 176.402 174.152 176.782C174.481 177.162 174.646 177.669 174.646 178.302C174.646 179.239 174.298 179.968 173.601 180.487C172.904 181.006 171.967 181.266 170.789 181.266ZM180.244 181C179.674 181 179.218 180.829 178.876 180.487C178.547 180.145 178.382 179.689 178.382 179.119V173.286H175.798V171.633H178.382V168.536H180.339V171.633H183.132V173.286H180.339V178.777C180.339 179.157 180.516 179.347 180.871 179.347H182.828V181H180.244ZM190.217 181V167.7H195.499C196.31 167.7 197.032 167.865 197.665 168.194C198.311 168.511 198.811 168.967 199.166 169.562C199.533 170.145 199.717 170.848 199.717 171.671V171.918C199.717 172.741 199.527 173.451 199.147 174.046C198.78 174.641 198.279 175.097 197.646 175.414C197.013 175.731 196.297 175.889 195.499 175.889H192.269V181H190.217ZM192.269 174.027H195.29C196.012 174.027 196.588 173.837 197.019 173.457C197.45 173.077 197.665 172.558 197.665 171.899V171.709C197.665 171.038 197.45 170.512 197.019 170.132C196.588 169.752 196.012 169.562 195.29 169.562H192.269V174.027ZM204.425 181.266C203.754 181.266 203.152 181.152 202.62 180.924C202.101 180.696 201.683 180.36 201.366 179.917C201.062 179.474 200.91 178.935 200.91 178.302C200.91 177.656 201.062 177.124 201.366 176.706C201.683 176.275 202.107 175.952 202.639 175.737C203.184 175.522 203.798 175.414 204.482 175.414H207.332V174.806C207.332 174.261 207.168 173.824 206.838 173.495C206.509 173.166 206.002 173.001 205.318 173.001C204.647 173.001 204.134 173.159 203.779 173.476C203.425 173.793 203.19 174.204 203.076 174.711L201.252 174.122C201.404 173.615 201.645 173.159 201.974 172.754C202.316 172.336 202.766 172 203.323 171.747C203.881 171.494 204.552 171.367 205.337 171.367C206.553 171.367 207.51 171.677 208.206 172.298C208.903 172.919 209.251 173.799 209.251 174.939V178.796C209.251 179.176 209.429 179.366 209.783 179.366H210.581V181H209.118C208.675 181 208.314 180.886 208.035 180.658C207.757 180.43 207.617 180.12 207.617 179.727V179.67H207.332C207.231 179.86 207.079 180.082 206.876 180.335C206.674 180.588 206.376 180.81 205.983 181C205.591 181.177 205.071 181.266 204.425 181.266ZM204.71 179.651C205.496 179.651 206.129 179.429 206.61 178.986C207.092 178.53 207.332 177.909 207.332 177.124V176.934H204.596C204.077 176.934 203.659 177.048 203.342 177.276C203.026 177.491 202.867 177.814 202.867 178.245C202.867 178.676 203.032 179.018 203.361 179.271C203.691 179.524 204.14 179.651 204.71 179.651ZM213.326 184.8V183.09H218.551C218.905 183.09 219.083 182.9 219.083 182.52V179.632H218.779C218.665 179.885 218.487 180.132 218.247 180.373C218.019 180.601 217.708 180.791 217.316 180.943C216.923 181.095 216.429 181.171 215.834 181.171C215.124 181.171 214.491 181.013 213.934 180.696C213.376 180.379 212.939 179.93 212.623 179.347C212.306 178.764 212.148 178.074 212.148 177.276V171.633H214.105V177.124C214.105 177.935 214.307 178.536 214.713 178.929C215.118 179.309 215.682 179.499 216.404 179.499C217.202 179.499 217.841 179.233 218.323 178.701C218.817 178.169 219.064 177.396 219.064 176.383V171.633H221.021V182.919C221.021 183.489 220.85 183.945 220.508 184.287C220.178 184.629 219.722 184.8 219.14 184.8H213.326ZM228.303 181.266C227.365 181.266 226.529 181.076 225.795 180.696C225.073 180.303 224.503 179.746 224.085 179.024C223.667 178.302 223.458 177.447 223.458 176.459V176.174C223.458 175.186 223.667 174.337 224.085 173.628C224.503 172.906 225.073 172.349 225.795 171.956C226.529 171.563 227.365 171.367 228.303 171.367C229.24 171.367 230.076 171.563 230.811 171.956C231.545 172.349 232.122 172.906 232.54 173.628C232.958 174.337 233.167 175.186 233.167 176.174V176.459C233.167 177.447 232.958 178.302 232.54 179.024C232.122 179.746 231.545 180.303 230.811 180.696C230.076 181.076 229.24 181.266 228.303 181.266ZM228.303 179.518C229.164 179.518 229.861 179.246 230.393 178.701C230.937 178.144 231.21 177.377 231.21 176.402V176.231C231.21 175.256 230.944 174.496 230.412 173.951C229.88 173.394 229.177 173.115 228.303 173.115C227.454 173.115 226.757 173.394 226.213 173.951C225.681 174.496 225.415 175.256 225.415 176.231V176.402C225.415 177.377 225.681 178.144 226.213 178.701C226.757 179.246 227.454 179.518 228.303 179.518ZM239.194 181.171C238.485 181.171 237.852 181.013 237.294 180.696C236.737 180.379 236.3 179.93 235.983 179.347C235.667 178.764 235.508 178.068 235.508 177.257V171.633H237.465V177.124C237.465 177.935 237.668 178.536 238.073 178.929C238.479 179.309 239.042 179.499 239.764 179.499C240.562 179.499 241.202 179.233 241.683 178.701C242.177 178.156 242.424 177.377 242.424 176.364V171.633H244.381V181H242.462V179.594H242.158C241.981 179.974 241.664 180.335 241.208 180.677C240.752 181.006 240.081 181.171 239.194 181.171ZM250.789 181C250.219 181 249.763 180.829 249.421 180.487C249.092 180.145 248.927 179.689 248.927 179.119V173.286H246.343V171.633H248.927V168.536H250.884V171.633H253.677V173.286H250.884V178.777C250.884 179.157 251.061 179.347 251.416 179.347H253.373V181H250.789Z" fill="white"/>
<path d="M152.142 112.319C150.911 112.319 149.824 112.099 148.881 111.658C147.939 111.217 147.202 110.586 146.67 109.766C146.138 108.945 145.872 107.957 145.872 106.802V106.163H148.836V106.802C148.836 107.759 149.132 108.481 149.725 108.968C150.318 109.439 151.123 109.674 152.142 109.674C153.175 109.674 153.943 109.469 154.445 109.059C154.961 108.648 155.22 108.124 155.22 107.486C155.22 107.045 155.091 106.688 154.832 106.414C154.589 106.14 154.224 105.92 153.738 105.753C153.267 105.57 152.689 105.403 152.005 105.251L151.481 105.137C150.386 104.894 149.444 104.59 148.653 104.225C147.878 103.845 147.278 103.351 146.852 102.743C146.442 102.135 146.237 101.345 146.237 100.372C146.237 99.3992 146.465 98.5708 146.921 97.8868C147.392 97.1876 148.045 96.6556 148.881 96.2908C149.733 95.9108 150.728 95.7208 151.868 95.7208C153.008 95.7208 154.019 95.9184 154.901 96.3136C155.797 96.6936 156.497 97.2712 156.998 98.0464C157.515 98.8064 157.773 99.764 157.773 100.919V101.603H154.809V100.919C154.809 100.311 154.688 99.8248 154.445 99.46C154.217 99.08 153.882 98.8064 153.441 98.6392C153.001 98.4568 152.476 98.3656 151.868 98.3656C150.956 98.3656 150.28 98.5404 149.839 98.89C149.413 99.2244 149.201 99.688 149.201 100.281C149.201 100.676 149.299 101.01 149.497 101.284C149.71 101.558 150.021 101.786 150.432 101.968C150.842 102.15 151.367 102.31 152.005 102.447L152.529 102.561C153.669 102.804 154.657 103.116 155.493 103.496C156.345 103.876 157.006 104.377 157.477 105C157.948 105.624 158.184 106.422 158.184 107.394C158.184 108.367 157.933 109.226 157.431 109.971C156.945 110.7 156.246 111.278 155.334 111.704C154.437 112.114 153.373 112.319 152.142 112.319ZM164.852 112C164.107 112 163.499 111.772 163.028 111.316C162.572 110.845 162.344 110.222 162.344 109.446V103.062H159.516V100.691H162.344V97.18H165.216V100.691H168.317V103.062H165.216V108.945C165.216 109.401 165.429 109.629 165.855 109.629H168.044V112H164.852ZM175.67 112.319C174.545 112.319 173.549 112.084 172.683 111.612C171.832 111.126 171.163 110.45 170.676 109.583C170.205 108.702 169.97 107.668 169.97 106.482V106.209C169.97 105.023 170.205 103.997 170.676 103.131C171.148 102.249 171.809 101.573 172.66 101.102C173.511 100.615 174.499 100.372 175.624 100.372C176.734 100.372 177.699 100.623 178.52 101.124C179.34 101.611 179.979 102.295 180.435 103.176C180.891 104.043 181.119 105.054 181.119 106.209V107.189H172.888C172.918 107.964 173.207 108.595 173.754 109.082C174.302 109.568 174.97 109.811 175.761 109.811C176.566 109.811 177.159 109.636 177.539 109.287C177.919 108.937 178.208 108.55 178.406 108.124L180.754 109.355C180.541 109.75 180.23 110.184 179.819 110.655C179.424 111.111 178.892 111.506 178.223 111.84C177.554 112.16 176.703 112.319 175.67 112.319ZM172.911 105.046H178.2C178.14 104.392 177.874 103.868 177.402 103.473C176.946 103.078 176.346 102.88 175.601 102.88C174.826 102.88 174.21 103.078 173.754 103.473C173.298 103.868 173.017 104.392 172.911 105.046ZM183.676 116.56V100.691H186.503V102.059H186.913C187.172 101.618 187.575 101.231 188.122 100.896C188.669 100.547 189.452 100.372 190.47 100.372C191.382 100.372 192.226 100.6 193.001 101.056C193.776 101.497 194.399 102.15 194.871 103.017C195.342 103.883 195.577 104.932 195.577 106.163V106.528C195.577 107.759 195.342 108.808 194.871 109.674C194.399 110.541 193.776 111.202 193.001 111.658C192.226 112.099 191.382 112.319 190.47 112.319C189.786 112.319 189.209 112.236 188.737 112.068C188.281 111.916 187.909 111.719 187.62 111.476C187.347 111.217 187.126 110.959 186.959 110.7H186.549V116.56H183.676ZM189.604 109.811C190.501 109.811 191.238 109.53 191.815 108.968C192.408 108.39 192.705 107.554 192.705 106.46V106.232C192.705 105.137 192.408 104.309 191.815 103.746C191.223 103.169 190.485 102.88 189.604 102.88C188.722 102.88 187.985 103.169 187.392 103.746C186.799 104.309 186.503 105.137 186.503 106.232V106.46C186.503 107.554 186.799 108.39 187.392 108.968C187.985 109.53 188.722 109.811 189.604 109.811ZM210.844 112V108.762H203.001V105.388L208.519 96.04H213.763V106.163H216.408V108.762H213.763V112H210.844ZM205.783 106.163H210.844V97.9096H210.434L205.783 105.798V106.163Z" fill="white"/>
<g clip-path="url(#clip0_1910_2596)">
<path d="M181 236.111C176.078 236.111 171.266 237.571 167.173 240.306C163.08 243.041 159.89 246.928 158.006 251.476C156.122 256.024 155.629 261.028 156.59 265.856C157.55 270.684 159.92 275.119 163.401 278.599C166.882 282.08 171.317 284.451 176.145 285.411C180.973 286.371 185.977 285.878 190.525 283.995C195.073 282.111 198.96 278.921 201.695 274.828C204.429 270.735 205.889 265.923 205.889 261C205.889 254.399 203.267 248.069 198.599 243.401C193.932 238.734 187.601 236.111 181 236.111ZM192.9 269.696C191.345 274.362 187.285 275.669 183.722 275.918V279.029C183.722 279.545 183.518 280.039 183.153 280.404C182.788 280.769 182.294 280.974 181.778 280.974C181.262 280.974 180.768 280.769 180.403 280.404C180.038 280.039 179.834 279.545 179.834 279.029V275.918C176.261 275.583 172.873 274.179 170.111 271.889C169.924 271.714 169.774 271.505 169.668 271.272C169.562 271.039 169.503 270.787 169.494 270.532C169.486 270.276 169.528 270.021 169.617 269.782C169.707 269.542 169.843 269.323 170.018 269.136C170.193 268.949 170.402 268.798 170.635 268.692C170.868 268.586 171.12 268.528 171.375 268.519C171.631 268.51 171.886 268.552 172.125 268.642C172.365 268.732 172.584 268.868 172.771 269.042C174.807 270.682 177.257 271.726 179.849 272.06V262.291C177.783 261.973 175.807 261.226 174.047 260.098C172.568 259.17 171.46 257.753 170.917 256.093C170.374 254.434 170.431 252.636 171.076 251.014C171.994 248.665 174.84 245.989 179.849 245.554V242.722C179.849 242.207 180.054 241.712 180.419 241.348C180.783 240.983 181.278 240.778 181.794 240.778C182.309 240.778 182.804 240.983 183.168 241.348C183.533 241.712 183.738 242.207 183.738 242.722V245.616C186.519 245.924 189.158 247.001 191.36 248.727C191.665 249.086 191.83 249.544 191.823 250.015C191.816 250.486 191.638 250.939 191.322 251.289C191.007 251.639 190.575 251.862 190.107 251.917C189.639 251.972 189.167 251.856 188.778 251.589C187.293 250.503 185.561 249.803 183.738 249.551V259.087C184.671 259.289 185.667 259.507 186.709 259.834C187.915 260.134 189.046 260.678 190.033 261.433C191.02 262.187 191.842 263.136 192.449 264.22C193.315 265.915 193.478 267.882 192.9 269.696Z" fill="white"/>
<path d="M185.543 263.551C184.92 263.364 184.314 263.208 183.723 263.084V272.044C186.834 271.733 188.498 270.644 189.214 268.466C189.452 267.647 189.369 266.768 188.98 266.008C188.601 265.39 188.101 264.853 187.511 264.431C186.92 264.009 186.251 263.71 185.543 263.551Z" fill="white"/>
<path d="M174.686 252.413C174.361 253.22 174.34 254.117 174.626 254.937C174.912 255.758 175.486 256.448 176.241 256.878C177.341 257.582 178.566 258.068 179.85 258.309V249.411C176.583 249.8 175.075 251.418 174.686 252.413Z" fill="white"/>
</g>
<defs>
<clipPath id="clip0_1910_2596">
<rect width="56" height="56" fill="white" transform="translate(153 233)"/>
</clipPath>
</defs>
</svg>
