<svg width="362" height="362" viewBox="0 0 362 362" fill="none" xmlns="http://www.w3.org/2000/svg">
<path d="M91.306 336.026L1.73205 180.88L91.306 25.7331L270.454 25.7331L360.028 180.88L270.454 336.026L91.306 336.026Z" stroke="#0072D8" stroke-width="3"/>
<path d="M111.657 181V167.7H116.939C117.749 167.7 118.471 167.865 119.105 168.194C119.751 168.511 120.251 168.967 120.606 169.562C120.973 170.145 121.157 170.848 121.157 171.671V171.918C121.157 172.741 120.967 173.451 120.587 174.046C120.219 174.641 119.719 175.097 119.086 175.414C118.452 175.731 117.737 175.889 116.939 175.889H113.709V181H111.657ZM113.709 174.027H116.73C117.452 174.027 118.028 173.837 118.459 173.457C118.889 173.077 119.105 172.558 119.105 171.899V171.709C119.105 171.038 118.889 170.512 118.459 170.132C118.028 169.752 117.452 169.562 116.73 169.562H113.709V174.027ZM123.162 181V171.633H125.081V172.735H125.385C125.537 172.342 125.777 172.057 126.107 171.88C126.449 171.69 126.867 171.595 127.361 171.595H128.482V173.362H127.285C126.651 173.362 126.132 173.539 125.727 173.894C125.321 174.236 125.119 174.768 125.119 175.49V181H123.162ZM134.564 181.266C133.627 181.266 132.791 181.076 132.056 180.696C131.334 180.303 130.764 179.746 130.346 179.024C129.928 178.302 129.719 177.447 129.719 176.459V176.174C129.719 175.186 129.928 174.337 130.346 173.628C130.764 172.906 131.334 172.349 132.056 171.956C132.791 171.563 133.627 171.367 134.564 171.367C135.502 171.367 136.338 171.563 137.072 171.956C137.807 172.349 138.383 172.906 138.801 173.628C139.219 174.337 139.428 175.186 139.428 176.174V176.459C139.428 177.447 139.219 178.302 138.801 179.024C138.383 179.746 137.807 180.303 137.072 180.696C136.338 181.076 135.502 181.266 134.564 181.266ZM134.564 179.518C135.426 179.518 136.122 179.246 136.654 178.701C137.199 178.144 137.471 177.377 137.471 176.402V176.231C137.471 175.256 137.205 174.496 136.673 173.951C136.141 173.394 135.438 173.115 134.564 173.115C133.716 173.115 133.019 173.394 132.474 173.951C131.942 174.496 131.676 175.256 131.676 176.231V176.402C131.676 177.377 131.942 178.144 132.474 178.701C133.019 179.246 133.716 179.518 134.564 179.518ZM141.865 181V171.633H143.784V172.735H144.088C144.265 172.406 144.55 172.114 144.943 171.861C145.336 171.608 145.868 171.481 146.539 171.481C147.236 171.481 147.793 171.627 148.211 171.918C148.642 172.197 148.965 172.558 149.18 173.001H149.484C149.699 172.57 150.01 172.209 150.415 171.918C150.833 171.627 151.422 171.481 152.182 171.481C152.79 171.481 153.328 171.608 153.797 171.861C154.266 172.102 154.639 172.469 154.918 172.963C155.197 173.444 155.336 174.046 155.336 174.768V181H153.379V174.92C153.379 174.35 153.221 173.913 152.904 173.609C152.6 173.292 152.163 173.134 151.593 173.134C150.985 173.134 150.497 173.33 150.13 173.723C149.763 174.116 149.579 174.679 149.579 175.414V181H147.622V174.92C147.622 174.35 147.464 173.913 147.147 173.609C146.843 173.292 146.406 173.134 145.836 173.134C145.228 173.134 144.74 173.33 144.373 173.723C144.006 174.116 143.822 174.679 143.822 175.414V181H141.865ZM162.545 181.266C161.608 181.266 160.772 181.076 160.037 180.696C159.315 180.303 158.745 179.746 158.327 179.024C157.909 178.302 157.7 177.447 157.7 176.459V176.174C157.7 175.186 157.909 174.337 158.327 173.628C158.745 172.906 159.315 172.349 160.037 171.956C160.772 171.563 161.608 171.367 162.545 171.367C163.482 171.367 164.318 171.563 165.053 171.956C165.788 172.349 166.364 172.906 166.782 173.628C167.2 174.337 167.409 175.186 167.409 176.174V176.459C167.409 177.447 167.2 178.302 166.782 179.024C166.364 179.746 165.788 180.303 165.053 180.696C164.318 181.076 163.482 181.266 162.545 181.266ZM162.545 179.518C163.406 179.518 164.103 179.246 164.635 178.701C165.18 178.144 165.452 177.377 165.452 176.402V176.231C165.452 175.256 165.186 174.496 164.654 173.951C164.122 173.394 163.419 173.115 162.545 173.115C161.696 173.115 161 173.394 160.455 173.951C159.923 174.496 159.657 175.256 159.657 176.231V176.402C159.657 177.377 159.923 178.144 160.455 178.701C161 179.246 161.696 179.518 162.545 179.518ZM173.008 181C172.438 181 171.982 180.829 171.64 180.487C171.31 180.145 171.146 179.689 171.146 179.119V173.286H168.562V171.633H171.146V168.536H173.103V171.633H175.896V173.286H173.103V178.777C173.103 179.157 173.28 179.347 173.635 179.347H175.592V181H173.008ZM182.155 181.266C181.205 181.266 180.375 181.07 179.666 180.677C178.957 180.272 178.399 179.708 177.994 178.986C177.601 178.251 177.405 177.403 177.405 176.44V176.212C177.405 175.237 177.601 174.388 177.994 173.666C178.387 172.931 178.931 172.368 179.628 171.975C180.337 171.57 181.154 171.367 182.079 171.367C182.978 171.367 183.764 171.57 184.435 171.975C185.119 172.368 185.651 172.919 186.031 173.628C186.411 174.337 186.601 175.167 186.601 176.117V176.858H179.4C179.425 177.681 179.698 178.34 180.217 178.834C180.749 179.315 181.408 179.556 182.193 179.556C182.928 179.556 183.479 179.391 183.846 179.062C184.226 178.733 184.517 178.353 184.72 177.922L186.335 178.758C186.158 179.113 185.898 179.486 185.556 179.879C185.227 180.272 184.79 180.601 184.245 180.867C183.7 181.133 183.004 181.266 182.155 181.266ZM179.419 175.357H184.606C184.555 174.648 184.302 174.097 183.846 173.704C183.39 173.299 182.795 173.096 182.06 173.096C181.325 173.096 180.724 173.299 180.255 173.704C179.799 174.097 179.52 174.648 179.419 175.357ZM198.682 181.266C197.061 181.266 195.775 180.81 194.825 179.898C193.875 178.973 193.4 177.643 193.4 175.908V172.792C193.4 171.057 193.875 169.733 194.825 168.821C195.775 167.896 197.061 167.434 198.682 167.434C200.278 167.434 201.507 167.877 202.368 168.764C203.242 169.651 203.679 170.86 203.679 172.393V172.507H201.646V172.336C201.646 171.437 201.399 170.702 200.905 170.132C200.424 169.562 199.683 169.277 198.682 169.277C197.669 169.277 196.877 169.587 196.307 170.208C195.737 170.816 195.452 171.665 195.452 172.754V175.946C195.452 177.023 195.737 177.871 196.307 178.492C196.877 179.113 197.669 179.423 198.682 179.423C199.683 179.423 200.424 179.138 200.905 178.568C201.399 177.985 201.646 177.251 201.646 176.364V176.041H203.679V176.307C203.679 177.84 203.242 179.049 202.368 179.936C201.507 180.823 200.278 181.266 198.682 181.266ZM206.008 181V171.633H207.965V181H206.008ZM206.996 170.36C206.616 170.36 206.293 170.24 206.027 169.999C205.774 169.746 205.647 169.423 205.647 169.03C205.647 168.637 205.774 168.321 206.027 168.08C206.293 167.827 206.616 167.7 206.996 167.7C207.389 167.7 207.712 167.827 207.965 168.08C208.219 168.321 208.345 168.637 208.345 169.03C208.345 169.423 208.219 169.746 207.965 169.999C207.712 170.24 207.389 170.36 206.996 170.36ZM210.87 184.8V171.633H212.789V172.982H213.093C213.333 172.564 213.694 172.19 214.176 171.861C214.67 171.532 215.373 171.367 216.285 171.367C217.07 171.367 217.786 171.557 218.432 171.937C219.09 172.317 219.616 172.868 220.009 173.59C220.414 174.299 220.617 175.161 220.617 176.174V176.459C220.617 177.472 220.42 178.34 220.028 179.062C219.635 179.771 219.109 180.316 218.451 180.696C217.792 181.076 217.07 181.266 216.285 181.266C215.677 181.266 215.164 181.19 214.746 181.038C214.328 180.886 213.992 180.696 213.739 180.468C213.485 180.227 213.283 179.98 213.131 179.727H212.827V184.8H210.87ZM215.715 179.556C216.576 179.556 217.279 179.284 217.824 178.739C218.368 178.194 218.641 177.415 218.641 176.402V176.231C218.641 175.23 218.362 174.458 217.805 173.913C217.26 173.368 216.563 173.096 215.715 173.096C214.879 173.096 214.182 173.368 213.625 173.913C213.08 174.458 212.808 175.23 212.808 176.231V176.402C212.808 177.415 213.08 178.194 213.625 178.739C214.182 179.284 214.879 179.556 215.715 179.556ZM223.042 181V167.7H224.999V172.963H225.303C225.429 172.722 225.607 172.488 225.835 172.26C226.075 172.032 226.386 171.848 226.766 171.709C227.158 171.557 227.652 171.481 228.248 171.481C228.957 171.481 229.584 171.639 230.129 171.956C230.686 172.273 231.123 172.722 231.44 173.305C231.756 173.875 231.915 174.565 231.915 175.376V181H229.958V175.528C229.958 174.717 229.755 174.122 229.35 173.742C228.944 173.349 228.387 173.153 227.678 173.153C226.867 173.153 226.215 173.419 225.721 173.951C225.239 174.483 224.999 175.256 224.999 176.269V181H223.042ZM239.025 181.266C238.075 181.266 237.245 181.07 236.536 180.677C235.827 180.272 235.269 179.708 234.864 178.986C234.471 178.251 234.275 177.403 234.275 176.44V176.212C234.275 175.237 234.471 174.388 234.864 173.666C235.257 172.931 235.801 172.368 236.498 171.975C237.207 171.57 238.024 171.367 238.949 171.367C239.848 171.367 240.634 171.57 241.305 171.975C241.989 172.368 242.521 172.919 242.901 173.628C243.281 174.337 243.471 175.167 243.471 176.117V176.858H236.27C236.295 177.681 236.568 178.34 237.087 178.834C237.619 179.315 238.278 179.556 239.063 179.556C239.798 179.556 240.349 179.391 240.716 179.062C241.096 178.733 241.387 178.353 241.59 177.922L243.205 178.758C243.028 179.113 242.768 179.486 242.426 179.879C242.097 180.272 241.66 180.601 241.115 180.867C240.57 181.133 239.874 181.266 239.025 181.266ZM236.289 175.357H241.476C241.425 174.648 241.172 174.097 240.716 173.704C240.26 173.299 239.665 173.096 238.93 173.096C238.195 173.096 237.594 173.299 237.125 173.704C236.669 174.097 236.39 174.648 236.289 175.357ZM245.827 181V171.633H247.746V172.735H248.05C248.202 172.342 248.442 172.057 248.772 171.88C249.114 171.69 249.532 171.595 250.026 171.595H251.147V173.362H249.95C249.316 173.362 248.797 173.539 248.392 173.894C247.986 174.236 247.784 174.768 247.784 175.49V181H245.827Z" fill="white"/>
<path d="M152.621 112.319C151.389 112.319 150.303 112.099 149.36 111.658C148.418 111.217 147.681 110.586 147.149 109.766C146.617 108.945 146.351 107.957 146.351 106.802V106.163H149.315V106.802C149.315 107.759 149.611 108.481 150.204 108.968C150.797 109.439 151.602 109.674 152.621 109.674C153.654 109.674 154.422 109.469 154.923 109.059C155.44 108.648 155.699 108.124 155.699 107.486C155.699 107.045 155.569 106.688 155.311 106.414C155.068 106.14 154.703 105.92 154.217 105.753C153.745 105.57 153.168 105.403 152.484 105.251L151.959 105.137C150.865 104.894 149.923 104.59 149.132 104.225C148.357 103.845 147.757 103.351 147.331 102.743C146.921 102.135 146.715 101.345 146.715 100.372C146.715 99.3992 146.943 98.5708 147.399 97.8868C147.871 97.1876 148.524 96.6556 149.36 96.2908C150.211 95.9108 151.207 95.7208 152.347 95.7208C153.487 95.7208 154.498 95.9184 155.379 96.3136C156.276 96.6936 156.975 97.2712 157.477 98.0464C157.994 98.8064 158.252 99.764 158.252 100.919V101.603H155.288V100.919C155.288 100.311 155.167 99.8248 154.923 99.46C154.695 99.08 154.361 98.8064 153.92 98.6392C153.479 98.4568 152.955 98.3656 152.347 98.3656C151.435 98.3656 150.759 98.5404 150.318 98.89C149.892 99.2244 149.679 99.688 149.679 100.281C149.679 100.676 149.778 101.01 149.976 101.284C150.189 101.558 150.5 101.786 150.911 101.968C151.321 102.15 151.845 102.31 152.484 102.447L153.008 102.561C154.148 102.804 155.136 103.116 155.972 103.496C156.823 103.876 157.485 104.377 157.956 105C158.427 105.624 158.663 106.422 158.663 107.394C158.663 108.367 158.412 109.226 157.91 109.971C157.424 110.7 156.725 111.278 155.813 111.704C154.916 112.114 153.852 112.319 152.621 112.319ZM165.33 112C164.586 112 163.978 111.772 163.506 111.316C163.05 110.845 162.822 110.222 162.822 109.446V103.062H159.995V100.691H162.822V97.18H165.695V100.691H168.796V103.062H165.695V108.945C165.695 109.401 165.908 109.629 166.334 109.629H168.522V112H165.33ZM176.148 112.319C175.024 112.319 174.028 112.084 173.162 111.612C172.31 111.126 171.642 110.45 171.155 109.583C170.684 108.702 170.448 107.668 170.448 106.482V106.209C170.448 105.023 170.684 103.997 171.155 103.131C171.626 102.249 172.288 101.573 173.139 101.102C173.99 100.615 174.978 100.372 176.103 100.372C177.212 100.372 178.178 100.623 178.998 101.124C179.819 101.611 180.458 102.295 180.914 103.176C181.37 104.043 181.598 105.054 181.598 106.209V107.189H173.367C173.397 107.964 173.686 108.595 174.233 109.082C174.78 109.568 175.449 109.811 176.24 109.811C177.045 109.811 177.638 109.636 178.018 109.287C178.398 108.937 178.687 108.55 178.884 108.124L181.233 109.355C181.02 109.75 180.708 110.184 180.298 110.655C179.903 111.111 179.371 111.506 178.702 111.84C178.033 112.16 177.182 112.319 176.148 112.319ZM173.39 105.046H178.679C178.618 104.392 178.352 103.868 177.881 103.473C177.425 103.078 176.825 102.88 176.08 102.88C175.305 102.88 174.689 103.078 174.233 103.473C173.777 103.868 173.496 104.392 173.39 105.046ZM184.155 116.56V100.691H186.982V102.059H187.392C187.651 101.618 188.053 101.231 188.601 100.896C189.148 100.547 189.931 100.372 190.949 100.372C191.861 100.372 192.705 100.6 193.48 101.056C194.255 101.497 194.878 102.15 195.349 103.017C195.821 103.883 196.056 104.932 196.056 106.163V106.528C196.056 107.759 195.821 108.808 195.349 109.674C194.878 110.541 194.255 111.202 193.48 111.658C192.705 112.099 191.861 112.319 190.949 112.319C190.265 112.319 189.687 112.236 189.216 112.068C188.76 111.916 188.388 111.719 188.099 111.476C187.825 111.217 187.605 110.959 187.438 110.7H187.027V116.56H184.155ZM190.083 109.811C190.979 109.811 191.717 109.53 192.294 108.968C192.887 108.39 193.183 107.554 193.183 106.46V106.232C193.183 105.137 192.887 104.309 192.294 103.746C191.701 103.169 190.964 102.88 190.083 102.88C189.201 102.88 188.464 103.169 187.871 103.746C187.278 104.309 186.982 105.137 186.982 106.232V106.46C186.982 107.554 187.278 108.39 187.871 108.968C188.464 109.53 189.201 109.811 190.083 109.811ZM203.845 112V110.085C203.845 108.975 204.027 108.056 204.392 107.326C204.757 106.581 205.281 105.973 205.965 105.502C206.664 105.016 207.516 104.62 208.519 104.316L210.046 103.838C210.609 103.655 211.08 103.435 211.46 103.176C211.84 102.903 212.129 102.576 212.326 102.196C212.539 101.816 212.646 101.383 212.646 100.896V100.805C212.646 100.045 212.387 99.4448 211.87 99.004C211.354 98.548 210.647 98.32 209.75 98.32C208.868 98.32 208.154 98.5632 207.607 99.0496C207.075 99.5208 206.809 100.205 206.809 101.102V101.512H203.89V101.147C203.89 99.992 204.149 99.0116 204.666 98.206C205.182 97.4004 205.882 96.7848 206.763 96.3592C207.66 95.9336 208.656 95.7208 209.75 95.7208C210.844 95.7208 211.832 95.9336 212.714 96.3592C213.596 96.7696 214.287 97.3548 214.789 98.1148C215.306 98.8596 215.564 99.7412 215.564 100.76V100.988C215.564 102.006 215.351 102.872 214.926 103.587C214.515 104.286 213.953 104.864 213.238 105.32C212.524 105.76 211.711 106.125 210.799 106.414L209.34 106.87C208.686 107.068 208.177 107.288 207.812 107.531C207.447 107.759 207.189 108.018 207.037 108.306C206.9 108.58 206.832 108.914 206.832 109.31V109.401H215.427V112H203.845Z" fill="white"/>
<g clip-path="url(#clip0_1910_2590)">
<path fill-rule="evenodd" clip-rule="evenodd" d="M190.312 240.032C193.425 238.219 197.331 240.461 197.331 244.064V251.668C198.25 251.668 199.16 251.849 200.01 252.201C200.859 252.553 201.631 253.068 202.281 253.718C202.931 254.368 203.446 255.14 203.798 255.989C204.15 256.838 204.331 257.749 204.331 258.668C204.331 259.587 204.15 260.497 203.798 261.347C203.446 262.196 202.931 262.968 202.281 263.618C201.631 264.268 200.859 264.783 200.01 265.135C199.16 265.487 198.25 265.668 197.331 265.668V272.668C197.331 276.513 192.942 278.709 189.864 276.401L185.057 272.794C182.488 270.867 179.497 269.581 176.331 269.042V275.678C176.331 277.203 175.78 278.677 174.779 279.828C173.778 280.979 172.395 281.73 170.884 281.941C169.373 282.153 167.837 281.811 166.559 280.979C165.28 280.147 164.345 278.881 163.927 277.414L160.263 264.59C158.945 263.033 158.087 261.139 157.786 259.122C157.485 257.104 157.753 255.042 158.559 253.169C159.365 251.295 160.678 249.683 162.35 248.514C164.022 247.346 165.987 246.666 168.024 246.553L175.066 246.161C178.512 245.97 181.862 244.963 184.843 243.224L190.312 240.032ZM166.143 268.183L168.414 276.133C168.523 276.518 168.768 276.85 169.103 277.068C169.438 277.287 169.841 277.377 170.237 277.321C170.633 277.266 170.996 277.069 171.258 276.767C171.521 276.465 171.665 276.078 171.664 275.678V268.655L168.024 268.452C167.391 268.416 166.761 268.327 166.143 268.183ZM199.664 258.668C199.664 258.049 199.418 257.456 198.981 257.018C198.543 256.58 197.95 256.335 197.331 256.335V261.001C197.95 261.001 198.543 260.755 198.981 260.318C199.418 259.88 199.664 259.287 199.664 258.668Z" fill="white"/>
</g>
<defs>
<clipPath id="clip0_1910_2590">
<rect width="56" height="56" fill="white" transform="translate(153 233)"/>
</clipPath>
</defs>
</svg>
