<svg width="100" height="100" viewBox="0 0 100 100" fill="none" xmlns="http://www.w3.org/2000/svg">
<path d="M60.8637 57.9196C60.5101 64.8705 48.6785 63.4451 44.8507 63.242L45.4886 50.9322C49.3164 51.1352 61.219 50.6526 60.8637 57.9196ZM46.3819 34.0897L45.7745 45.2572C48.9585 45.396 58.8702 46.6894 59.2204 40.3706C59.5233 33.8083 49.5659 34.2285 46.3819 34.0897ZM99.1357 52.1219C97.6873 79.427 74.3692 100.439 47.015 99.0633C19.7099 97.615 -1.36288 74.3087 0.0854371 47.0035C1.52193 19.6375 24.8519 -1.31357 52.2061 0.0620837C79.5112 1.51041 100.584 24.8167 99.1357 52.1219ZM35.2246 60.8197C35.1113 61.5362 34.6313 62.6398 33.0394 62.5704C32.796 62.6177 28.9563 62.3538 28.9563 62.3538L27.462 68.9582L34.7289 69.3136C36.1384 69.4184 37.4143 69.4861 38.7629 69.6028L38.2875 78.8504L43.8408 79.16L44.3281 69.9733C45.871 70.1153 47.3295 70.1475 48.7998 70.2406L48.3007 79.3665L53.9148 79.6643L54.3902 70.4167C63.8475 70.3463 70.5923 68.3407 71.8435 59.5105C72.8664 52.4295 69.6877 49.0696 64.3964 47.5094C67.7106 46.0444 69.8773 43.2239 69.685 38.3365C69.4049 31.6981 63.7909 29.1273 56.6 28.1889L57.0754 18.9413L51.4613 18.6435L50.9876 27.5751C49.5173 27.4821 47.998 27.4617 46.4668 27.3805L46.9288 18.3881L41.3755 18.0784L40.8882 27.2652C39.6849 27.2465 38.4698 27.167 37.3274 27.1366L29.5991 26.6815L29.3114 32.6725C29.3114 32.6725 33.3826 32.8282 33.3944 32.889C35.6302 33.0227 36.2673 34.3511 36.492 35.507L35.1401 60.7098L35.2246 60.8197Z" fill="#7B7BC0"/>
</svg>
