<svg width="418" height="465" viewBox="0 0 418 465" fill="none" xmlns="http://www.w3.org/2000/svg">
<path d="M348.982 203.95V209.815H354.848C375.22 209.815 394.759 201.722 409.164 187.316C422.181 174.3 430.044 157.092 431.439 138.865H467.08C466.406 151.81 463.497 164.556 458.467 176.534C452.68 190.318 444.2 202.808 433.525 213.274C422.85 223.74 410.194 231.97 396.298 237.484C382.403 242.998 367.547 245.684 352.6 245.385L347.712 245.287L346.735 250.077C342.331 271.675 331.672 291.501 316.086 307.087C300.499 322.674 280.673 333.333 259.076 337.737L254.382 338.695V343.485V393.15V397.121L258.069 398.596L372.632 444.421V458.234H100.563V444.421L215.126 398.596L218.813 397.121V393.15V343.485V338.695L214.12 337.737C192.522 333.333 172.696 322.674 157.11 307.087C141.523 291.501 130.865 271.675 126.46 250.077L125.503 245.384H120.713H118.348C88.5415 245.384 59.956 233.544 38.8799 212.467C19.1904 192.778 7.56128 166.535 6.11626 138.865H41.7562C43.1513 157.092 51.014 174.3 64.0308 187.316C78.4366 201.722 97.9749 209.815 118.348 209.815H124.213V203.95V85.6996V79.834H118.348H47.3977H41.5321V85.6996V127.134H5.96323V44.2652H118.348H124.213V38.3996V-3.03482H348.982V38.3996V44.2652H354.848H467.232V127.134H431.663V85.6996V79.834H425.798H354.848H348.982V85.6996V203.95Z" stroke="#FBD108" stroke-opacity="0.1" stroke-width="11.7311"/>
</svg>
