<svg width="87" height="23" viewBox="0 0 87 23" fill="none" xmlns="http://www.w3.org/2000/svg">
<path d="M6.5912 11.2351L5.6448 6.65992C5.57837 6.39309 5.4161 6.16001 5.18891 6.0051C4.96171 5.85019 4.68546 5.78428 4.4128 5.81992H0.0336L0 6.03832C3.4048 6.85592 5.656 8.83832 6.5912 11.2351ZM9.772 5.92073L7.0056 12.9823L6.72 11.9183C5.81858 10.1649 4.4653 8.68405 2.8 7.62872L5.3256 16.2583H8.3104L12.7568 5.92073H9.772ZM13.9048 5.92073L12.1408 16.2807H14.9408L16.7104 5.92073H13.9048ZM32.4352 5.92073H30.24C29.9329 5.8807 29.6212 5.94364 29.3537 6.0997C29.0862 6.25575 28.8779 6.4961 28.7616 6.78312L24.5896 16.2695H27.552C27.552 16.2695 28.0336 14.9927 28.1456 14.7127H31.7576C31.8416 15.0711 32.0992 16.2583 32.0992 16.2583H34.72L32.4352 5.92073ZM28.9576 12.5959C29.1928 12.0023 30.0776 9.70073 30.0776 9.70073C30.0776 9.70073 30.3128 9.10713 30.4528 8.71512L30.6488 9.60553L31.2984 12.5959H28.9576ZM22.4 10.0703C21.42 9.59433 20.8152 9.26952 20.8208 8.78792C20.8264 8.30632 21.3304 7.89752 22.4336 7.89752C23.1576 7.87819 23.8774 8.01374 24.5448 8.29513L24.8024 8.41272L25.1832 6.17272C24.3738 5.87954 23.5184 5.7335 22.6576 5.74152C19.8576 5.74152 17.9032 7.14152 17.8864 9.15752C17.8864 10.6415 19.2864 11.4759 20.356 11.9575C21.4256 12.4391 21.84 12.7919 21.84 13.2455C21.84 13.9399 20.9608 14.2591 20.16 14.2591C19.2438 14.2803 18.3352 14.0886 17.5056 13.6991L17.1416 13.5311L16.744 15.8495C17.7506 16.2249 18.8169 16.4146 19.8912 16.4095C22.8536 16.4095 24.78 15.0207 24.8024 12.8703C24.7968 11.7055 24.0464 10.8095 22.4 10.0703Z" fill="#273991"/>
<path d="M5.6448 6.66195C5.57837 6.39511 5.4161 6.16204 5.1889 6.00713C4.96171 5.85222 4.68546 5.78631 4.4128 5.82195H0.0336L0 6.04035C3.4048 6.86355 5.656 8.84035 6.5912 11.2428L5.6448 6.66195Z" fill="#F99F1B"/>
<path d="M73.491 19.7839H63.7988V2.36719H73.491V19.7839Z" fill="#FF5F00"/>
<path d="M64.4108 11.0751C64.4093 9.39786 64.7895 7.74227 65.5224 6.23366C66.2554 4.72505 67.3221 3.40296 68.6416 2.36748C67.0076 1.0834 65.0453 0.284891 62.9789 0.0632071C60.9125 -0.158477 58.8255 0.205607 56.9563 1.11385C55.087 2.0221 53.511 3.43786 52.4084 5.19935C51.3057 6.96084 50.7209 8.99699 50.7207 11.0751C50.7211 13.153 51.306 15.1888 52.4086 16.95C53.5112 18.7113 55.087 20.1268 56.9559 21.035C58.8249 21.9432 60.9116 22.3074 62.9778 22.086C65.0439 21.8645 67.0061 21.0664 68.6401 19.7827C67.321 18.747 66.2548 17.4248 65.5221 15.9162C64.7894 14.4076 64.4093 12.7522 64.4108 11.0751Z" fill="#EB001B"/>
<path d="M86.5615 11.0751C86.5613 13.1532 85.9765 15.1894 84.8738 16.9509C83.7712 18.7124 82.1952 20.1281 80.3259 21.0364C78.4567 21.9446 76.3697 22.3087 74.3033 22.087C72.2369 21.8653 70.2746 21.0668 68.6406 19.7827C71.2168 17.7548 72.8714 14.6083 72.8714 11.0751C72.8714 7.54188 71.2168 4.39543 68.6406 2.36748C70.2746 1.0834 72.2369 0.284891 74.3033 0.0632071C76.3697 -0.158477 78.4567 0.205607 80.3259 1.11385C82.1952 2.0221 83.7712 3.43786 84.8738 5.19935C85.9765 6.96084 86.5613 8.99699 86.5615 11.0751Z" fill="#F79E1B"/>
</svg>
