<svg width="34" height="24" viewBox="0 0 34 24" fill="none" xmlns="http://www.w3.org/2000/svg">
<path d="M29.758 3.28666C27.424 1.41947 24.6233 0.48593 21.667 0.330322L21.2002 0.797146C23.8453 1.41947 26.1793 2.66423 28.3576 4.37581C25.7125 2.97545 22.7561 2.0419 19.6442 1.73069C18.7106 1.57508 17.9326 1.57508 16.9991 1.57508C16.0655 1.57508 15.2875 1.57508 14.3539 1.73069C11.242 2.0419 8.28565 2.97545 5.64052 4.37581C7.81882 2.66423 10.1528 1.41947 12.798 0.797146L12.3311 0.330322C9.3748 0.48593 6.57407 1.41947 4.24016 3.28666C1.59503 8.2658 0.19466 13.8673 0.0390625 19.6242C2.37297 22.1139 5.64052 23.6698 9.06369 23.6698C9.06369 23.6698 10.1528 22.4251 10.9308 21.3358C8.90808 20.8691 7.04089 19.7798 5.79613 18.0684C6.88528 18.6907 7.97443 19.3131 9.06369 19.7798C10.4641 20.4023 11.8644 20.7135 13.2648 21.0247C14.5095 21.1802 15.7543 21.3358 16.9991 21.3358C18.2438 21.3358 19.4886 21.1802 20.7333 21.0247C22.1337 20.7135 23.5341 20.4023 24.9344 19.7798C26.0237 19.3131 27.1128 18.6907 28.202 18.0684C26.9572 19.7798 25.09 20.8691 23.0673 21.3358C23.8453 22.4251 24.9344 23.6698 24.9344 23.6698C28.3576 23.6698 31.6251 22.1139 33.9591 19.6242C33.8034 13.8673 32.4031 8.2658 29.758 3.28666ZM11.8644 16.8235C10.3084 16.8235 8.90808 15.4231 8.90808 13.7117C8.90808 12.0001 10.3084 10.5997 11.8644 10.5997C13.4204 10.5997 14.8208 12.0001 14.8208 13.7117C14.8208 15.4231 13.4204 16.8235 11.8644 16.8235ZM22.1337 16.8235C20.5777 16.8235 19.1774 15.4231 19.1774 13.7117C19.1774 12.0001 20.5777 10.5997 22.1337 10.5997C23.6897 10.5997 25.09 12.0001 25.09 13.7117C25.09 15.4231 23.6897 16.8235 22.1337 16.8235Z" fill="white"/>
</svg>
