<svg width="201" height="163" viewBox="0 0 201 163" fill="none" xmlns="http://www.w3.org/2000/svg">
<path d="M197.802 96.4717C184.35 79.5454 168.329 64.1362 150.267 50.8368C150.096 50.7447 149.908 50.6911 149.714 50.6799C149.521 50.6686 149.327 50.6999 149.147 50.7716C144.602 53.9371 139.004 58.2234 134.986 61.6522C115.593 48.0175 94.2639 37.3689 71.7113 30.0617C72.1034 24.6583 72.0993 17.7397 71.7665 12.139C71.7663 11.8096 71.4366 11.4803 71.0412 11.2829C49.5565 4.83823 27.7442 1.35894 5.99945 0.712967C5.86762 0.647154 5.66999 0.713165 5.47235 0.779175C-57.1697 36.5299 -93.1186 83.7959 -114.04 137.906C-114.172 138.169 -114.171 138.499 -113.974 138.762C-98.9328 168.009 -81.3925 189.941 -62.3388 208.182C-62.0092 208.511 -61.5479 208.577 -61.2844 208.379C-52.3918 203.761 -43.829 198.485 -35.7278 192.484C-35.2009 192.088 -35.2013 191.429 -35.6628 191.034C-41.7288 184.382 -47.1361 177.401 -52.1483 169.958C-52.544 169.431 -52.1491 168.64 -51.5562 168.442C-49.5796 168.112 -47.5373 167.649 -45.5607 167.319C-45.1654 167.187 -44.77 167.384 -44.5721 167.648C-9.55767 210.984 39.3487 235.4 94.5014 237.081C94.8308 237.081 95.2263 237.278 95.3583 237.673C96.216 239.584 97.1396 241.362 97.9973 243.273C98.3272 243.931 97.9323 244.722 97.1415 244.657C88.2465 245.321 79.3509 244.997 70.3891 244.146C69.796 244.014 69.3351 244.608 69.2695 245.069C69.4732 255.216 70.4017 265.231 71.923 275.048C72.2527 275.377 72.5823 275.707 73.0436 275.772C99.2053 280.106 127.276 280.945 159.691 275.391C160.021 275.391 160.284 275.193 160.416 274.929C196.03 218.109 206.471 158.603 198.198 96.9986C198.132 96.8009 198.066 96.6033 197.802 96.4717ZM-6.95709 152.009C-20.5349 145.23 -25.6194 127.047 -17.9192 111.623C-10.219 96.2002 7.10641 89.2053 20.9478 96.1157C34.9211 103.092 39.6761 121.275 31.91 136.501C24.2098 151.924 6.88435 158.919 -6.95709 152.009ZM84.9237 197.881C71.3459 191.102 66.2614 172.919 73.9616 157.496C81.6617 142.072 98.9872 135.077 112.829 141.988C126.802 148.964 131.557 167.147 123.791 182.373C116.091 197.796 98.8969 204.857 84.9237 197.881Z" fill="white" fill-opacity="0.5"/>
</svg>
