<svg width="26" height="15" viewBox="0 0 26 15" fill="none" xmlns="http://www.w3.org/2000/svg">
<path d="M0.56215 0.56215C0.922203 0.202206 1.41047 0 1.91959 0C2.42871 0 2.91698 0.202206 3.27703 0.56215L12.781 10.0662L22.285 0.56215C22.6472 0.212407 23.1321 0.0188807 23.6356 0.0232553C24.139 0.0276299 24.6205 0.229555 24.9765 0.585538C25.3325 0.941522 25.5344 1.42308 25.5388 1.9265C25.5432 2.42992 25.3497 2.91491 24.9999 3.27703L14.1385 14.1385C13.7784 14.4984 13.2901 14.7006 12.781 14.7006C12.2719 14.7006 11.7836 14.4984 11.4236 14.1385L0.56215 3.27703C0.202206 2.91698 0 2.42871 0 1.91959C0 1.41047 0.202206 0.922204 0.56215 0.56215Z" fill="white"/>
</svg>
