<svg width="170" height="171" viewBox="0 0 170 171" fill="none" xmlns="http://www.w3.org/2000/svg">
<path d="M134.171 93.6956C135.81 93.6956 136.903 92.6029 136.903 90.9639C136.903 73.7537 129.8 57.0899 117.234 45.3433C116.142 44.2506 114.502 44.2506 113.41 45.3433C112.317 46.436 112.317 48.0751 113.41 49.1678C124.883 60.0948 131.439 75.1196 131.439 90.9639C131.439 92.6029 132.532 93.6956 134.171 93.6956ZM166.952 164.722H163.674C163.947 163.902 164.221 163.083 164.221 161.99C164.221 159.804 163.401 157.892 162.035 156.526C163.401 155.16 164.221 153.248 164.221 151.063C164.221 148.877 163.401 146.965 162.035 145.599C163.401 144.233 164.221 142.321 164.221 140.136C164.221 137.95 163.401 136.038 162.035 134.672C163.401 133.306 164.221 131.394 164.221 129.209C164.221 127.023 163.401 125.111 162.035 123.745C163.401 122.379 164.221 120.467 164.221 118.282C164.221 116.096 163.401 114.184 162.035 112.818C163.401 111.452 164.221 109.54 164.221 107.354C164.221 102.71 160.669 99.1592 156.025 99.1592H123.244C118.6 99.1592 115.049 102.71 115.049 107.354C115.049 109.54 115.868 111.452 117.234 112.818C115.868 114.184 115.049 116.096 115.049 118.282C115.049 120.467 115.868 122.379 117.234 123.745C115.868 125.111 115.049 127.023 115.049 129.209C115.049 131.394 115.868 133.306 117.234 134.672C115.868 136.038 115.049 137.95 115.049 140.136C115.049 142.321 115.868 144.233 117.234 145.599C115.868 146.965 115.049 148.877 115.049 151.063C115.049 153.248 115.868 155.16 117.234 156.526C115.868 157.892 115.049 159.804 115.049 161.99C115.049 166.634 118.6 170.185 123.244 170.185H166.952C168.592 170.185 169.684 169.092 169.684 167.453C169.684 165.814 168.592 164.722 166.952 164.722ZM156.025 164.722H123.244C121.605 164.722 120.512 163.629 120.512 161.99C120.512 160.351 121.605 159.258 123.244 159.258H156.025C157.664 159.258 158.757 160.351 158.757 161.99C158.757 163.629 157.664 164.722 156.025 164.722ZM139.635 148.331H156.025C157.664 148.331 158.757 149.424 158.757 151.063C158.757 152.702 157.664 153.795 156.025 153.795H123.244C121.605 153.795 120.512 152.702 120.512 151.063C120.512 149.424 121.605 148.331 123.244 148.331H128.708C130.347 148.331 131.439 147.238 131.439 145.599C131.439 143.96 130.347 142.867 128.708 142.867H123.244C121.605 142.867 120.512 141.775 120.512 140.136C120.512 138.497 121.605 137.404 123.244 137.404H156.025C157.664 137.404 158.757 138.497 158.757 140.136C158.757 141.775 157.664 142.867 156.025 142.867H139.635C137.996 142.867 136.903 143.96 136.903 145.599C136.903 147.238 137.996 148.331 139.635 148.331ZM156.025 131.94H123.244C121.605 131.94 120.512 130.848 120.512 129.209C120.512 127.57 121.605 126.477 123.244 126.477H156.025C157.664 126.477 158.757 127.57 158.757 129.209C158.757 130.848 157.664 131.94 156.025 131.94ZM145.098 115.55H156.025C157.664 115.55 158.757 116.642 158.757 118.282C158.757 119.921 157.664 121.013 156.025 121.013H123.244C121.605 121.013 120.512 119.921 120.512 118.282C120.512 116.642 121.605 115.55 123.244 115.55H134.171C135.81 115.55 136.903 114.457 136.903 112.818C136.903 111.179 135.81 110.086 134.171 110.086H123.244C121.605 110.086 120.512 108.994 120.512 107.354C120.512 105.715 121.605 104.623 123.244 104.623H156.025C157.664 104.623 158.757 105.715 158.757 107.354C158.757 108.994 157.664 110.086 156.025 110.086H145.098C143.459 110.086 142.367 111.179 142.367 112.818C142.367 114.457 143.459 115.55 145.098 115.55ZM105.488 164.722H84.9993C83.3603 164.722 82.2676 165.814 82.2676 167.453C82.2676 169.092 83.3603 170.185 84.9993 170.185H105.488C107.127 170.185 108.219 169.092 108.219 167.453C108.219 165.814 106.853 164.722 105.488 164.722ZM69.9746 164.722H12.0611C15.066 150.79 16.7051 136.858 16.7051 123.199V90.9639C16.7051 63.9193 35.5543 40.6993 61.5061 34.9626C61.7793 35.5089 62.3256 36.0553 62.872 36.6016C63.6915 37.4212 64.7842 38.2407 65.8769 38.5139V58.1826C65.8769 59.8217 66.9697 60.9144 68.6087 60.9144C70.2478 60.9144 71.3405 59.8217 71.3405 58.1826V39.0602H76.804V47.2555C76.804 48.8946 77.8967 49.9873 79.5358 49.9873C81.1749 49.9873 82.2676 48.8946 82.2676 47.2555V38.5139C84.1798 37.9675 85.5457 36.6016 86.6384 34.9626C91.8288 36.0553 96.4728 37.6943 101.117 40.1529C101.663 40.4261 101.936 40.4261 102.483 40.4261C103.575 40.4261 104.395 39.8797 104.941 39.0602C105.761 37.6943 105.214 36.0553 103.849 35.2357C98.6582 32.7771 93.1946 30.8649 87.7311 29.7722C87.4579 28.1331 86.6384 26.4941 85.2725 25.1282C84.7262 24.5818 84.453 24.3087 83.9066 24.0355L92.6483 12.2889C94.2873 10.1034 94.5605 7.37168 93.4678 4.91308C92.1019 2.45449 89.6433 0.81543 86.9116 0.81543H61.2329C58.5012 0.81543 56.0426 2.45449 54.6767 4.91308C53.584 7.37168 53.8572 10.3766 55.4962 12.2889L64.2379 24.0355C62.3256 25.4014 60.9598 27.3136 60.6866 29.7722C31.7298 35.7821 11.2415 61.1876 11.2415 90.9639V123.199C11.2415 136.858 9.60247 150.79 6.32435 164.722H3.04622C1.40716 164.722 0.314453 165.814 0.314453 167.453C0.314453 169.092 1.40716 170.185 3.04622 170.185H69.9746C71.6137 170.185 72.7064 169.092 72.7064 167.453C72.7064 165.814 71.3405 164.722 69.9746 164.722ZM82.2676 31.6844C81.9944 32.7771 80.9017 33.5967 79.5358 33.5967H68.6087C67.7892 33.5967 67.2428 33.3235 66.6965 32.7771C66.1501 32.2308 65.8769 31.9576 65.8769 31.6844V30.8649C65.8769 29.2258 66.9697 28.1331 68.6087 28.1331H79.5358C80.3553 28.1331 80.9017 28.4063 81.448 28.9527C81.9944 29.499 82.2676 30.0454 82.2676 30.8649V31.6844ZM59.867 9.01074C59.3207 8.19121 59.5939 7.64486 59.5939 7.37168C59.867 6.82532 60.4134 6.27897 61.2329 6.27897H86.9116C87.7311 6.27897 88.2775 6.82532 88.5506 7.37168C88.5506 7.64486 89.097 8.46439 88.2775 9.28392L78.1699 22.9428H69.9746L59.867 9.01074Z" fill="white"/>
<path d="M87.7305 118.281C87.7305 110.632 81.7206 104.623 74.0716 104.623C69.4276 104.623 65.8763 101.071 65.8763 96.4272C65.8763 91.7832 69.4276 88.2319 74.0716 88.2319C78.7156 88.2319 82.2669 91.7832 82.2669 96.4272C82.2669 98.0663 83.3596 99.159 84.9987 99.159C86.6378 99.159 87.7305 98.0663 87.7305 96.4272C87.7305 89.871 83.0865 84.4074 76.8034 83.0415V74.573C76.8034 72.934 75.7107 71.8413 74.0716 71.8413C72.4326 71.8413 71.3398 72.934 71.3398 74.573V83.0415C65.0568 84.4074 60.4128 89.871 60.4128 96.4272C60.4128 104.076 66.4227 110.086 74.0716 110.086C78.7156 110.086 82.2669 113.637 82.2669 118.281C82.2669 122.925 78.7156 126.477 74.0716 126.477C69.4276 126.477 65.8763 122.925 65.8763 118.281C65.8763 116.642 64.7836 115.55 63.1445 115.55C61.5055 115.55 60.4128 116.642 60.4128 118.281C60.4128 124.838 65.0568 130.301 71.3398 131.667V140.136C71.3398 141.775 72.4326 142.867 74.0716 142.867C75.7107 142.867 76.8034 141.775 76.8034 140.136V131.667C83.0865 130.301 87.7305 124.838 87.7305 118.281ZM51.1247 44.2504C41.5635 49.1676 33.3682 57.0897 28.1779 66.9241C27.3583 68.29 27.9047 69.929 29.2706 70.7486C29.5438 71.0217 30.0901 71.0217 30.6365 71.0217C31.7292 71.0217 32.5487 70.4754 33.0951 69.6559C37.7391 60.9142 45.1148 53.5384 53.8565 49.1676C55.2224 48.6212 55.7687 46.9822 54.9492 45.6163C53.8565 44.2504 52.2174 43.704 51.1247 44.2504ZM24.8997 88.2319H25.1729C26.5388 88.2319 27.6315 87.1392 27.9047 85.7733C27.9047 84.9538 28.1779 83.8611 28.1779 83.0415C28.451 82.222 28.451 81.1293 28.7242 80.3098C28.9974 78.9439 27.9047 77.3048 26.5388 77.3048C25.1729 77.0316 23.5339 78.1243 23.5339 79.4902C23.5339 80.3098 23.2607 81.4025 23.2607 82.222C22.9875 83.0415 22.9875 84.1342 22.7143 84.9538C22.168 86.5928 23.2607 87.9587 24.8997 88.2319ZM24.8997 159.258H30.3633C32.0023 159.258 33.0951 158.165 33.0951 156.526C33.0951 154.887 32.0023 153.794 30.3633 153.794H24.8997C23.2607 153.794 22.168 154.887 22.168 156.526C22.168 158.165 23.2607 159.258 24.8997 159.258ZM38.5586 156.526C38.5586 158.165 39.6513 159.258 41.2904 159.258H63.1445C64.7836 159.258 65.8763 158.165 65.8763 156.526C65.8763 154.887 64.7836 153.794 63.1445 153.794H41.2904C39.6513 153.794 38.5586 154.887 38.5586 156.526Z" fill="white"/>
</svg>
