<svg width="201" height="201" viewBox="0 0 201 201" fill="none" xmlns="http://www.w3.org/2000/svg">
<path d="M200.22 191.603C200.188 192.184 199.941 192.731 199.528 193.14L192.866 199.802C192.524 200.143 192.089 200.376 191.615 200.469C191.141 200.563 190.649 200.513 190.203 200.327C189.757 200.142 189.377 199.827 189.109 199.425C188.842 199.022 188.701 198.549 188.703 198.066C188.702 197.746 188.765 197.428 188.888 197.132C189.011 196.836 189.191 196.568 189.418 196.342L191.893 193.867L9.72319 193.41C9.07618 193.41 8.45567 193.153 7.99816 192.695C7.54066 192.238 7.28363 191.617 7.28363 190.97L6.83794 8.80045L4.3632 11.2752C3.90593 11.7418 3.28204 12.0076 2.62878 12.0142C1.97551 12.0208 1.34638 11.7676 0.879783 11.3104C0.413188 10.8531 0.147349 10.2292 0.140751 9.57597C0.134152 8.9227 0.387333 8.29357 0.844596 7.82697L7.55339 1.20028L7.68241 1.07126C8.05472 0.755455 8.5114 0.555656 8.99602 0.496559C9.14798 0.479012 9.30147 0.479012 9.45344 0.496559C10.0418 0.532965 10.5966 0.78325 11.0133 1.20028L17.6635 7.8387C17.8945 8.06589 18.0786 8.33635 18.2051 8.63465C18.3316 8.93296 18.3981 9.25326 18.4008 9.57727C18.4035 9.90128 18.3424 10.2226 18.2209 10.523C18.0995 10.8234 17.92 11.0969 17.6928 11.328C17.4656 11.559 17.1952 11.743 16.8969 11.8695C16.5986 11.9961 16.2783 12.0626 15.9543 12.0653C15.6302 12.068 15.3089 12.0069 15.0085 11.8854C14.7081 11.7639 14.4346 11.5845 14.2035 11.3573L11.7288 8.88255L12.1745 188.577L191.869 189.023L189.348 186.501C188.881 186.044 188.615 185.42 188.609 184.767C188.602 184.114 188.855 183.485 189.312 183.018C189.77 182.551 190.394 182.286 191.047 182.279C191.7 182.272 192.329 182.526 192.796 182.983L199.458 189.645L199.575 189.762C199.896 190.128 200.1 190.581 200.162 191.064C200.204 191.24 200.224 191.422 200.22 191.603ZM22.6247 132.045V94.3493C22.6232 94.028 22.6851 93.7095 22.807 93.4121C22.929 93.1148 23.1084 92.8445 23.3351 92.6167C23.5618 92.3889 23.8312 92.2082 24.128 92.0848C24.4247 91.9615 24.7429 91.898 25.0643 91.898H30.9286V60.043C30.9715 59.4237 31.2478 58.8437 31.7017 58.4202C32.1556 57.9967 32.7533 57.7611 33.374 57.7611C33.9948 57.7611 34.5925 57.9967 35.0464 58.4202C35.5003 58.8437 35.7766 59.4237 35.8195 60.043V91.898H41.5665C41.8889 91.8965 42.2083 91.9588 42.5064 92.0815C42.8045 92.2041 43.0754 92.3846 43.3033 92.6125C43.5312 92.8405 43.7117 93.1113 43.8344 93.4094C43.957 93.7075 44.0194 94.027 44.0178 94.3493V132.045C44.0209 132.369 43.9597 132.689 43.8378 132.989C43.7158 133.288 43.5356 133.56 43.3075 133.79C43.0794 134.019 42.808 134.2 42.5092 134.324C42.2103 134.447 41.8899 134.51 41.5665 134.508H35.7608V166.363C35.7179 166.983 35.4416 167.563 34.9877 167.986C34.5339 168.41 33.9362 168.645 33.3154 168.645C32.6946 168.645 32.0969 168.41 31.6431 167.986C31.1892 167.563 30.9129 166.983 30.87 166.363V134.508H25.0056C24.3648 134.493 23.7557 134.226 23.3102 133.765C22.8646 133.304 22.6184 132.686 22.6247 132.045ZM27.4921 129.606H39.1035V96.7654H27.4921V129.606ZM93.3017 141.475V103.767C93.3017 103.12 93.5587 102.5 94.0162 102.042C94.4737 101.585 95.0942 101.328 95.7412 101.328H101.606V69.4728C101.648 68.8535 101.925 68.2736 102.379 67.85C102.833 67.4265 103.43 67.191 104.051 67.191C104.672 67.191 105.269 67.4265 105.723 67.85C106.177 68.2736 106.453 68.8535 106.496 69.4728V101.328H112.361C113.008 101.328 113.628 101.585 114.086 102.042C114.543 102.5 114.8 103.12 114.8 103.767V141.475C114.8 142.122 114.543 142.743 114.086 143.2C113.628 143.658 113.008 143.915 112.361 143.915H106.496V175.77C106.453 176.389 106.177 176.969 105.723 177.392C105.269 177.816 104.672 178.052 104.051 178.052C103.43 178.052 102.833 177.816 102.379 177.392C101.925 176.969 101.648 176.389 101.606 175.77V143.891H95.7412C95.1003 143.888 94.4863 143.633 94.032 143.181C93.5777 142.729 93.3195 142.116 93.3134 141.475H93.3017ZM98.1925 139.024H109.792V106.184H98.2042L98.1925 139.024ZM57.9866 103.767V66.0598C57.9866 65.7384 58.0501 65.4202 58.1735 65.1235C58.2968 64.8267 58.4775 64.5573 58.7053 64.3306C58.9331 64.1039 59.2034 63.9245 59.5007 63.8025C59.7981 63.6806 60.1166 63.6187 60.4379 63.6202H66.1967V31.7652C66.2396 31.1459 66.5159 30.5659 66.9698 30.1424C67.4237 29.7189 68.0213 29.4833 68.6421 29.4833C69.2629 29.4833 69.8606 29.7189 70.3145 30.1424C70.7684 30.5659 71.0446 31.1459 71.0876 31.7652V63.6202H76.8932C77.5403 63.6202 78.1608 63.8772 78.6183 64.3348C79.0758 64.7923 79.3328 65.4128 79.3328 66.0598V103.767C79.3328 104.414 79.0758 105.035 78.6183 105.492C78.1608 105.95 77.5403 106.207 76.8932 106.207H71.0993V138.027C71.0993 138.677 70.841 139.3 70.3813 139.76C69.9216 140.22 69.2981 140.478 68.648 140.478C67.9979 140.478 67.3744 140.22 66.9147 139.76C66.455 139.3 66.1967 138.677 66.1967 138.027V106.207H60.4145C59.7695 106.204 59.152 105.945 58.697 105.488C58.242 105.031 57.9866 104.412 57.9866 103.767ZM62.8775 101.328H74.4889V68.4876H62.8775V101.328ZM164.025 127.33V89.6344C164.029 88.9852 164.288 88.3635 164.747 87.9045C165.206 87.4454 165.828 87.1862 166.477 87.1831H172.341V55.3398C172.341 54.6928 172.598 54.0723 173.056 53.6148C173.513 53.1572 174.134 52.9002 174.781 52.9002C175.428 52.9002 176.048 53.1572 176.506 53.6148C176.963 54.0723 177.22 54.6928 177.22 55.3398V87.1831H183.026C183.675 87.1862 184.297 87.4454 184.756 87.9045C185.215 88.3635 185.474 88.9852 185.477 89.6344V127.33C185.474 127.979 185.215 128.601 184.756 129.06C184.297 129.519 183.675 129.779 183.026 129.782H177.22V161.625C177.22 162.272 176.963 162.892 176.506 163.35C176.048 163.807 175.428 164.064 174.781 164.064C174.134 164.064 173.513 163.807 173.056 163.35C172.598 162.892 172.341 162.272 172.341 161.625V129.817H166.477C166.15 129.818 165.827 129.755 165.525 129.63C165.223 129.506 164.95 129.323 164.719 129.091C164.489 128.86 164.307 128.585 164.184 128.283C164.061 127.98 163.999 127.657 164.002 127.33H164.025ZM168.916 124.891H180.528V92.0505H168.916V124.891ZM128.687 89.6344V51.9267C128.687 51.2797 128.944 50.6592 129.402 50.2017C129.859 49.7442 130.48 49.4872 131.127 49.4872H136.932V17.6321C136.975 17.0128 137.251 16.4329 137.705 16.0094C138.159 15.5858 138.757 15.3503 139.378 15.3503C139.998 15.3503 140.596 15.5858 141.05 16.0094C141.504 16.4329 141.78 17.0128 141.823 17.6321V49.4872H147.629C148.276 49.4872 148.896 49.7442 149.354 50.2017C149.811 50.6592 150.068 51.2797 150.068 51.9267V89.6344C150.068 90.2814 149.811 90.9019 149.354 91.3594C148.896 91.8169 148.276 92.0739 147.629 92.0739H141.823V123.952C141.78 124.572 141.504 125.152 141.05 125.575C140.596 125.999 139.998 126.234 139.378 126.234C138.757 126.234 138.159 125.999 137.705 125.575C137.251 125.152 136.975 124.572 136.932 123.952V92.0739H131.127C130.804 92.077 130.485 92.0162 130.186 91.895C129.887 91.7738 129.615 91.5946 129.386 91.3678C129.157 91.1409 128.976 90.8709 128.851 90.5734C128.727 90.2759 128.664 89.9567 128.664 89.6344H128.687ZM133.566 87.1831H145.178V54.3428H133.566V87.1831Z" fill="white"/>
</svg>
