<svg width="202" height="202" viewBox="0 0 202 202" fill="none" xmlns="http://www.w3.org/2000/svg">
<path d="M100.999 0.950195C81.2112 0.950195 61.8676 6.81802 45.4145 17.8117C28.9613 28.8053 16.1377 44.431 8.56511 62.7127C0.992569 80.9944 -0.988755 101.111 2.8717 120.519C6.73215 139.927 16.261 157.754 30.2532 171.746C44.2455 185.738 62.0727 195.267 81.4805 199.128C100.888 202.988 121.005 201.007 139.287 193.434C157.568 185.862 173.194 173.038 184.188 156.585C195.181 140.132 201.049 120.788 201.049 101C201.019 74.4744 190.469 49.0436 171.712 30.2871C152.956 11.5305 127.525 0.979987 100.999 0.950195ZM100.999 194.797C82.448 194.797 64.3133 189.296 48.8885 178.989C33.4637 168.683 21.4415 154.034 14.3422 136.895C7.24299 119.756 5.38549 100.896 9.00467 82.7013C12.6238 64.5065 21.5571 47.7935 34.6749 34.6758C47.7926 21.5581 64.5056 12.6248 82.7004 9.0056C100.895 5.38643 119.755 7.24392 136.894 14.3432C154.033 21.4424 168.682 33.4646 178.988 48.8894C189.295 64.3142 194.796 82.4489 194.796 101C194.768 125.868 184.877 149.709 167.293 167.294C149.708 184.878 125.867 194.769 100.999 194.797Z" fill="white"/>
<path d="M155.808 95.6024C157.77 93.1377 158.839 90.081 158.841 86.9308C158.837 83.2006 157.353 79.6244 154.716 76.9867C152.078 74.3491 148.502 72.8654 144.772 72.8613H122.955C122.904 72.789 122.855 72.7149 122.809 72.6393C121.485 70.4195 122.532 66.3237 123.1 64.7682C127.471 57.5193 129.581 44.358 125.581 34.5562C124.612 31.8747 122.997 29.4733 120.879 27.5646C118.761 25.6559 116.205 24.2988 113.437 23.6133C107.875 22.2626 103.761 22.6675 101.208 24.8123C100.284 25.6187 99.5719 26.6402 99.1357 27.7866C98.6995 28.933 98.5521 30.1691 98.7065 31.3859C98.7815 32.5208 98.8753 33.6683 98.9691 34.8204C99.5116 41.4722 100.024 47.755 96.9384 53.1202C93.0239 59.9252 87.6259 63.7161 81.3744 68.1074C79.4734 69.444 77.5052 70.8275 75.5011 72.3501C73.9683 73.4686 72.5084 74.6837 71.1302 75.9879H52.5381C50.0321 76.0102 47.6373 77.0255 45.8789 78.8111C44.1205 80.5968 43.1422 83.0069 43.1584 85.5129V144.627C43.1422 147.133 44.1205 149.543 45.8789 151.329C47.6373 153.114 50.0321 154.13 52.5381 154.152H73.5408C77.3161 160.092 84.6948 166.663 98.8956 166.661C101.238 166.653 103.578 166.49 105.899 166.174H107.816C106.199 164.388 104.913 162.328 104.017 160.092C80.1222 162.781 76.3562 146.145 75.9873 144.103V131.894C75.9873 131.065 75.6579 130.269 75.0716 129.683C74.4852 129.097 73.69 128.767 72.8607 128.767C72.0315 128.767 71.2363 129.097 70.6499 129.683C70.0636 130.269 69.7342 131.065 69.7342 131.894V144.355C69.7341 144.499 69.744 144.643 69.7639 144.786C69.9522 145.843 70.2219 146.884 70.5705 147.899H52.5381C51.69 147.878 50.8846 147.522 50.2986 146.909C49.7125 146.296 49.3935 145.475 49.4115 144.627V85.5129C49.3935 84.6648 49.7125 83.8441 50.2986 83.2308C50.8846 82.6174 51.69 82.2615 52.5381 82.241H68.1709V99.9108C68.1709 100.74 68.5003 101.535 69.0866 102.122C69.673 102.708 70.4682 103.037 71.2975 103.037C72.1267 103.037 72.9219 102.708 73.5083 102.122C74.0946 101.535 74.424 100.74 74.424 99.9108V81.6813C75.8504 80.0268 77.4845 78.5634 79.2858 77.3276C81.1977 75.8737 83.1159 74.5262 84.9699 73.224C91.5435 68.6061 97.7529 64.2429 102.358 56.2374C106.417 49.187 105.771 41.2846 105.2 34.3108C105.107 33.2011 105.022 32.0906 104.947 30.9795C104.916 30.4855 104.938 29.8429 105.23 29.5975C105.762 29.1535 107.777 28.6721 111.963 29.6882C113.766 30.148 115.426 31.0501 116.793 32.3128C118.159 33.5754 119.19 35.1589 119.79 36.9199C122.94 44.6316 121.216 55.9732 117.63 61.7292C117.533 61.8824 117.451 62.0441 117.383 62.2122C116.035 65.5974 115.65 69.2895 116.27 72.8801C112.606 72.9765 109.123 74.4985 106.564 77.1224C104.004 79.7463 102.569 83.2652 102.563 86.9308C102.565 90.081 103.634 93.1377 105.596 95.6024C102.877 96.5821 100.526 98.3769 98.8644 100.742C97.2028 103.107 96.3112 105.927 96.3112 108.817C96.3112 111.707 97.2028 114.527 98.8644 116.892C100.526 119.257 102.877 121.051 105.596 122.031C104.213 123.774 103.265 125.822 102.831 128.004C102.397 130.186 102.49 132.441 103.101 134.58C103.712 136.72 104.825 138.683 106.346 140.306C107.867 141.93 109.754 143.168 111.849 143.917C109.887 146.382 108.818 149.438 108.816 152.589C108.82 156.319 110.304 159.895 112.942 162.533C115.579 165.17 119.156 166.654 122.886 166.658H138.519C142.249 166.654 145.825 165.17 148.463 162.533C151.1 159.895 152.584 156.319 152.588 152.589C152.586 149.438 151.517 146.382 149.555 143.917C151.65 143.168 153.537 141.93 155.058 140.306C156.579 138.683 157.692 136.72 158.303 134.58C158.914 132.441 159.007 130.186 158.573 128.004C158.139 125.822 157.192 123.774 155.808 122.031C158.528 121.051 160.878 119.257 162.54 116.892C164.201 114.527 165.093 111.707 165.093 108.817C165.093 105.927 164.201 103.107 162.54 100.742C160.878 98.3769 158.528 96.5821 155.808 95.6024ZM116.633 79.1144H144.772C146.845 79.1144 148.833 79.9379 150.299 81.4038C151.765 82.8697 152.588 84.8578 152.588 86.9308C152.588 89.0039 151.765 90.992 150.299 92.4579C148.833 93.9237 146.845 94.7472 144.772 94.7472H116.633C114.56 94.7472 112.571 93.9237 111.106 92.4579C109.64 90.992 108.816 89.0039 108.816 86.9308C108.816 84.8578 109.64 82.8697 111.106 81.4038C112.571 79.9379 114.56 79.1144 116.633 79.1144ZM138.519 160.405H122.886C120.813 160.405 118.825 159.582 117.359 158.116C115.893 156.65 115.069 154.662 115.069 152.589C115.069 150.516 115.893 148.527 117.359 147.062C118.825 145.596 120.813 144.772 122.886 144.772H138.519C140.592 144.772 142.58 145.596 144.046 147.062C145.511 148.527 146.335 150.516 146.335 152.589C146.335 154.662 145.511 156.65 144.046 158.116C142.58 159.582 140.592 160.405 138.519 160.405ZM144.772 138.519H116.633C114.56 138.519 112.571 137.696 111.106 136.23C109.64 134.764 108.816 132.776 108.816 130.703C108.816 128.63 109.64 126.642 111.106 125.176C112.571 123.71 114.56 122.886 116.633 122.886H144.772C146.845 122.886 148.833 123.71 150.299 125.176C151.765 126.642 152.588 128.63 152.588 130.703C152.588 132.776 151.765 134.764 150.299 136.23C148.833 137.696 146.845 138.519 144.772 138.519ZM151.025 116.633H110.379C108.306 116.633 106.318 115.81 104.852 114.344C103.387 112.878 102.563 110.89 102.563 108.817C102.563 106.744 103.387 104.756 104.852 103.29C106.318 101.824 108.306 101 110.379 101H151.025C153.098 101 155.086 101.824 156.552 103.29C158.018 104.756 158.841 106.744 158.841 108.817C158.841 110.89 158.018 112.878 156.552 114.344C155.086 115.81 153.098 116.633 151.025 116.633Z" fill="white"/>
<path d="M60.1417 47.6687L58.9192 55.1616C58.825 55.7405 58.8955 56.3344 59.1228 56.8752C59.3501 57.416 59.7249 57.8819 60.2045 58.2198C60.684 58.5576 61.249 58.7538 61.8347 58.7857C62.4204 58.8177 63.0034 58.6843 63.5168 58.4007L69.734 54.9646L75.9512 58.4007C76.4647 58.6843 77.0476 58.8177 77.6333 58.7857C78.2191 58.7538 78.784 58.5576 79.2636 58.2198C79.7431 57.8819 80.1179 57.416 80.3452 56.8752C80.5725 56.3344 80.643 55.7405 80.5488 55.1616L79.3263 47.6687L84.4789 42.3895C84.88 41.978 85.1599 41.464 85.2879 40.9038C85.4159 40.3436 85.3871 39.7589 85.2045 39.2141C85.022 38.6692 84.6928 38.1852 84.2532 37.8152C83.8135 37.4451 83.2804 37.2034 82.7124 37.1166L75.7198 36.0473L72.5651 29.3252C72.313 28.7872 71.9128 28.3322 71.4114 28.0134C70.91 27.6947 70.3282 27.5254 69.734 27.5254C69.1399 27.5254 68.558 27.6947 68.0566 28.0134C67.5552 28.3322 67.155 28.7872 66.9029 29.3252L63.7482 36.0473L56.7557 37.1166C56.1876 37.2034 55.6545 37.4451 55.2149 37.8152C54.7752 38.1852 54.446 38.6692 54.2635 39.2141C54.081 39.7589 54.0521 40.3436 54.1801 40.9038C54.3081 41.464 54.5881 41.978 54.9892 42.3895L60.1417 47.6687ZM66.3417 41.9753C66.8491 41.8977 67.3295 41.6964 67.7407 41.3891C68.1518 41.0818 68.481 40.6781 68.6991 40.2135L69.734 38.0108L70.7689 40.215C70.9872 40.6793 71.3165 41.0828 71.7276 41.3898C72.1388 41.6967 72.6191 41.8978 73.1263 41.9753L75.7526 42.377L73.7485 44.4312C73.4066 44.7817 73.1518 45.2077 73.0046 45.6747C72.8574 46.1417 72.822 46.6368 72.9012 47.12L73.3405 49.8136L71.2457 48.6567C70.7828 48.4005 70.2623 48.2661 69.7332 48.2661C69.2041 48.2661 68.6837 48.4005 68.2208 48.6567L66.126 49.8136L66.5668 47.1185C66.6457 46.6355 66.6102 46.1407 66.463 45.674C66.3159 45.2072 66.0612 44.7815 65.7195 44.4312L63.7138 42.377L66.3417 41.9753Z" fill="white"/>
</svg>
