<svg width="15" height="26" viewBox="0 0 15 26" fill="none" xmlns="http://www.w3.org/2000/svg">
<path d="M0.56215 0.56215C0.202206 0.922203 0 1.41047 0 1.91959C0 2.42871 0.202206 2.91698 0.56215 3.27703L10.0661 12.781L0.56215 22.285C0.212407 22.6471 0.0188807 23.1321 0.0232553 23.6356C0.0276299 24.139 0.229555 24.6205 0.585538 24.9765C0.941522 25.3325 1.42308 25.5344 1.9265 25.5388C2.42992 25.5432 2.91491 25.3497 3.27703 24.9999L14.1385 14.1385C14.4984 13.7784 14.7006 13.2901 14.7006 12.781C14.7006 12.2719 14.4984 11.7836 14.1385 11.4236L3.27703 0.56215C2.91698 0.202206 2.4287 0 1.91959 0C1.41047 0 0.922203 0.202206 0.56215 0.56215Z" fill="white"/>
</svg>
