<svg width="20" height="21" viewBox="0 0 20 21" fill="none" xmlns="http://www.w3.org/2000/svg">
<path d="M12.4718 0.974609C11.3581 0.975608 10.2604 1.23998 9.26838 1.74615C8.27636 2.25231 7.41812 2.98592 6.76371 3.88706C6.10931 4.78821 5.67731 5.83135 5.50298 6.93131C5.32865 8.03127 5.41693 9.15687 5.76063 10.2162L0.682951 15.293C0.617447 15.3586 0.565505 15.4364 0.530092 15.5221C0.494679 15.6077 0.47649 15.6995 0.476563 15.7922V19.3202C0.476563 19.5073 0.550902 19.6868 0.683228 19.8191C0.815554 19.9515 0.995026 20.0258 1.18216 20.0258H4.71016C4.8973 20.0258 5.07677 19.9515 5.2091 19.8191C5.34142 19.6868 5.41576 19.5073 5.41576 19.3202V17.909H6.82696C7.0141 17.909 7.19357 17.8347 7.3259 17.7023C7.45822 17.57 7.53256 17.3905 7.53256 17.2034V15.7922H8.94376C9.03645 15.7923 9.12825 15.7741 9.2139 15.7387C9.29956 15.7033 9.3774 15.6513 9.44298 15.5858L10.2862 14.7417C11.2559 15.0566 12.2824 15.1576 13.295 15.0376C14.3075 14.9177 15.282 14.5798 16.1514 14.0471C17.0208 13.5144 17.7645 12.7996 18.3311 11.952C18.8977 11.1043 19.274 10.1439 19.4338 9.13692C19.5937 8.12992 19.5334 7.10024 19.2571 6.11877C18.9809 5.1373 18.4952 4.22736 17.8335 3.45161C17.1718 2.67585 16.3499 2.05272 15.4243 1.62511C14.4987 1.1975 13.4914 0.975573 12.4718 0.974609ZM14.2358 7.67781C13.9567 7.67781 13.6838 7.59504 13.4517 7.43998C13.2197 7.28491 13.0388 7.06451 12.932 6.80665C12.8252 6.54879 12.7972 6.26504 12.8517 5.9913C12.9061 5.71755 13.0405 5.4661 13.2379 5.26874C13.4353 5.07138 13.6867 4.93698 13.9605 4.88252C14.2342 4.82807 14.5179 4.85602 14.7758 4.96283C15.0337 5.06964 15.2541 5.25052 15.4091 5.48259C15.5642 5.71466 15.647 5.9875 15.647 6.26661C15.647 6.64088 15.4983 6.99983 15.2336 7.26448C14.969 7.52913 14.61 7.67781 14.2358 7.67781Z" fill="white"/>
</svg>
