<svg width="37" height="23" viewBox="0 0 37 23" fill="none" xmlns="http://www.w3.org/2000/svg">
<path d="M23.491 19.7839H13.7988V2.36719H23.491V19.7839Z" fill="#FF5F00"/>
<path d="M14.4108 11.0751C14.4093 9.39786 14.7895 7.74227 15.5224 6.23366C16.2554 4.72505 17.3221 3.40296 18.6416 2.36748C17.0076 1.0834 15.0453 0.284891 12.9789 0.0632071C10.9125 -0.158477 8.82549 0.205607 6.95626 1.11385C5.08703 2.0221 3.51103 3.43786 2.40838 5.19935C1.30572 6.96084 0.720882 8.99699 0.720703 11.0751C0.721102 13.153 1.30601 15.1888 2.40859 16.95C3.51118 18.7113 5.08697 20.1268 6.95593 21.035C8.82489 21.9432 10.9116 22.3074 12.9778 22.086C15.0439 21.8645 17.0061 21.0664 18.6401 19.7827C17.321 18.747 16.2548 17.4248 15.5221 15.9162C14.7894 14.4076 14.4093 12.7522 14.4108 11.0751Z" fill="#EB001B"/>
<path d="M36.5615 11.0751C36.5613 13.1532 35.9765 15.1894 34.8738 16.9509C33.7712 18.7124 32.1952 20.1281 30.3259 21.0364C28.4567 21.9446 26.3697 22.3087 24.3033 22.087C22.2369 21.8653 20.2746 21.0668 18.6406 19.7827C21.2168 17.7548 22.8714 14.6083 22.8714 11.0751C22.8714 7.54188 21.2168 4.39543 18.6406 2.36748C20.2746 1.0834 22.2369 0.284891 24.3033 0.0632071C26.3697 -0.158477 28.4567 0.205607 30.3259 1.11385C32.1952 2.0221 33.7712 3.43786 34.8738 5.19935C35.9765 6.96084 36.5613 8.99699 36.5615 11.0751Z" fill="#F79E1B"/>
</svg>
