<svg width="738" height="279" viewBox="0 0 738 279" fill="none" xmlns="http://www.w3.org/2000/svg">
<path d="M283.197 16.0112C284.181 15.8337 285.177 16.2605 285.728 17.0961L305.728 47.4514C306.19 48.1529 306.269 49.0396 305.938 49.8118L289.876 87.2848C289.545 88.057 288.848 88.6113 288.021 88.7603L252.246 95.2076C251.261 95.385 250.265 94.9582 249.715 94.1227L229.714 63.7674C229.252 63.0659 229.173 62.1791 229.504 61.407L245.567 23.9339C245.898 23.1618 246.594 22.6075 247.421 22.4585L283.197 16.0112Z" stroke="#FCFCFC" stroke-opacity="0.2"/>
<path d="M700.197 59.0112C701.181 58.8337 702.177 59.2605 702.728 60.0961L722.728 90.4514C723.19 91.1529 723.269 92.0396 722.938 92.8118L706.876 130.285C706.545 131.057 705.848 131.611 705.021 131.76L669.246 138.208C668.261 138.385 667.265 137.958 666.715 137.123L646.714 106.767C646.252 106.066 646.173 105.179 646.504 104.407L662.567 66.9339C662.898 66.1618 663.594 65.6075 664.421 65.4585L700.197 59.0112Z" stroke="#FCFCFC" stroke-opacity="0.2"/>
<path d="M68.1967 183.011C69.1814 182.834 70.1771 183.261 70.7276 184.096L90.728 214.451C91.1902 215.153 91.2692 216.04 90.9382 216.812L74.8756 254.285C74.5446 255.057 73.848 255.611 73.0212 255.76L37.2457 262.208C36.2609 262.385 35.2652 261.958 34.7147 261.123L14.7143 230.767C14.2521 230.066 14.1731 229.179 14.5041 228.407L30.5667 190.934C30.8977 190.162 31.5943 189.607 32.4211 189.458L68.1967 183.011Z" stroke="#FCFCFC" stroke-opacity="0.2"/>
</svg>
