<svg width="9" height="9" viewBox="0 0 9 9" fill="none" xmlns="http://www.w3.org/2000/svg">
<path fill-rule="evenodd" clip-rule="evenodd" d="M0.182807 7.96125C0.0890392 7.86748 0.0363606 7.7403 0.0363607 7.6077C0.0363607 7.47509 0.0890393 7.34791 0.182807 7.25414L6.4004 1.03655L1.95057 1.03726C1.88483 1.03726 1.81973 1.02431 1.75899 0.999152C1.69825 0.973993 1.64306 0.937117 1.59657 0.890629C1.55009 0.844141 1.51321 0.788952 1.48805 0.728212C1.46289 0.667473 1.44994 0.602372 1.44994 0.536629C1.44994 0.470885 1.46289 0.405785 1.48805 0.345045C1.51321 0.284306 1.55009 0.229117 1.59657 0.182629C1.64306 0.136141 1.69825 0.0992646 1.75899 0.0741052C1.81973 0.0489459 1.88483 0.0359971 1.95057 0.0359971H7.60743C7.6732 0.0359141 7.73833 0.0488064 7.79911 0.073936C7.85989 0.0990656 7.91511 0.135939 7.96161 0.182444C8.00812 0.228948 8.04499 0.28417 8.07012 0.344947C8.09525 0.405724 8.10814 0.470862 8.10806 0.536629L8.10806 6.19348C8.10806 6.25923 8.09511 6.32433 8.06995 6.38507C8.04479 6.44581 8.00792 6.50099 7.96143 6.54748C7.91494 6.59397 7.85975 6.63085 7.79901 6.65601C7.73827 6.68117 7.67317 6.69411 7.60743 6.69411C7.47465 6.69411 7.34731 6.64137 7.25343 6.54748C7.20694 6.50099 7.17006 6.44581 7.14491 6.38507C7.11975 6.32433 7.1068 6.25923 7.1068 6.19348L7.1075 1.74366L0.889914 7.96125C0.796146 8.05502 0.668969 8.1077 0.536361 8.1077C0.403752 8.1077 0.276576 8.05502 0.182807 7.96125Z" fill="white"/>
</svg>
