<svg width="24" height="21" viewBox="0 0 24 21" fill="none" xmlns="http://www.w3.org/2000/svg">
<path d="M22.7592 11.1794L14.1192 19.8194C13.9849 19.9538 13.8138 20.0453 13.6275 20.0824C13.4412 20.1195 13.248 20.1005 13.0725 20.0278C12.897 19.9551 12.747 19.8319 12.6415 19.6739C12.5361 19.5159 12.4798 19.3302 12.48 19.1402V11.4602H0.96C0.705392 11.4602 0.461213 11.359 0.281178 11.179C0.101143 10.999 0 10.7548 0 10.5002C0 10.2456 0.101143 10.0014 0.281178 9.82135C0.461213 9.64131 0.705392 9.54017 0.96 9.54017H12.48V1.86017C12.4798 1.67019 12.5361 1.48444 12.6415 1.32643C12.747 1.16842 12.897 1.04525 13.0725 0.972532C13.248 0.89981 13.4412 0.880798 13.6275 0.917902C13.8138 0.955006 13.9849 1.04656 14.1192 1.18097L22.7592 9.82097C22.8485 9.91013 22.9193 10.016 22.9676 10.1325C23.0159 10.2491 23.0408 10.374 23.0408 10.5002C23.0408 10.6263 23.0159 10.7513 22.9676 10.8678C22.9193 10.9843 22.8485 11.0902 22.7592 11.1794Z" fill="white"/>
</svg>
