<svg width="29" height="29" viewBox="0 0 29 29" fill="none" xmlns="http://www.w3.org/2000/svg">
<path fill-rule="evenodd" clip-rule="evenodd" d="M12.9767 0.657227C11.0119 0.657394 9.07563 1.12742 7.32946 2.02809C5.58328 2.92876 4.0778 4.23395 2.93864 5.83478C1.79947 7.43561 1.05965 9.28565 0.780893 11.2305C0.502136 13.1755 0.692528 15.1588 1.33618 17.0152C1.97984 18.8715 3.0581 20.547 4.481 21.9019C5.90389 23.2568 7.63017 24.2518 9.5158 24.8038C11.4014 25.3558 13.3917 25.4489 15.3207 25.0753C17.2496 24.7017 19.0612 23.8722 20.6044 22.6561L25.8982 27.95C26.1716 28.214 26.5378 28.3601 26.9179 28.3568C27.298 28.3535 27.6615 28.2011 27.9303 27.9323C28.1991 27.6636 28.3515 27.3 28.3548 26.9199C28.3581 26.5398 28.212 26.1737 27.948 25.9003L22.6541 20.6064C24.0863 18.7895 24.978 16.6061 25.2272 14.3061C25.4765 12.0061 25.0731 9.68236 24.0634 7.60087C23.0537 5.51937 21.4783 3.7642 19.5176 2.53622C17.5569 1.30824 15.2901 0.657071 12.9767 0.657227ZM3.55437 12.9787C3.55437 10.4797 4.54707 8.08314 6.31409 6.31612C8.08112 4.5491 10.4777 3.55639 12.9767 3.55639C15.4756 3.55639 17.8722 4.5491 19.6392 6.31612C21.4062 8.08314 22.399 10.4797 22.399 12.9787C22.399 15.4776 21.4062 17.8742 19.6392 19.6412C17.8722 21.4083 15.4756 22.401 12.9767 22.401C10.4777 22.401 8.08112 21.4083 6.31409 19.6412C4.54707 17.8742 3.55437 15.4776 3.55437 12.9787Z" fill="#AFAFAF"/>
</svg>
