<svg width="35" height="12" viewBox="0 0 35 12" fill="none" xmlns="http://www.w3.org/2000/svg">
<path d="M6.5912 6.23512L5.6448 1.65992C5.57837 1.39309 5.4161 1.16001 5.18891 1.0051C4.96171 0.850194 4.68546 0.784283 4.4128 0.819925H0.0336L0 1.03832C3.4048 1.85592 5.656 3.83832 6.5912 6.23512ZM9.772 0.920725L7.0056 7.98233L6.72 6.91832C5.81858 5.16493 4.4653 3.68405 2.8 2.62872L5.3256 11.2583H8.3104L12.7568 0.920725H9.772ZM13.9048 0.920725L12.1408 11.2807H14.9408L16.7104 0.920725H13.9048ZM32.4352 0.920725H30.24C29.9329 0.880704 29.6212 0.943644 29.3537 1.0997C29.0862 1.25575 28.8779 1.4961 28.7616 1.78312L24.5896 11.2695H27.552C27.552 11.2695 28.0336 9.99273 28.1456 9.71273H31.7576C31.8416 10.0711 32.0992 11.2583 32.0992 11.2583H34.72L32.4352 0.920725ZM28.9576 7.59592C29.1928 7.00232 30.0776 4.70073 30.0776 4.70073C30.0776 4.70073 30.3128 4.10713 30.4528 3.71512L30.6488 4.60553L31.2984 7.59592H28.9576ZM22.4 5.07032C21.42 4.59433 20.8152 4.26952 20.8208 3.78792C20.8264 3.30632 21.3304 2.89752 22.4336 2.89752C23.1576 2.87819 23.8774 3.01374 24.5448 3.29513L24.8024 3.41272L25.1832 1.17272C24.3738 0.879537 23.5184 0.733503 22.6576 0.741524C19.8576 0.741524 17.9032 2.14152 17.8864 4.15752C17.8864 5.64152 19.2864 6.47592 20.356 6.95752C21.4256 7.43912 21.84 7.79192 21.84 8.24552C21.84 8.93992 20.9608 9.25912 20.16 9.25912C19.2438 9.28026 18.3352 9.08857 17.5056 8.69912L17.1416 8.53113L16.744 10.8495C17.7506 11.2249 18.8169 11.4146 19.8912 11.4095C22.8536 11.4095 24.78 10.0207 24.8024 7.87033C24.7968 6.70553 24.0464 5.80953 22.4 5.07032Z" fill="#273991"/>
<path d="M5.6448 1.66195C5.57837 1.39511 5.4161 1.16204 5.1889 1.00713C4.96171 0.85222 4.68546 0.786309 4.4128 0.821951H0.0336L0 1.04035C3.4048 1.86355 5.656 3.84035 6.5912 6.24275L5.6448 1.66195Z" fill="#F99F1B"/>
</svg>
