<svg width="254" height="221" viewBox="0 0 254 221" fill="none" xmlns="http://www.w3.org/2000/svg">
<path fill-rule="evenodd" clip-rule="evenodd" d="M237.067 194.733V152.4H244.348C246.908 152.4 249.363 151.383 251.173 149.573C252.983 147.763 254 145.308 254 142.748V77.3853C254 74.8255 252.983 72.3704 251.173 70.5603C249.363 68.7502 246.908 67.7333 244.348 67.7333H237.067V25.4C237.067 18.6635 234.391 12.2029 229.627 7.43949C224.864 2.67606 218.403 0 211.667 0H25.4C18.6635 0 12.2029 2.67606 7.43949 7.43949C2.67606 12.2029 0 18.6635 0 25.4L0 194.733C0 201.47 2.67606 207.93 7.43949 212.694C12.2029 217.457 18.6635 220.133 25.4 220.133H211.667C218.403 220.133 224.864 217.457 229.627 212.694C234.391 207.93 237.067 201.47 237.067 194.733ZM237.067 84.6667V135.467H160.867C154.13 135.467 147.67 132.791 142.906 128.027C138.143 123.264 135.467 116.803 135.467 110.067C135.467 103.33 138.143 96.8696 142.906 92.1061C147.67 87.3427 154.13 84.6667 160.867 84.6667H237.067Z" fill="#2B3979"/>
</svg>
