<svg width="259" height="259" viewBox="0 0 259 259" fill="none" xmlns="http://www.w3.org/2000/svg">
<g clip-path="url(#clip0_1685_457)">
<path d="M66.994 55.6458C65.5565 56.5448 64.5349 57.9779 64.1538 59.63C63.7726 61.2821 64.0631 63.0179 64.9614 64.4558L71.9548 75.6317C72.3896 76.3647 72.9666 77.0033 73.6519 77.5101C74.3371 78.0169 75.1167 78.3816 75.9448 78.5828C76.773 78.784 77.6331 78.8176 78.4744 78.6817C79.3158 78.5458 80.1215 78.2431 80.8442 77.7913C81.5669 77.3396 82.192 76.748 82.6828 76.0512C83.1735 75.3544 83.5201 74.5666 83.7021 73.734C83.884 72.9014 83.8977 72.0408 83.7424 71.2028C83.587 70.3648 83.2657 69.5663 82.7974 68.8543L75.804 57.6784C74.905 56.2409 73.4719 55.2193 71.8198 54.8381C70.1678 54.457 68.432 54.7475 66.994 55.6458ZM35.1828 81.2052C34.4132 82.7162 34.2752 84.4711 34.7992 86.0838C35.3232 87.6965 36.4663 89.0351 37.9771 89.8052L54.0934 98.0169C55.6049 98.7884 57.361 98.9278 58.9753 98.4046C60.5896 97.8813 61.93 96.7382 62.7015 95.2267C63.4729 93.7152 63.6124 91.9591 63.0891 90.3448C62.5659 88.7305 61.4228 87.3902 59.9113 86.6187L43.7949 78.407C43.0459 78.0242 42.2287 77.7929 41.3902 77.7263C40.5517 77.6598 39.7083 77.7594 38.9083 78.0193C38.1083 78.2792 37.3675 78.6944 36.7282 79.2411C36.0889 79.7878 35.5637 80.4553 35.1828 81.2052ZM170.289 183.704C168.888 189.778 165.317 195.131 160.247 198.758C155.177 202.385 148.957 204.036 142.756 203.4C136.554 202.764 130.799 199.886 126.57 195.306C122.341 190.726 119.93 184.759 119.791 178.527L170.289 183.704ZM183.085 185.006L196.972 186.438C200.563 186.805 204.182 186.078 207.353 184.351C210.524 182.625 213.099 179.98 214.74 176.765L218.029 170.33C219.669 167.13 220.302 163.508 219.846 159.941C219.391 156.374 217.867 153.028 215.475 150.342L133.576 58.5012C131.638 56.3336 129.202 54.6705 126.477 53.6556C123.753 52.6407 120.822 52.3045 117.938 52.676C115.055 53.0476 112.305 54.1157 109.927 55.7882C107.548 57.4606 105.613 59.687 104.288 62.275L60.4402 148.013C59.1195 150.596 58.4488 153.463 58.4864 156.365C58.5239 159.266 59.2686 162.115 60.6557 164.663C62.0429 167.212 64.0307 169.384 66.4469 170.99C68.8631 172.597 71.6347 173.59 74.5215 173.884L107.003 177.209C106.812 186.837 110.249 196.185 116.631 203.397C123.013 210.609 131.874 215.158 141.454 216.139C151.034 217.121 160.633 214.465 168.345 208.697C176.057 202.93 181.319 194.473 183.085 185.006ZM38.6008 118.462L50.7649 114.51C52.3779 113.986 54.1331 114.124 55.6443 114.894C57.1555 115.664 58.2989 117.003 58.823 118.616C59.3471 120.229 59.209 121.984 58.439 123.495C57.669 125.006 56.3302 126.15 54.7172 126.674L42.5532 130.626C40.9401 131.15 39.1849 131.012 37.6737 130.242C36.1625 129.472 35.0191 128.134 34.495 126.521C33.9709 124.907 34.109 123.152 34.879 121.641C35.649 120.13 36.9878 118.986 38.6008 118.462Z" fill="white"/>
</g>
<defs>
<clipPath id="clip0_1685_457">
<rect width="204.64" height="204.64" fill="white" transform="matrix(-0.951056 0.309017 0.309017 0.951056 195.02 0.387695)"/>
</clipPath>
</defs>
</svg>
