<svg width="50" height="42" viewBox="0 0 50 42" fill="none" xmlns="http://www.w3.org/2000/svg">
<path d="M47.7273 41.4657H2.27273C1.66996 41.4657 1.09189 41.2263 0.665667 40.8001C0.239448 40.3738 0 39.7958 0 39.193V2.82937C0 2.2266 0.239448 1.64853 0.665667 1.22231C1.09189 0.796088 1.66996 0.556641 2.27273 0.556641C2.87549 0.556641 3.45357 0.796088 3.87979 1.22231C4.30601 1.64853 4.54545 2.2266 4.54545 2.82937V36.9203H47.7273C48.33 36.9203 48.9081 37.1597 49.3343 37.5859C49.7606 38.0122 50 38.5902 50 39.193C50 39.7958 49.7606 40.3738 49.3343 40.8001C48.9081 41.2263 48.33 41.4657 47.7273 41.4657Z" fill="white"/>
<path d="M45.4558 25.5567V32.3748C45.4731 32.5183 45.4731 32.6632 45.4558 32.8067C45.4264 32.9428 45.3845 33.0759 45.3308 33.2044C45.2732 33.3291 45.2087 33.4505 45.1376 33.568C44.9645 33.8018 44.7577 34.0086 44.5239 34.1817L44.1603 34.3748C44.0318 34.4286 43.8987 34.4704 43.7626 34.4998C43.579 34.5811 43.3831 34.6311 43.183 34.6476H36.3649C35.7621 34.6476 35.184 34.4081 34.7578 33.9819C34.3316 33.5557 34.0921 32.9776 34.0921 32.3748C34.0921 31.7721 34.3316 31.194 34.7578 30.7678C35.184 30.3416 35.7621 30.1021 36.3649 30.1021H37.7058L29.5467 21.9544L26.6035 24.8862C26.1777 25.3095 25.6016 25.5471 25.0012 25.5471C24.4008 25.5471 23.8248 25.3095 23.3989 24.8862L7.48985 8.97711C7.11752 8.54234 6.92296 7.98307 6.94505 7.41108C6.96715 6.83909 7.20427 6.2965 7.60903 5.89174C8.01379 5.48698 8.55638 5.24986 9.12837 5.22777C9.70036 5.20568 10.2596 5.40024 10.6944 5.77257L25.0012 20.068L27.9444 17.1362C28.3702 16.7129 28.9462 16.4753 29.5467 16.4753C30.1471 16.4753 30.7231 16.7129 31.1489 17.1362L40.9103 26.8976V25.5567C40.9103 24.9539 41.1498 24.3758 41.576 23.9496C42.0022 23.5234 42.5803 23.2839 43.183 23.2839C43.7858 23.2839 44.3639 23.5234 44.7901 23.9496C45.2163 24.3758 45.4558 24.9539 45.4558 25.5567Z" fill="white"/>
</svg>
