<svg width="50" height="51" viewBox="0 0 50 51" fill="none" xmlns="http://www.w3.org/2000/svg">
<path d="M9.16126 20.763C9.84683 20.763 10.4026 20.2072 10.4026 19.5216C10.4026 18.836 9.84683 18.2803 9.16126 18.2803C8.47569 18.2803 7.91992 18.836 7.91992 19.5216C7.91992 20.2072 8.47569 20.763 9.16126 20.763Z" fill="white"/>
<path d="M28.964 20.763C29.6496 20.763 30.2053 20.2072 30.2053 19.5216C30.2053 18.836 29.6496 18.2803 28.964 18.2803C28.2784 18.2803 27.7227 18.836 27.7227 19.5216C27.7227 20.2072 28.2784 20.763 28.964 20.763Z" fill="white"/>
<path d="M49.8943 37.8366C49.6963 37.3886 49.2526 37.0996 48.7625 37.0996H45.0496V1.70345H42.5744V38.3372C42.5744 39.021 43.1282 39.5748 43.812 39.5748H45.9648L38.8615 47.3886L31.7581 39.5748H33.911C34.5948 39.5748 35.1486 39.021 35.1486 38.3372V29.7543C37.0824 26.7258 38.1189 23.2054 38.1189 19.5253C38.1189 14.4343 36.1362 9.64777 32.5366 6.04814C28.9369 2.4485 24.1504 0.46582 19.0595 0.46582C13.9685 0.46582 9.18195 2.4485 5.58232 6.04814C1.98268 9.64777 0 14.4343 0 19.5253C0 24.6162 1.98268 29.4028 5.58232 33.0024C9.18195 36.602 13.9685 38.5847 19.0595 38.5847C24.1504 38.5847 28.9369 36.602 32.5366 33.0024C32.583 32.956 32.6276 32.909 32.6733 32.8619V37.0996H28.9605C28.4704 37.0996 28.0267 37.3886 27.8287 37.8366C27.6306 38.2846 27.7154 38.8075 28.0446 39.1695L37.9456 50.0606C38.1802 50.3187 38.5125 50.4659 38.8615 50.4659C39.2105 50.4659 39.5428 50.3187 39.7773 50.0606L49.6783 39.1695C50.0075 38.8075 50.0923 38.2846 49.8943 37.8366ZM19.0595 36.1095C9.91463 36.1095 2.47525 28.6701 2.47525 19.5253C2.47525 10.3804 9.91463 2.94107 19.0595 2.94107C28.2043 2.94107 35.6436 10.3804 35.6436 19.5253C35.6436 28.6701 28.2043 36.1095 19.0595 36.1095Z" fill="white"/>
<path d="M18.0691 12.8422H20.0493C21.5506 12.8422 22.7721 14.0637 22.7721 15.565H25.2474C25.2474 12.7816 23.0487 10.5031 20.2969 10.3731V8.63428H17.8216V10.3731C15.0697 10.5031 12.8711 12.7816 12.8711 15.565C12.8711 18.4313 15.2028 20.763 18.0691 20.763H20.0493C21.5506 20.763 22.7721 21.9846 22.7721 23.4858C22.7721 24.987 21.5506 26.2086 20.0493 26.2086H18.0691C16.5679 26.2086 15.3463 24.987 15.3463 23.4858H12.8711C12.8711 26.2692 15.0697 28.5477 17.8216 28.6776V30.4165H20.2969V28.6776C23.0487 28.5477 25.2474 26.2692 25.2474 23.4858C25.2474 20.6195 22.9157 18.2878 20.0493 18.2878H18.0691C16.5679 18.2878 15.3463 17.0662 15.3463 15.565C15.3463 14.0637 16.5679 12.8422 18.0691 12.8422Z" fill="white"/>
<path d="M11.2531 40.4326L9.15781 42.5279L7.0625 40.4326L5.3125 42.1826L7.40718 44.2779L5.3125 46.3732L7.0625 48.1232L9.15781 46.0279L11.2531 48.1232L13.0031 46.3732L10.9084 44.2779L13.0031 42.1826L11.2531 40.4326Z" fill="white"/>
<path d="M35.1491 1.70361H32.6738V4.67392H35.1491V1.70361Z" fill="white"/>
</svg>
