<svg width="50" height="51" viewBox="0 0 50 51" fill="none" xmlns="http://www.w3.org/2000/svg">
<path d="M42.5 25.2998H25V7.7998C25 6.2998 24 5.2998 22.5 5.2998C10 5.2998 0 15.2998 0 27.7998C0 40.2998 10 50.2998 22.5 50.2998C35 50.2998 45 40.2998 45 27.7998C45 26.2998 44 25.2998 42.5 25.2998ZM25 45.0498C15.5 46.5498 6.5 39.7998 5.25 30.2998C3.75 20.7998 10.5 11.7998 20 10.5498V27.7998C20 29.2998 21 30.2998 22.5 30.2998H39.75C38.75 38.0498 32.75 44.0498 25 45.0498ZM32.5 0.299805C31 0.299805 30 1.2998 30 2.7998V17.7998C30 19.2998 31 20.2998 32.5 20.2998H47.5C49 20.2998 50 19.2998 50 17.7998C50 8.0498 42.25 0.299805 32.5 0.299805ZM35 15.2998V5.5498C40 6.5498 43.75 10.2998 44.75 15.2998H35Z" fill="white"/>
</svg>
