<svg width="50" height="51" viewBox="0 0 50 51" fill="none" xmlns="http://www.w3.org/2000/svg">
<path d="M8.33333 12.7998H0V45.0915C0 47.9633 2.33646 50.2998 5.20833 50.2998H44.7917C47.6635 50.2998 50 47.9633 50 45.0915V0.299805H8.33333V12.7998ZM2.08333 45.0915V14.8831H8.33333V45.0915C8.33333 46.8144 6.93125 48.2165 5.20833 48.2165C3.48542 48.2165 2.08333 46.8144 2.08333 45.0915ZM10.4167 2.38314H47.9167V45.0915C47.9167 46.8144 46.5146 48.2165 44.7917 48.2165H9.37292C9.40417 48.1758 9.42604 48.129 9.45521 48.0873C9.51458 48.0029 9.56667 47.9144 9.62083 47.8258C9.90554 47.3695 10.1161 46.871 10.2448 46.3488C10.2687 46.2508 10.299 46.1571 10.3177 46.0571C10.3781 45.7435 10.4167 45.4227 10.4167 45.0915V2.38314Z" fill="white"/>
<path d="M14.584 7.59131H43.7507V9.67464H14.584V7.59131ZM18.7507 12.7996H39.584V14.883H18.7507V12.7996ZM31.2507 21.133H43.7507V23.2163H31.2507V21.133ZM31.2507 26.3413H43.7507V28.4246H31.2507V26.3413ZM27.084 21.133H14.584V33.633H27.084V21.133ZM25.0007 31.5496H16.6673V23.2163H25.0007V31.5496ZM31.2507 31.5496H43.7507V33.633H31.2507V31.5496ZM14.584 36.758H27.084V38.8413H14.584V36.758ZM31.2507 36.758H43.7507V38.8413H31.2507V36.758ZM14.584 41.9663H27.084V44.0496H14.584V41.9663ZM31.2507 41.9663H43.7507V44.0496H31.2507V41.9663Z" fill="white"/>
</svg>
