<svg width="50" height="51" viewBox="0 0 50 51" fill="none" xmlns="http://www.w3.org/2000/svg">
<path d="M41.6496 0.466016C41.2149 0.472941 40.8002 0.64932 40.4938 0.957554L37.16 4.2909C37.0043 4.44576 36.8807 4.62988 36.7963 4.83266C36.7119 5.03545 36.6684 5.25291 36.6684 5.47254V11.4459L35.7568 12.3573C31.8438 9.00835 26.8555 7.1327 21.6696 7.1327C9.72154 7.1327 0 16.853 0 28.7994C0 40.7459 9.72154 50.4661 21.6696 50.4662C33.6176 50.4662 43.336 40.7459 43.336 28.7994C43.336 24.8229 42.2439 20.9258 40.1747 17.5299C40.0667 17.3315 39.9195 17.1572 39.7421 17.0175C39.5647 16.8777 39.3607 16.7755 39.1425 16.717C38.9243 16.6585 38.6966 16.645 38.473 16.6772C38.2494 16.7094 38.0347 16.7866 37.842 16.9043C37.6492 17.022 37.4823 17.1776 37.3515 17.3617C37.2207 17.5459 37.1288 17.7546 37.0811 17.9754C37.0335 18.1962 37.0312 18.4243 37.0744 18.646C37.1176 18.8676 37.2055 19.0782 37.3326 19.2649C39.0836 22.1386 40.0022 25.4344 40.0022 28.7994C40.0022 38.9445 31.816 47.1328 21.6696 47.1328C11.5232 47.1328 3.33379 38.9444 3.33379 28.7994C3.33379 18.6545 11.5232 10.4693 21.6696 10.4693C25.972 10.4693 30.1127 11.9905 33.3932 14.7206L31.0264 17.0872C28.3812 14.9746 25.088 13.8026 21.6696 13.8026C13.4041 13.8026 6.66761 20.535 6.66758 28.7994C6.66758 37.064 13.404 43.7962 21.6696 43.7962C29.9352 43.7962 36.6684 37.064 36.6684 28.7994C36.6684 26.6739 36.2236 24.5718 35.3499 22.6341C35.2621 22.4302 35.1346 22.2459 34.9748 22.0919C34.8149 21.938 34.6259 21.8174 34.4189 21.7374C34.2119 21.6574 33.991 21.6195 33.7691 21.6258C33.5473 21.6322 33.3289 21.6828 33.1269 21.7746C32.9248 21.8665 32.7431 21.9977 32.5923 22.1606C32.4416 22.3235 32.3249 22.5148 32.2491 22.7234C32.1732 22.9319 32.1398 23.1535 32.1506 23.3752C32.1615 23.5969 32.2165 23.8141 32.3123 24.0143C32.9919 25.5214 33.3314 27.1463 33.3314 28.7994C33.3314 35.2624 28.1335 40.4759 21.6696 40.4759C15.2057 40.4759 10.0014 35.2624 10.0014 28.7994C10.0014 22.3364 15.2057 17.136 21.6696 17.136C24.1996 17.136 26.6384 17.9712 28.6432 19.4667L26.2601 21.8495C24.9071 20.9575 23.3147 20.4693 21.6696 20.4693C17.0864 20.4693 13.3384 24.2168 13.3384 28.7994C13.3384 33.3821 17.0864 37.1426 21.6696 37.1426C26.2529 37.1426 29.9976 33.3821 29.9976 28.7994C30.0183 28.5689 29.9907 28.3366 29.9167 28.1173C29.8427 27.898 29.7238 27.6965 29.5676 27.5257C29.4114 27.3548 29.2213 27.2184 29.0095 27.125C28.7977 27.0317 28.5687 26.9835 28.3372 26.9835C28.1057 26.9835 27.8767 27.0317 27.6649 27.125C27.4531 27.2184 27.263 27.3548 27.1068 27.5257C26.9506 27.6965 26.8317 27.898 26.7577 28.1173C26.6837 28.3366 26.6561 28.5689 26.6768 28.7994C26.6768 31.5806 24.4511 33.806 21.6696 33.806C18.8881 33.806 16.6722 31.5806 16.6722 28.7994C16.6722 26.0183 18.8881 23.806 21.6696 23.8059C22.4172 23.8059 23.1407 23.9872 23.8053 24.3007L20.4878 27.6178C20.3271 27.7715 20.1986 27.9557 20.1101 28.1597C20.0215 28.3637 19.9745 28.5834 19.972 28.8057C19.9694 29.0281 20.0112 29.2488 20.0951 29.4548C20.179 29.6608 20.3031 29.8479 20.4603 30.0053C20.6175 30.1627 20.8045 30.2871 21.0104 30.3712C21.2163 30.4553 21.4369 30.4975 21.6593 30.4953C21.8818 30.493 22.1014 30.4463 22.3056 30.358C22.5097 30.2698 22.6942 30.1416 22.8482 29.9811L27.2726 25.5572C27.5126 25.4148 27.7129 25.2145 27.8554 24.9746L31.9868 20.8437C32.2267 20.7013 32.4271 20.5009 32.5695 20.261L36.88 15.9511C36.9593 15.8853 37.0323 15.8123 37.0982 15.733L39.0288 13.8026H45.0094C45.4485 13.7991 45.8685 13.6225 46.1782 13.3111L49.5152 9.97451C49.8257 9.6622 50 9.23973 50 8.79937C50 8.35902 49.8257 7.93654 49.5152 7.62424L46.367 4.47319C46.2646 4.33093 46.1405 4.20568 45.9991 4.10209L42.8574 0.957554C42.6994 0.798669 42.5111 0.673253 42.3035 0.588799C42.096 0.504345 41.8736 0.462583 41.6496 0.466016ZM41.6756 4.48947L42.6522 5.46603L40.0021 8.11578V6.16265L41.6756 4.48947ZM45.0093 7.82281L45.9828 8.79612L44.3224 10.4693H42.3625L45.0093 7.82281Z" fill="white"/>
</svg>
