<svg width="50" height="51" viewBox="0 0 50 51" fill="none" xmlns="http://www.w3.org/2000/svg">
<path fill-rule="evenodd" clip-rule="evenodd" d="M15.6448 36.5166C15.9705 32.9868 17.8841 29.3074 20.6758 27.1908C21.8059 26.3341 21.8059 24.5975 20.6758 23.7408C17.8343 21.5866 15.902 17.813 15.6284 14.226H34.3717C34.0981 17.8129 32.1658 21.5866 29.3242 23.7409C28.1942 24.5977 28.1942 26.3341 29.3242 27.1907C32.1159 29.3071 34.0295 32.9867 34.3552 36.5165H28.9114C28.0916 35.4303 27.067 34.545 25.896 34.0562L25.8762 34.048V30.9828C25.8762 30.7503 25.7839 30.5275 25.6195 30.3631C25.4552 30.1988 25.2323 30.1064 24.9999 30.1064C24.7675 30.1064 24.5446 30.1988 24.3803 30.3631C24.2159 30.5275 24.1236 30.7503 24.1236 30.9828V34.0481L24.1039 34.0563C22.9329 34.5452 21.9084 35.4304 21.0886 36.5165H15.6448V36.5166ZM25 2.07872C29.9954 2.07872 34.6231 3.64304 38.4199 6.30806C41.9767 8.80463 44.806 12.2637 46.5279 16.3048L44.9934 15.3472C44.9037 15.2913 44.8038 15.2537 44.6995 15.2365C44.5952 15.2192 44.4885 15.2227 44.3855 15.2467C44.2825 15.2707 44.1853 15.3147 44.0993 15.3763C44.0134 15.4379 43.9404 15.5158 43.8846 15.6055C43.8287 15.6953 43.7911 15.7952 43.7739 15.8995C43.7566 16.0038 43.7601 16.1105 43.7841 16.2135C43.8081 16.3165 43.8521 16.4137 43.9137 16.4996C43.9753 16.5856 44.0532 16.6586 44.1429 16.7144L47.645 18.9C47.7566 18.9746 47.8852 19.0202 48.019 19.0324C48.1528 19.0447 48.2875 19.0233 48.4109 18.9702C48.5342 18.9171 48.6424 18.834 48.7255 18.7285C48.8085 18.6229 48.8639 18.4982 48.8865 18.3658L49.669 13.8413C49.701 13.6325 49.6497 13.4195 49.5261 13.2481C49.4025 13.0767 49.2166 12.9608 49.0083 12.9253C48.8001 12.8897 48.5862 12.9374 48.4128 13.0581C48.2394 13.1788 48.1203 13.3627 48.0812 13.5704L47.7988 15.2035C45.9416 11.0835 43.0032 7.55826 39.3461 4.99132C35.2835 2.13971 30.3361 0.46582 25 0.46582C24.7861 0.46582 24.581 0.550785 24.4298 0.702024C24.2785 0.853263 24.1935 1.05839 24.1935 1.27227C24.1935 1.48616 24.2785 1.69128 24.4298 1.84252C24.581 1.99376 24.7861 2.07872 25 2.07872ZM1.91885 37.3613L2.20111 35.7291C4.04335 39.8139 6.95131 43.3153 10.5712 45.8788C14.6508 48.7679 19.6293 50.4658 25 50.4658C25.2139 50.4658 25.419 50.3809 25.5702 50.2296C25.7215 50.0784 25.8065 49.8733 25.8065 49.6594C25.8065 49.4455 25.7215 49.2404 25.5702 49.0891C25.419 48.9379 25.2139 48.8529 25 48.8529C19.9665 48.8529 15.308 47.2669 11.4974 44.5684C7.98135 42.0785 5.18306 38.6409 3.47339 34.6276L5.00665 35.5846C5.09643 35.6404 5.19632 35.678 5.30063 35.6953C5.40495 35.7125 5.51163 35.7091 5.6146 35.6851C5.71757 35.6611 5.81481 35.617 5.90076 35.5555C5.98671 35.4939 6.05968 35.416 6.11552 35.3262C6.17138 35.2364 6.209 35.1365 6.22624 35.0322C6.24348 34.9279 6.24001 34.8212 6.21602 34.7183C6.19202 34.6153 6.14798 34.518 6.08641 34.4321C6.02484 34.3462 5.94694 34.2732 5.85716 34.2173L2.35514 32.0317C2.24346 31.9571 2.11488 31.9116 1.98112 31.8993C1.84735 31.887 1.71264 31.9084 1.58925 31.9615C1.46585 32.0146 1.3577 32.0977 1.27463 32.2033C1.19155 32.3088 1.1362 32.4335 1.11361 32.5659L0.331149 37.0904C0.311323 37.1955 0.312628 37.3035 0.334989 37.4081C0.35735 37.5127 0.400319 37.6118 0.461388 37.6996C0.522457 37.7874 0.600403 37.8622 0.690677 37.9195C0.780952 37.9769 0.881747 38.0157 0.98718 38.0337C1.09261 38.0517 1.20057 38.0485 1.30476 38.0243C1.40895 38.0001 1.50727 37.9554 1.594 37.8928C1.68073 37.8302 1.75412 37.751 1.80989 37.6597C1.86567 37.5685 1.90271 37.467 1.91885 37.3613ZM36.8955 48.547L35.2628 48.2646C39.4251 46.388 42.9813 43.406 45.5564 39.6929C48.3581 35.6528 50 30.7498 50 25.4658C50 25.2519 49.915 25.0468 49.7638 24.8956C49.6126 24.7443 49.4074 24.6594 49.1936 24.6594C48.9797 24.6594 48.7745 24.7443 48.6233 24.8956C48.4721 25.0468 48.3871 25.2519 48.3871 25.4658C48.3871 30.4149 46.8523 35.0028 44.2333 38.7793C41.7328 42.385 38.2448 45.2533 34.1613 46.9932L35.1187 45.4592C35.1745 45.3694 35.2121 45.2695 35.2294 45.1652C35.2466 45.0609 35.2431 44.9542 35.2191 44.8512C35.1951 44.7482 35.1511 44.651 35.0895 44.5651C35.028 44.4791 34.9501 44.4061 34.8603 44.3503C34.7705 44.2944 34.6706 44.2568 34.5663 44.2396C34.462 44.2223 34.3553 44.2258 34.2523 44.2498C34.1494 44.2738 34.0521 44.3178 33.9662 44.3794C33.8802 44.441 33.8073 44.5189 33.7514 44.6087L31.5658 48.1107C31.4912 48.2224 31.4457 48.3509 31.4334 48.4847C31.4211 48.6185 31.4425 48.7532 31.4956 48.8766C31.5487 49 31.6318 49.1081 31.7374 49.1912C31.8429 49.2743 31.9676 49.3296 32.1 49.3522L36.6245 50.1347C36.8333 50.1667 37.0464 50.1154 37.2177 49.9918C37.3891 49.8682 37.505 49.6823 37.5406 49.474C37.5761 49.2658 37.5284 49.0519 37.4077 48.8785C37.2871 48.7051 37.1031 48.586 36.8955 48.547ZM13.1045 2.38467L14.7374 2.66713C10.6207 4.52268 7.09778 7.45826 4.53115 11.1118C1.67611 15.1757 0 20.126 0 25.4658C0 25.6797 0.0849652 25.8848 0.236204 26.0361C0.387443 26.1873 0.592567 26.2723 0.806452 26.2723C1.02034 26.2723 1.22546 26.1873 1.3767 26.0361C1.52794 25.8848 1.6129 25.6797 1.6129 25.4658C1.6129 20.4669 3.17944 15.8363 5.84788 12.0379C8.34385 8.48507 11.8007 5.65876 15.839 3.9379L14.8814 5.47247C14.8255 5.56225 14.7879 5.66214 14.7706 5.76645C14.7534 5.87077 14.7569 5.97745 14.7809 6.08042C14.8049 6.18339 14.8489 6.28063 14.9105 6.36658C14.972 6.45253 15.0499 6.5255 15.1397 6.58134C15.2295 6.6372 15.3294 6.67482 15.4337 6.69206C15.538 6.7093 15.6447 6.70583 15.7477 6.68184C15.8506 6.65785 15.9479 6.6138 16.0338 6.55223C16.1198 6.49066 16.1927 6.41276 16.2486 6.32298L18.4342 2.82096C18.5088 2.70928 18.5543 2.5807 18.5666 2.44694C18.5789 2.31317 18.5575 2.17846 18.5044 2.05507C18.4513 1.93168 18.3682 1.82352 18.2626 1.74045C18.1571 1.65738 18.0324 1.60202 17.9 1.57943L13.3755 0.79697C13.1667 0.764943 12.9536 0.816245 12.7823 0.93982C12.6109 1.06339 12.495 1.24935 12.4594 1.4576C12.4239 1.66586 12.4716 1.87974 12.5923 2.05315C12.7129 2.22656 12.8969 2.34562 13.1045 2.38467ZM13.2606 41.1788V39.6541C13.2606 38.8155 13.9467 38.1294 14.7852 38.1294H35.2147C36.0532 38.1294 36.7393 38.8155 36.7393 39.6541V41.1788H13.2606ZM14.7852 12.6131C13.9466 12.6131 13.2606 11.927 13.2606 11.0884V9.5638H36.7394V11.0885C36.7394 11.9271 36.0533 12.6132 35.2148 12.6132L14.7852 12.6131ZM25.8762 23.8801V21.8728L25.8959 21.8644C27.7296 21.0991 29.2044 19.3617 30.0958 17.4029C26.348 14.6621 24.5084 19.1105 20.3611 18.2973C21.2625 19.8781 22.5551 21.2179 24.1039 21.8643L24.1236 21.8726V23.88C24.1271 24.1101 24.2209 24.3297 24.3849 24.4912C24.5488 24.6527 24.7697 24.7432 24.9998 24.7432C25.23 24.7432 25.4509 24.6527 25.6149 24.4912C25.7788 24.3297 25.8727 24.1102 25.8762 23.8801ZM25.8762 27.0236V26.3518C25.8762 26.1194 25.7839 25.8965 25.6195 25.7322C25.4552 25.5678 25.2323 25.4755 24.9999 25.4755C24.7675 25.4755 24.5446 25.5678 24.3803 25.7322C24.2159 25.8965 24.1236 26.1194 24.1236 26.3518V27.0236C24.1236 27.256 24.2159 27.4789 24.3803 27.6432C24.5446 27.8076 24.7675 27.8999 24.9999 27.8999C25.2323 27.8999 25.4552 27.8076 25.6195 27.6432C25.7839 27.4789 25.8762 27.256 25.8762 27.0236Z" fill="white"/>
</svg>
