<svg width="50" height="51" viewBox="0 0 50 51" fill="none" xmlns="http://www.w3.org/2000/svg">
<path d="M45.8191 8.90695V45.5602C45.8191 45.6957 45.8087 45.826 45.793 45.9616C45.8191 45.7791 45.8452 45.5914 45.866 45.409C45.8295 45.6436 45.767 45.8625 45.6784 46.0815C45.7461 45.9146 45.8191 45.7478 45.8869 45.581C45.793 45.7895 45.6784 45.9824 45.5376 46.1649L45.866 45.7426C45.7357 45.9042 45.5949 46.045 45.4333 46.1753L45.8556 45.8469C45.6731 45.9876 45.4803 46.1023 45.2717 46.1961C45.4385 46.1284 45.6054 46.0554 45.7722 45.9876C45.5532 46.0762 45.3343 46.1388 45.0997 46.1753C45.2822 46.1492 45.4698 46.1232 45.6523 46.1023C45.204 46.1597 44.7348 46.1284 44.2812 46.1284H4.74521C4.60967 46.1284 4.47413 46.118 4.33859 46.1023C4.52105 46.1284 4.70872 46.1544 4.89118 46.1753C4.65659 46.1388 4.43764 46.0762 4.21869 45.9876C4.38551 46.0554 4.55233 46.1284 4.71915 46.1961C4.51062 46.1023 4.31774 45.9876 4.13528 45.8469L4.55754 46.1753C4.39593 46.045 4.25518 45.9042 4.12485 45.7426L4.45328 46.1649C4.31252 45.9824 4.19784 45.7895 4.104 45.581C4.17177 45.7478 4.24475 45.9146 4.31252 46.0815C4.2239 45.8625 4.16135 45.6436 4.12485 45.409C4.15092 45.5914 4.17698 45.7791 4.19784 45.9616C4.14571 45.5445 4.17177 45.1118 4.17177 44.6948V8.93823C4.17177 8.80269 4.1822 8.67236 4.19784 8.53682C4.17177 8.71928 4.14571 8.90695 4.12485 9.08941C4.16135 8.85482 4.2239 8.63587 4.31252 8.41692C4.24475 8.58374 4.17177 8.75056 4.104 8.91738C4.19784 8.70885 4.31252 8.51597 4.45328 8.33351L4.12485 8.75577C4.25518 8.59417 4.39593 8.45341 4.55754 8.32308L4.13528 8.65151C4.31774 8.51076 4.51062 8.39607 4.71915 8.30223C4.55233 8.37 4.38551 8.44299 4.21869 8.51076C4.43764 8.42213 4.65659 8.35958 4.89118 8.32308C4.70872 8.34915 4.52105 8.37522 4.33859 8.39607C4.78692 8.33872 5.25609 8.37 5.70963 8.37H45.2457C45.3812 8.37 45.5167 8.38043 45.6523 8.39607C45.4698 8.37 45.2822 8.34394 45.0997 8.32308C45.3343 8.35958 45.5532 8.42213 45.7722 8.51076C45.6054 8.44299 45.4385 8.37 45.2717 8.30223C45.4803 8.39607 45.6731 8.51076 45.8556 8.65151L45.4333 8.32308C45.5949 8.45341 45.7357 8.59417 45.866 8.75577L45.5376 8.33351C45.6784 8.51597 45.793 8.70885 45.8869 8.91738C45.8191 8.75056 45.7461 8.58374 45.6784 8.41692C45.767 8.63587 45.8295 8.85482 45.866 9.08941C45.84 8.90695 45.8139 8.71928 45.793 8.53682C45.8087 8.66715 45.8191 8.78705 45.8191 8.90695C45.8243 9.4439 46.0485 9.99648 46.429 10.3823C46.7887 10.742 47.383 11.0182 47.9043 10.9922C49.0199 10.9401 50.0052 10.0747 49.9896 8.90695C49.9739 7.71837 49.536 6.66011 48.7749 5.75825C48.4726 5.40376 48.0816 5.09619 47.6854 4.8616C47.2736 4.61658 46.7887 4.40806 46.3143 4.32465C45.8973 4.25167 45.4959 4.20996 45.0788 4.20996H4.76085C3.52014 4.21517 2.36283 4.67393 1.45054 5.51323C0.50176 6.38903 0.0065163 7.68709 0.00130321 8.95908V45.3099C0.00130321 45.4559 -0.00390975 45.6019 0.00651642 45.7478C0.0690734 46.9208 0.506973 47.9894 1.30979 48.8496C2.02919 49.6264 3.03011 50.1007 4.06751 50.2363C4.61488 50.3093 5.15183 50.2988 5.70963 50.2988H45.2509C46.5124 50.2936 47.7636 49.8088 48.6498 48.8965C49.5308 47.9947 50 46.7904 50 45.5341V8.90174C50 7.8122 49.0408 6.76437 47.9148 6.8165C46.7731 6.87385 45.8191 7.73922 45.8191 8.90695Z" fill="white"/>
<path d="M45.8184 8.90695V17.3417L47.9037 15.2565H3.94695C3.35266 15.2565 2.75837 15.2461 2.16408 15.2565H2.08588L4.17111 17.3417V9.82967C4.17111 9.40741 4.14505 8.96429 4.19718 8.54203C4.17111 8.72449 4.14505 8.91216 4.1242 9.09462C4.16069 8.86003 4.22325 8.64108 4.31187 8.42213C4.2441 8.58895 4.17111 8.75577 4.10334 8.92259C4.19718 8.71407 4.31187 8.52118 4.45262 8.33872L4.1242 8.76098C4.25452 8.59938 4.39528 8.45862 4.55688 8.3283L4.13462 8.65672C4.31708 8.51597 4.50996 8.40128 4.71849 8.30745C4.55167 8.37522 4.38485 8.4482 4.21803 8.51597C4.43698 8.42735 4.65593 8.36479 4.89052 8.3283C4.70806 8.35436 4.52039 8.38043 4.33793 8.40128C4.78626 8.34394 5.25544 8.37522 5.70897 8.37522H45.245C45.3806 8.37522 45.5161 8.38564 45.6516 8.40128C45.4692 8.37522 45.2815 8.34915 45.099 8.3283C45.3336 8.36479 45.5526 8.42735 45.7715 8.51597C45.6047 8.4482 45.4379 8.37522 45.2711 8.30745C45.4796 8.40128 45.6725 8.51597 45.8549 8.65672L45.4327 8.3283C45.5943 8.45862 45.735 8.59938 45.8654 8.76098L45.5369 8.33872C45.6777 8.52118 45.7924 8.71407 45.8862 8.92259C45.8184 8.75577 45.7455 8.58895 45.6777 8.42213C45.7663 8.64108 45.8289 8.86003 45.8654 9.09462C45.8393 8.91216 45.8132 8.72449 45.7924 8.54203C45.808 8.66715 45.8184 8.78705 45.8184 8.90695C45.8237 9.4439 46.0478 9.99648 46.4284 10.3823C46.7881 10.742 47.3824 11.0182 47.9037 10.9922C49.0193 10.9401 50.0046 10.0747 49.9889 8.90695C49.9785 8.11456 49.7856 7.40037 49.4363 6.6966C49.1027 6.0189 48.5605 5.50281 47.9662 5.05448C47.2103 4.48625 46.2251 4.21517 45.2867 4.20996H4.78105C3.07637 4.21517 1.36647 5.11704 0.574085 6.66532C0.188317 7.41601 0.00585938 8.19797 0.00585938 9.03728V17.3417C0.00585938 18.4677 0.959854 19.427 2.09109 19.427H46.0478C46.6421 19.427 47.2364 19.4322 47.8307 19.427H47.9089C49.0349 19.427 49.9941 18.473 49.9941 17.3417V8.90695C49.9941 7.81742 49.0349 6.76959 47.9089 6.82172C46.7724 6.87385 45.8184 7.73922 45.8184 8.90695Z" fill="white"/>
<path d="M15.2545 9.70527V2.55292C15.2545 1.46339 14.2952 0.415557 13.1692 0.467688C12.038 0.519818 11.084 1.38519 11.084 2.55292V9.70527C11.084 10.7948 12.0432 11.8426 13.1692 11.7905C14.3005 11.7384 15.2545 10.873 15.2545 9.70527ZM34.7305 2.55813V9.71049C34.7305 10.8 35.6897 11.8479 36.8158 11.7957C37.947 11.7436 38.901 10.8782 38.901 9.71049V2.55813C38.901 1.4686 37.9418 0.42077 36.8158 0.472901C35.6845 0.519818 34.7305 1.38519 34.7305 2.55813Z" fill="white"/>
</svg>
